<?xml version='1.0' encoding='utf-8'?>
<!DOCTYPE score-partwise PUBLIC "-//Recordare//DTD MusicXML 3.0 Partwise//EN" "http://www.musicxml.org/dtds/partwise.dtd">
<score-partwise>
  <work>
    <work-title>Every Morning Mercies New</work-title>
  </work>
  <identification>
    <creator type="composer">Words: Greville Phillimore, 1863.
Music: 'Kelso' or 'Every Morning' Edward J. Hopkins, 1872.
Setting: "Sunday School Hymnal", 1901 (LCMS English District).
copyright: public domain.  This score is a part of the Open Hymnal Project, 2013 Revision.</creator>
    <encoding>
      <encoder>abc2xml version 268</encoder>
      <software>https://wim.vree.org/svgParse/abc2xml.html</software>
      <encoding-date>2026-07-21</encoding-date>
    </encoding>
    <source>Music and Lyrics source: "Sunday School Hymnal", 1901, English District LCMS, Hymn 35 page 29</source>
  </identification>
  <defaults>
    <scaling>
      <millimeters>6.351</millimeters>
      <tenths>40</tenths>
    </scaling>
    <page-layout>
      <page-height>1757.2</page-height>
      <page-width>1360.42</page-width>
      <page-margins type="both">
        <left-margin>113.368</left-margin>
        <right-margin>113.368</right-margin>
        <top-margin>62.9822</top-margin>
        <bottom-margin>62.9822</bottom-margin>
      </page-margins>
    </page-layout>
  </defaults>
  <part-list>
    <score-part id="PS1V1">
      <part-name />
    </score-part>
    <score-part id="PS2V1">
      <part-name />
      <score-instrument id="IS2V1-S2V2">
        <instrument-name>acoustic_grand_piano</instrument-name>
      </score-instrument>
      <midi-instrument id="IS2V1-S2V2">
        <midi-channel>4</midi-channel>
        <midi-program>1</midi-program>
      </midi-instrument>
    </score-part>
  </part-list>
  <part id="PS1V1">
    <measure number="1">
      <attributes>
        <divisions>120</divisions>
        <key>
          <fifths>-2</fifths>
          <mode>major</mode>
        </key>
        <time>
          <beats>4</beats>
          <beat-type>4</beat-type>
        </time>
        <clef>
          <sign>G</sign>
          <line>2</line>
        </clef>
      </attributes>
      <direction placement="above">
        <direction-type>
          <metronome>
            <beat-unit>quarter</beat-unit>
            <per-minute>120</per-minute>
          </metronome>
        </direction-type>
        <sound tempo="120.00" />
      </direction>
      <note>
        <pitch>
          <step>B</step>
          <alter>-1</alter>
          <octave>4</octave>
        </pitch>
        <duration>120</duration>
        <voice>1</voice>
        <type>quarter</type>
        <lyric number="1">
          <syllabic>begin</syllabic>
          <text>1. Ev</text>
        </lyric>
        <lyric number="2">
          <syllabic>single</syllabic>
          <text>2. Still</text>
        </lyric>
        <lyric number="3">
          <syllabic>single</syllabic>
          <text>3. Let</text>
        </lyric>
        <lyric number="4">
          <syllabic>single</syllabic>
          <text>4. As</text>
        </lyric>
      </note>
      <note>
        <pitch>
          <step>B</step>
          <alter>-1</alter>
          <octave>4</octave>
        </pitch>
        <duration>120</duration>
        <voice>1</voice>
        <type>quarter</type>
        <lyric number="1">
          <syllabic>end</syllabic>
          <text>'ry</text>
        </lyric>
        <lyric number="2">
          <syllabic>single</syllabic>
          <text>the</text>
        </lyric>
        <lyric number="3">
          <syllabic>single</syllabic>
          <text>our</text>
        </lyric>
        <lyric number="4">
          <syllabic>single</syllabic>
          <text>the</text>
        </lyric>
      </note>
      <note>
        <pitch>
          <step>B</step>
          <alter>-1</alter>
          <octave>4</octave>
        </pitch>
        <duration>120</duration>
        <voice>1</voice>
        <type>quarter</type>
        <lyric number="1">
          <syllabic>begin</syllabic>
          <text>morn</text>
        </lyric>
        <lyric number="2">
          <syllabic>begin</syllabic>
          <text>great</text>
        </lyric>
        <lyric number="3">
          <syllabic>single</syllabic>
          <text>prayers</text>
        </lyric>
        <lyric number="4">
          <syllabic>begin</syllabic>
          <text>morn</text>
        </lyric>
      </note>
      <note>
        <pitch>
          <step>E</step>
          <alter>-1</alter>
          <octave>5</octave>
        </pitch>
        <duration>120</duration>
        <voice>1</voice>
        <type>quarter</type>
        <lyric number="1">
          <syllabic>end</syllabic>
          <text>ing</text>
        </lyric>
        <lyric number="2">
          <syllabic>end</syllabic>
          <text>ness</text>
        </lyric>
        <lyric number="3">
          <syllabic>single</syllabic>
          <text>each</text>
        </lyric>
        <lyric number="4">
          <syllabic>end</syllabic>
          <text>ing</text>
        </lyric>
      </note>
      <backup>
        <duration>480</duration>
      </backup>
      <note>
        <pitch>
          <step>D</step>
          <octave>4</octave>
        </pitch>
        <duration>120</duration>
        <voice>2</voice>
        <type>quarter</type>
      </note>
      <note>
        <pitch>
          <step>E</step>
          <alter>-1</alter>
          <octave>4</octave>
        </pitch>
        <duration>120</duration>
        <voice>2</voice>
        <type>quarter</type>
      </note>
      <note>
        <pitch>
          <step>D</step>
          <octave>4</octave>
        </pitch>
        <duration>120</duration>
        <voice>2</voice>
        <type>quarter</type>
      </note>
      <note>
        <pitch>
          <step>G</step>
          <octave>4</octave>
        </pitch>
        <duration>120</duration>
        <voice>2</voice>
        <type>quarter</type>
      </note>
    </measure>
    <measure number="2">
      <note>
        <pitch>
          <step>D</step>
          <octave>5</octave>
        </pitch>
        <duration>180</duration>
        <voice>1</voice>
        <type>quarter</type>
        <dot />
        <lyric number="1">
          <syllabic>begin</syllabic>
          <text>mer</text>
        </lyric>
        <lyric number="2">
          <syllabic>single</syllabic>
          <text>of</text>
        </lyric>
        <lyric number="3">
          <syllabic>single</syllabic>
          <text>morn</text>
        </lyric>
        <lyric number="4">
          <syllabic>single</syllabic>
          <text>light</text>
        </lyric>
      </note>
      <note>
        <pitch>
          <step>C</step>
          <octave>5</octave>
        </pitch>
        <duration>60</duration>
        <voice>1</voice>
        <type>eighth</type>
        <lyric number="1">
          <syllabic>end</syllabic>
          <text>cies</text>
        </lyric>
        <lyric number="2">
          <syllabic>single</syllabic>
          <text>Thy</text>
        </lyric>
        <lyric number="3">
          <syllabic>begin</syllabic>
          <text>pre</text>
        </lyric>
        <lyric number="4">
          <syllabic>begin</syllabic>
          <text>re</text>
        </lyric>
      </note>
      <note>
        <pitch>
          <step>B</step>
          <alter>-1</alter>
          <octave>4</octave>
        </pitch>
        <duration>240</duration>
        <voice>1</voice>
        <type>half</type>
        <lyric number="1">
          <syllabic>single</syllabic>
          <text>new</text>
        </lyric>
        <lyric number="2">
          <syllabic>single</syllabic>
          <text>love</text>
        </lyric>
        <lyric number="3">
          <syllabic>end</syllabic>
          <text>vail,</text>
        </lyric>
        <lyric number="4">
          <syllabic>end</syllabic>
          <text>turns,</text>
        </lyric>
      </note>
      <backup>
        <duration>480</duration>
      </backup>
      <note>
        <pitch>
          <step>F</step>
          <octave>4</octave>
        </pitch>
        <duration>180</duration>
        <voice>2</voice>
        <type>quarter</type>
        <dot />
      </note>
      <note>
        <pitch>
          <step>E</step>
          <alter>-1</alter>
          <octave>4</octave>
        </pitch>
        <duration>60</duration>
        <voice>2</voice>
        <type>eighth</type>
      </note>
      <note>
        <pitch>
          <step>D</step>
          <octave>4</octave>
        </pitch>
        <duration>240</duration>
        <voice>2</voice>
        <type>half</type>
      </note>
    </measure>
    <measure number="3">
      <note>
        <pitch>
          <step>B</step>
          <alter>-1</alter>
          <octave>4</octave>
        </pitch>
        <duration>120</duration>
        <voice>1</voice>
        <type>quarter</type>
        <lyric number="1">
          <syllabic>single</syllabic>
          <text>Fall</text>
        </lyric>
        <lyric number="2">
          <syllabic>begin</syllabic>
          <text>Dai</text>
        </lyric>
        <lyric number="3">
          <syllabic>single</syllabic>
          <text>That</text>
        </lyric>
        <lyric number="4">
          <syllabic>single</syllabic>
          <text>As</text>
        </lyric>
      </note>
      <note>
        <pitch>
          <step>G</step>
          <octave>4</octave>
        </pitch>
        <duration>120</duration>
        <voice>1</voice>
        <type>quarter</type>
        <lyric number="1">
          <syllabic>single</syllabic>
          <text>as</text>
        </lyric>
        <lyric number="2">
          <syllabic>end</syllabic>
          <text>ly</text>
        </lyric>
        <lyric number="3">
          <syllabic>single</syllabic>
          <text>these</text>
        </lyric>
        <lyric number="4">
          <syllabic>single</syllabic>
          <text>the</text>
        </lyric>
      </note>
      <note>
        <pitch>
          <step>F</step>
          <octave>4</octave>
        </pitch>
        <duration>120</duration>
        <voice>1</voice>
        <type>quarter</type>
        <lyric number="1">
          <syllabic>single</syllabic>
          <text>fresh</text>
        </lyric>
        <lyric number="2">
          <syllabic>single</syllabic>
          <text>doth</text>
        </lyric>
        <lyric number="3">
          <syllabic>single</syllabic>
          <text>gifts</text>
        </lyric>
        <lyric number="4">
          <syllabic>single</syllabic>
          <text>sun</text>
        </lyric>
      </note>
      <note>
        <pitch>
          <step>B</step>
          <alter>-1</alter>
          <octave>4</octave>
        </pitch>
        <duration>120</duration>
        <voice>1</voice>
        <type>quarter</type>
        <lyric number="1">
          <syllabic>single</syllabic>
          <text>as</text>
        </lyric>
        <lyric number="2">
          <syllabic>single</syllabic>
          <text>our</text>
        </lyric>
        <lyric number="3">
          <syllabic>single</syllabic>
          <text>may</text>
        </lyric>
        <lyric number="4">
          <syllabic>single</syllabic>
          <text>with</text>
        </lyric>
      </note>
      <backup>
        <duration>480</duration>
      </backup>
      <note>
        <pitch>
          <step>F</step>
          <octave>4</octave>
        </pitch>
        <duration>120</duration>
        <voice>2</voice>
        <type>quarter</type>
      </note>
      <note>
        <pitch>
          <step>E</step>
          <alter>-1</alter>
          <octave>4</octave>
        </pitch>
        <duration>120</duration>
        <voice>2</voice>
        <type>quarter</type>
      </note>
      <note>
        <pitch>
          <step>D</step>
          <octave>4</octave>
        </pitch>
        <duration>120</duration>
        <voice>2</voice>
        <type>quarter</type>
      </note>
      <note>
        <pitch>
          <step>F</step>
          <octave>4</octave>
        </pitch>
        <duration>120</duration>
        <voice>2</voice>
        <type>quarter</type>
      </note>
    </measure>
    <measure number="4">
      <note>
        <pitch>
          <step>D</step>
          <octave>5</octave>
        </pitch>
        <duration>180</duration>
        <voice>1</voice>
        <type>quarter</type>
        <dot />
        <lyric number="1">
          <syllabic>begin</syllabic>
          <text>morn</text>
        </lyric>
        <lyric number="2">
          <syllabic>single</syllabic>
          <text>sins</text>
        </lyric>
        <lyric number="3">
          <syllabic>begin</syllabic>
          <text>nev</text>
        </lyric>
        <lyric number="4">
          <syllabic>begin</syllabic>
          <text>splen</text>
        </lyric>
      </note>
      <note>
        <pitch>
          <step>C</step>
          <octave>5</octave>
        </pitch>
        <duration>60</duration>
        <voice>1</voice>
        <type>eighth</type>
        <lyric number="1">
          <syllabic>end</syllabic>
          <text>ing</text>
        </lyric>
        <lyric number="2">
          <syllabic>begin</syllabic>
          <text>re</text>
        </lyric>
        <lyric number="3">
          <syllabic>end</syllabic>
          <text>er</text>
        </lyric>
        <lyric number="4">
          <syllabic>end</syllabic>
          <text>dor</text>
        </lyric>
      </note>
      <note>
        <pitch>
          <step>C</step>
          <octave>5</octave>
        </pitch>
        <duration>240</duration>
        <voice>1</voice>
        <type>half</type>
        <lyric number="1">
          <syllabic>single</syllabic>
          <text>dew;</text>
        </lyric>
        <lyric number="2">
          <syllabic>end</syllabic>
          <text>move;</text>
        </lyric>
        <lyric number="3">
          <syllabic>single</syllabic>
          <text>fail;</text>
        </lyric>
        <lyric number="4">
          <syllabic>single</syllabic>
          <text>burns,</text>
        </lyric>
      </note>
      <backup>
        <duration>480</duration>
      </backup>
      <note>
        <pitch>
          <step>E</step>
          <alter>0</alter>
          <octave>4</octave>
        </pitch>
        <duration>120</duration>
        <voice>2</voice>
        <type>quarter</type>
        <accidental>natural</accidental>
      </note>
      <note>
        <pitch>
          <step>E</step>
          <alter>0</alter>
          <octave>4</octave>
        </pitch>
        <duration>120</duration>
        <voice>2</voice>
        <type>quarter</type>
      </note>
      <note>
        <pitch>
          <step>F</step>
          <octave>4</octave>
        </pitch>
        <duration>240</duration>
        <voice>2</voice>
        <type>half</type>
      </note>
    </measure>
    <measure number="5">
      <note>
        <pitch>
          <step>B</step>
          <alter>-1</alter>
          <octave>4</octave>
        </pitch>
        <duration>120</duration>
        <voice>1</voice>
        <type>quarter</type>
        <lyric number="1">
          <syllabic>begin</syllabic>
          <text>Ev</text>
        </lyric>
        <lyric number="2">
          <syllabic>begin</syllabic>
          <text>Dai</text>
        </lyric>
        <lyric number="3">
          <syllabic>single</syllabic>
          <text>And,</text>
        </lyric>
        <lyric number="4">
          <syllabic>single</syllabic>
          <text>Teach</text>
        </lyric>
      </note>
      <note>
        <pitch>
          <step>B</step>
          <alter>-1</alter>
          <octave>4</octave>
        </pitch>
        <duration>120</duration>
        <voice>1</voice>
        <type>quarter</type>
        <lyric number="1">
          <syllabic>end</syllabic>
          <text>'ry</text>
        </lyric>
        <lyric number="2">
          <syllabic>end</syllabic>
          <text>ly,</text>
        </lyric>
        <lyric number="3">
          <syllabic>single</syllabic>
          <text>as</text>
        </lyric>
        <lyric number="4">
          <syllabic>single</syllabic>
          <text>us</text>
        </lyric>
      </note>
      <note>
        <pitch>
          <step>B</step>
          <alter>-1</alter>
          <octave>4</octave>
        </pitch>
        <duration>120</duration>
        <voice>1</voice>
        <type>quarter</type>
        <lyric number="1">
          <syllabic>begin</syllabic>
          <text>morn</text>
        </lyric>
        <lyric number="2">
          <syllabic>single</syllabic>
          <text>far</text>
        </lyric>
        <lyric number="3">
          <syllabic>single</syllabic>
          <text>we</text>
        </lyric>
        <lyric number="4">
          <syllabic>single</syllabic>
          <text>still</text>
        </lyric>
      </note>
      <note>
        <pitch>
          <step>E</step>
          <alter>-1</alter>
          <octave>5</octave>
        </pitch>
        <duration>120</duration>
        <voice>1</voice>
        <type>quarter</type>
        <lyric number="1">
          <syllabic>end</syllabic>
          <text>ing</text>
        </lyric>
        <lyric number="2">
          <syllabic>single</syllabic>
          <text>as</text>
        </lyric>
        <lyric number="3">
          <syllabic>begin</syllabic>
          <text>con</text>
        </lyric>
        <lyric number="4">
          <syllabic>single</syllabic>
          <text>to</text>
        </lyric>
      </note>
      <backup>
        <duration>480</duration>
      </backup>
      <note>
        <pitch>
          <step>F</step>
          <octave>4</octave>
        </pitch>
        <duration>120</duration>
        <voice>2</voice>
        <type>quarter</type>
      </note>
      <note>
        <pitch>
          <step>F</step>
          <octave>4</octave>
        </pitch>
        <duration>120</duration>
        <voice>2</voice>
        <type>quarter</type>
      </note>
      <note>
        <pitch>
          <step>G</step>
          <octave>4</octave>
        </pitch>
        <duration>120</duration>
        <voice>2</voice>
        <type>quarter</type>
      </note>
      <note>
        <pitch>
          <step>G</step>
          <octave>4</octave>
        </pitch>
        <duration>120</duration>
        <voice>2</voice>
        <type>quarter</type>
      </note>
    </measure>
    <measure number="6">
      <note>
        <pitch>
          <step>D</step>
          <octave>5</octave>
        </pitch>
        <duration>180</duration>
        <voice>1</voice>
        <type>quarter</type>
        <dot />
        <lyric number="1">
          <syllabic>single</syllabic>
          <text>let</text>
        </lyric>
        <lyric number="2">
          <syllabic>single</syllabic>
          <text>east</text>
        </lyric>
        <lyric number="3">
          <syllabic>end</syllabic>
          <text>fess</text>
        </lyric>
        <lyric number="4">
          <syllabic>single</syllabic>
          <text>turn</text>
        </lyric>
      </note>
      <note>
        <pitch>
          <step>C</step>
          <octave>5</octave>
        </pitch>
        <duration>60</duration>
        <voice>1</voice>
        <type>eighth</type>
        <lyric number="1">
          <syllabic>single</syllabic>
          <text>us</text>
        </lyric>
        <lyric number="2">
          <syllabic>single</syllabic>
          <text>from</text>
        </lyric>
        <lyric number="3">
          <syllabic>single</syllabic>
          <text>the</text>
        </lyric>
        <lyric number="4">
          <syllabic>single</syllabic>
          <text>to</text>
        </lyric>
      </note>
      <note>
        <pitch>
          <step>B</step>
          <alter>-1</alter>
          <octave>4</octave>
        </pitch>
        <duration>240</duration>
        <voice>1</voice>
        <type>half</type>
        <lyric number="1">
          <syllabic>single</syllabic>
          <text>pay</text>
        </lyric>
        <lyric number="2">
          <syllabic>single</syllabic>
          <text>west,</text>
        </lyric>
        <lyric number="3">
          <syllabic>single</syllabic>
          <text>sin</text>
        </lyric>
        <lyric number="4">
          <syllabic>single</syllabic>
          <text>Thee,</text>
        </lyric>
      </note>
      <backup>
        <duration>480</duration>
      </backup>
      <note>
        <pitch>
          <step>D</step>
          <octave>4</octave>
        </pitch>
        <duration>180</duration>
        <voice>2</voice>
        <type>quarter</type>
        <dot />
      </note>
      <note>
        <pitch>
          <step>D</step>
          <octave>4</octave>
        </pitch>
        <duration>60</duration>
        <voice>2</voice>
        <type>eighth</type>
      </note>
      <note>
        <pitch>
          <step>D</step>
          <octave>4</octave>
        </pitch>
        <duration>240</duration>
        <voice>2</voice>
        <type>half</type>
      </note>
    </measure>
    <measure number="7">
      <note>
        <pitch>
          <step>G</step>
          <octave>4</octave>
        </pitch>
        <duration>120</duration>
        <voice>1</voice>
        <type>quarter</type>
        <lyric number="1">
          <syllabic>begin</syllabic>
          <text>Tri</text>
        </lyric>
        <lyric number="2">
          <syllabic>single</syllabic>
          <text>Lifts</text>
        </lyric>
        <lyric number="3">
          <syllabic>single</syllabic>
          <text>And</text>
        </lyric>
        <lyric number="4">
          <syllabic>begin</syllabic>
          <text>Ev</text>
        </lyric>
      </note>
      <note>
        <pitch>
          <step>A</step>
          <octave>4</octave>
        </pitch>
        <duration>60</duration>
        <voice>1</voice>
        <type>eighth</type>
        <beam number="1">begin</beam>
        <lyric number="1">
          <syllabic>end</syllabic>
          <text>bute</text>
        </lyric>
        <lyric number="2">
          <syllabic>single</syllabic>
          <text>the</text>
        </lyric>
        <lyric number="3">
          <syllabic>single</syllabic>
          <text>the</text>
        </lyric>
        <lyric number="4">
          <syllabic>end</syllabic>
          <text>er</text>
        </lyric>
      </note>
      <note>
        <pitch>
          <step>B</step>
          <alter>-1</alter>
          <octave>4</octave>
        </pitch>
        <duration>60</duration>
        <voice>1</voice>
        <type>eighth</type>
        <beam number="1">end</beam>
      </note>
      <note>
        <pitch>
          <step>D</step>
          <octave>5</octave>
        </pitch>
        <duration>180</duration>
        <voice>1</voice>
        <type>quarter</type>
        <dot />
        <lyric number="1">
          <syllabic>single</syllabic>
          <text>with</text>
        </lyric>
        <lyric number="2">
          <syllabic>begin</syllabic>
          <text>bur</text>
        </lyric>
        <lyric number="3">
          <syllabic>begin</syllabic>
          <text>temp</text>
        </lyric>
        <lyric number="4">
          <syllabic>begin</syllabic>
          <text>bless</text>
        </lyric>
      </note>
      <note>
        <pitch>
          <step>C</step>
          <octave>5</octave>
        </pitch>
        <duration>60</duration>
        <voice>1</voice>
        <type>eighth</type>
        <lyric number="1">
          <syllabic>single</syllabic>
          <text>the</text>
        </lyric>
        <lyric number="2">
          <syllabic>end</syllabic>
          <text>den</text>
        </lyric>
        <lyric number="3">
          <syllabic>end</syllabic>
          <text>ter's</text>
        </lyric>
        <lyric number="4">
          <syllabic>end</syllabic>
          <text>ed</text>
        </lyric>
      </note>
      <backup>
        <duration>480</duration>
      </backup>
      <note>
        <pitch>
          <step>E</step>
          <alter>0</alter>
          <octave>4</octave>
        </pitch>
        <duration>120</duration>
        <voice>2</voice>
        <type>quarter</type>
        <accidental>natural</accidental>
      </note>
      <note>
        <pitch>
          <step>E</step>
          <alter>0</alter>
          <octave>4</octave>
        </pitch>
        <duration>120</duration>
        <voice>2</voice>
        <type>quarter</type>
      </note>
      <note>
        <pitch>
          <step>F</step>
          <octave>4</octave>
        </pitch>
        <duration>120</duration>
        <voice>2</voice>
        <type>quarter</type>
      </note>
      <note>
        <pitch>
          <step>E</step>
          <alter>-1</alter>
          <octave>4</octave>
        </pitch>
        <duration>120</duration>
        <voice>2</voice>
        <type>quarter</type>
        <accidental>flat</accidental>
      </note>
    </measure>
    <measure number="8">
      <note>
        <pitch>
          <step>B</step>
          <alter>-1</alter>
          <octave>4</octave>
        </pitch>
        <duration>120</duration>
        <voice>1</voice>
        <type>quarter</type>
        <lyric number="1">
          <syllabic>begin</syllabic>
          <text>ear</text>
        </lyric>
        <lyric number="2">
          <syllabic>single</syllabic>
          <text>from</text>
        </lyric>
        <lyric number="3">
          <syllabic>single</syllabic>
          <text>pow'r</text>
        </lyric>
        <lyric number="4">
          <syllabic>begin</syllabic>
          <text>Tri</text>
        </lyric>
      </note>
      <note>
        <pitch>
          <step>G</step>
          <octave>4</octave>
        </pitch>
        <duration>120</duration>
        <voice>1</voice>
        <type>quarter</type>
        <lyric number="1">
          <syllabic>end</syllabic>
          <text>ly</text>
        </lyric>
        <lyric number="2">
          <syllabic>single</syllabic>
          <text>the</text>
        </lyric>
        <lyric number="3">
          <syllabic>begin</syllabic>
          <text>with</text>
        </lyric>
        <lyric number="4">
          <syllabic>middle</syllabic>
          <text>ni</text>
        </lyric>
      </note>
      <note>
        <pitch>
          <step>F</step>
          <octave>4</octave>
        </pitch>
        <duration>240</duration>
        <voice>1</voice>
        <type>half</type>
        <lyric number="1">
          <syllabic>single</syllabic>
          <text>day:</text>
        </lyric>
        <lyric number="2">
          <syllabic>single</syllabic>
          <text>breast;</text>
        </lyric>
        <lyric number="3">
          <syllabic>end</syllabic>
          <text>in,</text>
        </lyric>
        <lyric number="4">
          <syllabic>end</syllabic>
          <text>ty,</text>
        </lyric>
      </note>
      <backup>
        <duration>480</duration>
      </backup>
      <note>
        <pitch>
          <step>D</step>
          <octave>4</octave>
        </pitch>
        <duration>120</duration>
        <voice>2</voice>
        <type>quarter</type>
      </note>
      <note>
        <pitch>
          <step>E</step>
          <alter>0</alter>
          <octave>4</octave>
        </pitch>
        <duration>120</duration>
        <voice>2</voice>
        <type>quarter</type>
        <accidental>natural</accidental>
      </note>
      <note>
        <pitch>
          <step>F</step>
          <octave>4</octave>
        </pitch>
        <duration>240</duration>
        <voice>2</voice>
        <type>half</type>
      </note>
    </measure>
    <measure number="9">
      <note>
        <pitch>
          <step>E</step>
          <alter>-1</alter>
          <octave>5</octave>
        </pitch>
        <duration>120</duration>
        <voice>1</voice>
        <type>quarter</type>
        <lyric number="1">
          <syllabic>single</syllabic>
          <text>For</text>
        </lyric>
        <lyric number="2">
          <syllabic>single</syllabic>
          <text>Gives</text>
        </lyric>
        <lyric number="3">
          <syllabic>single</syllabic>
          <text>Feed</text>
        </lyric>
        <lyric number="4">
          <syllabic>single</syllabic>
          <text>With</text>
        </lyric>
      </note>
      <note>
        <pitch>
          <step>E</step>
          <alter>-1</alter>
          <octave>5</octave>
        </pitch>
        <duration>120</duration>
        <voice>1</voice>
        <type>quarter</type>
        <lyric number="1">
          <syllabic>single</syllabic>
          <text>Thy</text>
        </lyric>
        <lyric number="2">
          <syllabic>begin</syllabic>
          <text>un</text>
        </lyric>
        <lyric number="3">
          <syllabic>single</syllabic>
          <text>us</text>
        </lyric>
        <lyric number="4">
          <syllabic>single</syllabic>
          <text>our</text>
        </lyric>
      </note>
      <note>
        <pitch>
          <step>D</step>
          <octave>5</octave>
        </pitch>
        <duration>120</duration>
        <voice>1</voice>
        <type>quarter</type>
        <lyric number="1">
          <syllabic>begin</syllabic>
          <text>mer</text>
        </lyric>
        <lyric number="2">
          <syllabic>end</syllabic>
          <text>bought</text>
        </lyric>
        <lyric number="3">
          <syllabic>single</syllabic>
          <text>with</text>
        </lyric>
        <lyric number="4">
          <syllabic>single</syllabic>
          <text>hands</text>
        </lyric>
      </note>
      <note>
        <pitch>
          <step>B</step>
          <alter>-1</alter>
          <octave>4</octave>
        </pitch>
        <duration>120</duration>
        <voice>1</voice>
        <type>quarter</type>
        <lyric number="1">
          <syllabic>end</syllabic>
          <text>cies,</text>
        </lyric>
        <lyric number="2">
          <syllabic>single</syllabic>
          <text>to</text>
        </lyric>
        <lyric number="3">
          <syllabic>single</syllabic>
          <text>the</text>
        </lyric>
        <lyric number="4">
          <syllabic>single</syllabic>
          <text>our</text>
        </lyric>
      </note>
      <backup>
        <duration>480</duration>
      </backup>
      <note>
        <pitch>
          <step>F</step>
          <octave>4</octave>
        </pitch>
        <duration>120</duration>
        <voice>2</voice>
        <type>quarter</type>
      </note>
      <note>
        <pitch>
          <step>F</step>
          <octave>4</octave>
        </pitch>
        <duration>120</duration>
        <voice>2</voice>
        <type>quarter</type>
      </note>
      <note>
        <pitch>
          <step>F</step>
          <octave>4</octave>
        </pitch>
        <duration>120</duration>
        <voice>2</voice>
        <type>quarter</type>
      </note>
      <note>
        <pitch>
          <step>G</step>
          <octave>4</octave>
        </pitch>
        <duration>120</duration>
        <voice>2</voice>
        <type>quarter</type>
      </note>
    </measure>
    <measure number="10">
      <note>
        <pitch>
          <step>D</step>
          <octave>5</octave>
        </pitch>
        <duration>180</duration>
        <voice>1</voice>
        <type>quarter</type>
        <dot />
        <lyric number="1">
          <syllabic>single</syllabic>
          <text>Lord,</text>
        </lyric>
        <lyric number="2">
          <syllabic>single</syllabic>
          <text>those</text>
        </lyric>
        <lyric number="3">
          <syllabic>single</syllabic>
          <text>Bread</text>
        </lyric>
        <lyric number="4">
          <syllabic>single</syllabic>
          <text>hearts</text>
        </lyric>
      </note>
      <note>
        <pitch>
          <step>C</step>
          <octave>5</octave>
        </pitch>
        <duration>60</duration>
        <voice>1</voice>
        <type>eighth</type>
        <lyric number="1">
          <syllabic>single</syllabic>
          <text>are</text>
        </lyric>
        <lyric number="2">
          <syllabic>single</syllabic>
          <text>who</text>
        </lyric>
        <lyric number="3">
          <syllabic>single</syllabic>
          <text>of</text>
        </lyric>
        <lyric number="4">
          <syllabic>single</syllabic>
          <text>to</text>
        </lyric>
      </note>
      <note>
        <pitch>
          <step>B</step>
          <alter>-1</alter>
          <octave>4</octave>
        </pitch>
        <duration>240</duration>
        <voice>1</voice>
        <type>half</type>
        <lyric number="1">
          <syllabic>single</syllabic>
          <text>sure;</text>
        </lyric>
        <lyric number="2">
          <syllabic>single</syllabic>
          <text>pray</text>
        </lyric>
        <lyric number="3">
          <syllabic>single</syllabic>
          <text>Life,</text>
        </lyric>
        <lyric number="4">
          <syllabic>single</syllabic>
          <text>raise,</text>
        </lyric>
      </note>
      <backup>
        <duration>480</duration>
      </backup>
      <note>
        <pitch>
          <step>F</step>
          <alter>1</alter>
          <octave>4</octave>
        </pitch>
        <duration>180</duration>
        <voice>2</voice>
        <type>quarter</type>
        <dot />
        <accidental>sharp</accidental>
      </note>
      <note>
        <pitch>
          <step>F</step>
          <alter>1</alter>
          <octave>4</octave>
        </pitch>
        <duration>60</duration>
        <voice>2</voice>
        <type>eighth</type>
      </note>
      <note>
        <pitch>
          <step>G</step>
          <octave>4</octave>
        </pitch>
        <duration>240</duration>
        <voice>2</voice>
        <type>half</type>
      </note>
    </measure>
    <measure number="11">
      <note>
        <pitch>
          <step>A</step>
          <octave>4</octave>
        </pitch>
        <duration>180</duration>
        <voice>1</voice>
        <type>quarter</type>
        <dot />
        <lyric number="1">
          <syllabic>single</syllabic>
          <text>Thy</text>
        </lyric>
        <lyric number="2">
          <syllabic>single</syllabic>
          <text>Strength</text>
        </lyric>
        <lyric number="3">
          <syllabic>single</syllabic>
          <text>Fit</text>
        </lyric>
        <lyric number="4">
          <syllabic>single</syllabic>
          <text>In</text>
        </lyric>
      </note>
      <note>
        <pitch>
          <step>G</step>
          <octave>4</octave>
        </pitch>
        <duration>60</duration>
        <voice>1</voice>
        <type>eighth</type>
        <lyric number="1">
          <syllabic>begin</syllabic>
          <text>com</text>
        </lyric>
        <lyric number="2">
          <syllabic>single</syllabic>
          <text>to</text>
        </lyric>
        <lyric number="3">
          <syllabic>single</syllabic>
          <text>us</text>
        </lyric>
        <lyric number="4">
          <syllabic>begin</syllabic>
          <text>un</text>
        </lyric>
      </note>
      <note>
        <pitch>
          <step>F</step>
          <octave>4</octave>
        </pitch>
        <duration>120</duration>
        <voice>1</voice>
        <type>quarter</type>
        <lyric number="1">
          <syllabic>middle</syllabic>
          <text>pas</text>
        </lyric>
        <lyric number="2">
          <syllabic>single</syllabic>
          <text>stand</text>
        </lyric>
        <lyric number="3">
          <syllabic>single</syllabic>
          <text>for</text>
        </lyric>
        <lyric number="4">
          <syllabic>middle</syllabic>
          <text>fail</text>
        </lyric>
      </note>
      <note>
        <pitch>
          <step>B</step>
          <alter>-1</alter>
          <octave>4</octave>
        </pitch>
        <duration>120</duration>
        <voice>1</voice>
        <type>quarter</type>
        <lyric number="1">
          <syllabic>end</syllabic>
          <text>sion</text>
        </lyric>
        <lyric number="2">
          <syllabic>single</syllabic>
          <text>in</text>
        </lyric>
        <lyric number="3">
          <syllabic>single</syllabic>
          <text>our</text>
        </lyric>
        <lyric number="4">
          <syllabic>end</syllabic>
          <text>ing</text>
        </lyric>
      </note>
      <backup>
        <duration>480</duration>
      </backup>
      <note>
        <pitch>
          <step>C</step>
          <octave>4</octave>
        </pitch>
        <duration>180</duration>
        <voice>2</voice>
        <type>quarter</type>
        <dot />
      </note>
      <note>
        <pitch>
          <step>C</step>
          <alter>1</alter>
          <octave>4</octave>
        </pitch>
        <duration>60</duration>
        <voice>2</voice>
        <type>eighth</type>
        <accidental>sharp</accidental>
      </note>
      <note>
        <pitch>
          <step>D</step>
          <octave>4</octave>
        </pitch>
        <duration>120</duration>
        <voice>2</voice>
        <type>quarter</type>
      </note>
      <note>
        <pitch>
          <step>F</step>
          <octave>4</octave>
        </pitch>
        <duration>120</duration>
        <voice>2</voice>
        <type>quarter</type>
      </note>
    </measure>
    <measure number="12">
      <note>
        <pitch>
          <step>G</step>
          <octave>4</octave>
        </pitch>
        <duration>180</duration>
        <voice>1</voice>
        <type>quarter</type>
        <dot />
        <lyric number="1">
          <syllabic>single</syllabic>
          <text>doth</text>
        </lyric>
        <lyric number="2">
          <syllabic>begin</syllabic>
          <text>e</text>
        </lyric>
        <lyric number="3">
          <syllabic>begin</syllabic>
          <text>dai</text>
        </lyric>
        <lyric number="4">
          <syllabic>single</syllabic>
          <text>prayer</text>
        </lyric>
      </note>
      <note>
        <pitch>
          <step>A</step>
          <octave>4</octave>
        </pitch>
        <duration>60</duration>
        <voice>1</voice>
        <type>eighth</type>
        <lyric number="1">
          <syllabic>begin</syllabic>
          <text>en</text>
        </lyric>
        <lyric number="2">
          <syllabic>end</syllabic>
          <text>vil</text>
        </lyric>
        <lyric number="3">
          <syllabic>end</syllabic>
          <text>ly</text>
        </lyric>
        <lyric number="4">
          <syllabic>single</syllabic>
          <text>and</text>
        </lyric>
      </note>
      <note>
        <pitch>
          <step>B</step>
          <alter>-1</alter>
          <octave>4</octave>
        </pitch>
        <duration>240</duration>
        <voice>1</voice>
        <type>half</type>
        <lyric number="1">
          <syllabic>end</syllabic>
          <text>dure.</text>
        </lyric>
        <lyric number="2">
          <syllabic>single</syllabic>
          <text>day.</text>
        </lyric>
        <lyric number="3">
          <syllabic>single</syllabic>
          <text>strife.</text>
        </lyric>
        <lyric number="4">
          <syllabic>single</syllabic>
          <text>praise.</text>
        </lyric>
      </note>
      <barline location="right">
        <bar-style>light-heavy</bar-style>
      </barline>
      <backup>
        <duration>480</duration>
      </backup>
      <note>
        <pitch>
          <step>F</step>
          <octave>4</octave>
        </pitch>
        <duration>120</duration>
        <voice>2</voice>
        <type>quarter</type>
      </note>
      <note>
        <pitch>
          <step>E</step>
          <alter>-1</alter>
          <octave>4</octave>
        </pitch>
        <duration>120</duration>
        <voice>2</voice>
        <type>quarter</type>
      </note>
      <note>
        <pitch>
          <step>D</step>
          <octave>4</octave>
        </pitch>
        <duration>240</duration>
        <voice>2</voice>
        <type>half</type>
      </note>
      <barline location="right">
        <bar-style>light-heavy</bar-style>
      </barline>
    </measure>
  </part>
  <part id="PS2V1">
    <measure number="1">
      <attributes>
        <divisions>120</divisions>
        <key>
          <fifths>-2</fifths>
          <mode>major</mode>
        </key>
        <time>
          <beats>4</beats>
          <beat-type>4</beat-type>
        </time>
        <clef>
          <sign>F</sign>
          <line>4</line>
        </clef>
      </attributes>
      <note>
        <pitch>
          <step>F</step>
          <octave>3</octave>
        </pitch>
        <duration>120</duration>
        <voice>1</voice>
        <type>quarter</type>
      </note>
      <note>
        <pitch>
          <step>G</step>
          <octave>3</octave>
        </pitch>
        <duration>120</duration>
        <voice>1</voice>
        <type>quarter</type>
      </note>
      <note>
        <pitch>
          <step>F</step>
          <octave>3</octave>
        </pitch>
        <duration>120</duration>
        <voice>1</voice>
        <type>quarter</type>
      </note>
      <note>
        <pitch>
          <step>B</step>
          <alter>-1</alter>
          <octave>3</octave>
        </pitch>
        <duration>120</duration>
        <voice>1</voice>
        <type>quarter</type>
      </note>
      <backup>
        <duration>480</duration>
      </backup>
      <note>
        <pitch>
          <step>B</step>
          <alter>-1</alter>
          <octave>2</octave>
        </pitch>
        <duration>120</duration>
        <voice>2</voice>
        <type>quarter</type>
      </note>
      <note>
        <pitch>
          <step>B</step>
          <alter>-1</alter>
          <octave>2</octave>
        </pitch>
        <duration>120</duration>
        <voice>2</voice>
        <type>quarter</type>
      </note>
      <note>
        <pitch>
          <step>B</step>
          <alter>-1</alter>
          <octave>2</octave>
        </pitch>
        <duration>120</duration>
        <voice>2</voice>
        <type>quarter</type>
      </note>
      <note>
        <pitch>
          <step>B</step>
          <alter>-1</alter>
          <octave>3</octave>
        </pitch>
        <duration>120</duration>
        <voice>2</voice>
        <type>quarter</type>
      </note>
    </measure>
    <measure number="2">
      <note>
        <pitch>
          <step>B</step>
          <alter>-1</alter>
          <octave>3</octave>
        </pitch>
        <duration>180</duration>
        <voice>1</voice>
        <type>quarter</type>
        <dot />
      </note>
      <note>
        <pitch>
          <step>A</step>
          <octave>3</octave>
        </pitch>
        <duration>60</duration>
        <voice>1</voice>
        <type>eighth</type>
      </note>
      <note>
        <pitch>
          <step>B</step>
          <alter>-1</alter>
          <octave>3</octave>
        </pitch>
        <duration>240</duration>
        <voice>1</voice>
        <type>half</type>
      </note>
      <backup>
        <duration>480</duration>
      </backup>
      <note>
        <pitch>
          <step>F</step>
          <octave>3</octave>
        </pitch>
        <duration>180</duration>
        <voice>2</voice>
        <type>quarter</type>
        <dot />
      </note>
      <note>
        <pitch>
          <step>F</step>
          <octave>3</octave>
        </pitch>
        <duration>60</duration>
        <voice>2</voice>
        <type>eighth</type>
      </note>
      <note>
        <pitch>
          <step>B</step>
          <alter>-1</alter>
          <octave>3</octave>
        </pitch>
        <duration>240</duration>
        <voice>2</voice>
        <type>half</type>
      </note>
    </measure>
    <measure number="3">
      <note>
        <pitch>
          <step>B</step>
          <alter>-1</alter>
          <octave>3</octave>
        </pitch>
        <duration>120</duration>
        <voice>1</voice>
        <type>quarter</type>
      </note>
      <note>
        <pitch>
          <step>B</step>
          <alter>-1</alter>
          <octave>3</octave>
        </pitch>
        <duration>120</duration>
        <voice>1</voice>
        <type>quarter</type>
      </note>
      <note>
        <pitch>
          <step>B</step>
          <alter>-1</alter>
          <octave>3</octave>
        </pitch>
        <duration>120</duration>
        <voice>1</voice>
        <type>quarter</type>
      </note>
      <note>
        <pitch>
          <step>B</step>
          <alter>-1</alter>
          <octave>3</octave>
        </pitch>
        <duration>120</duration>
        <voice>1</voice>
        <type>quarter</type>
      </note>
      <backup>
        <duration>480</duration>
      </backup>
      <note>
        <pitch>
          <step>D</step>
          <octave>3</octave>
        </pitch>
        <duration>120</duration>
        <voice>2</voice>
        <type>quarter</type>
      </note>
      <note>
        <pitch>
          <step>E</step>
          <alter>-1</alter>
          <octave>3</octave>
        </pitch>
        <duration>120</duration>
        <voice>2</voice>
        <type>quarter</type>
      </note>
      <note>
        <pitch>
          <step>B</step>
          <alter>-1</alter>
          <octave>2</octave>
        </pitch>
        <duration>120</duration>
        <voice>2</voice>
        <type>quarter</type>
      </note>
      <note>
        <pitch>
          <step>D</step>
          <octave>3</octave>
        </pitch>
        <duration>120</duration>
        <voice>2</voice>
        <type>quarter</type>
      </note>
    </measure>
    <measure number="4">
      <note>
        <pitch>
          <step>B</step>
          <alter>-1</alter>
          <octave>3</octave>
        </pitch>
        <duration>120</duration>
        <voice>1</voice>
        <type>quarter</type>
      </note>
      <note>
        <pitch>
          <step>B</step>
          <alter>-1</alter>
          <octave>3</octave>
        </pitch>
        <duration>120</duration>
        <voice>1</voice>
        <type>quarter</type>
      </note>
      <note>
        <pitch>
          <step>A</step>
          <octave>3</octave>
        </pitch>
        <duration>240</duration>
        <voice>1</voice>
        <type>half</type>
      </note>
      <backup>
        <duration>480</duration>
      </backup>
      <note>
        <pitch>
          <step>G</step>
          <octave>3</octave>
        </pitch>
        <duration>120</duration>
        <voice>2</voice>
        <type>quarter</type>
      </note>
      <note>
        <pitch>
          <step>C</step>
          <octave>3</octave>
        </pitch>
        <duration>120</duration>
        <voice>2</voice>
        <type>quarter</type>
      </note>
      <note>
        <pitch>
          <step>F</step>
          <octave>3</octave>
        </pitch>
        <duration>240</duration>
        <voice>2</voice>
        <type>half</type>
      </note>
    </measure>
    <measure number="5">
      <note>
        <pitch>
          <step>B</step>
          <alter>-1</alter>
          <octave>3</octave>
        </pitch>
        <duration>120</duration>
        <voice>1</voice>
        <type>quarter</type>
      </note>
      <note>
        <pitch>
          <step>B</step>
          <alter>-1</alter>
          <octave>3</octave>
        </pitch>
        <duration>120</duration>
        <voice>1</voice>
        <type>quarter</type>
      </note>
      <note>
        <pitch>
          <step>B</step>
          <alter>-1</alter>
          <octave>3</octave>
        </pitch>
        <duration>120</duration>
        <voice>1</voice>
        <type>quarter</type>
      </note>
      <note>
        <pitch>
          <step>B</step>
          <alter>-1</alter>
          <octave>3</octave>
        </pitch>
        <duration>120</duration>
        <voice>1</voice>
        <type>quarter</type>
      </note>
      <backup>
        <duration>480</duration>
      </backup>
      <note>
        <pitch>
          <step>D</step>
          <octave>3</octave>
        </pitch>
        <duration>120</duration>
        <voice>2</voice>
        <type>quarter</type>
      </note>
      <note>
        <pitch>
          <step>D</step>
          <octave>3</octave>
        </pitch>
        <duration>120</duration>
        <voice>2</voice>
        <type>quarter</type>
      </note>
      <note>
        <pitch>
          <step>E</step>
          <alter>-1</alter>
          <octave>3</octave>
        </pitch>
        <duration>120</duration>
        <voice>2</voice>
        <type>quarter</type>
      </note>
      <note>
        <pitch>
          <step>G</step>
          <octave>3</octave>
        </pitch>
        <duration>120</duration>
        <voice>2</voice>
        <type>quarter</type>
      </note>
    </measure>
    <measure number="6">
      <note>
        <pitch>
          <step>A</step>
          <octave>3</octave>
        </pitch>
        <duration>180</duration>
        <voice>1</voice>
        <type>quarter</type>
        <dot />
      </note>
      <note>
        <pitch>
          <step>A</step>
          <octave>3</octave>
        </pitch>
        <duration>60</duration>
        <voice>1</voice>
        <type>eighth</type>
      </note>
      <note>
        <pitch>
          <step>B</step>
          <alter>-1</alter>
          <octave>3</octave>
        </pitch>
        <duration>240</duration>
        <voice>1</voice>
        <type>half</type>
      </note>
      <backup>
        <duration>480</duration>
      </backup>
      <note>
        <pitch>
          <step>F</step>
          <alter>1</alter>
          <octave>3</octave>
        </pitch>
        <duration>180</duration>
        <voice>2</voice>
        <type>quarter</type>
        <dot />
        <accidental>sharp</accidental>
      </note>
      <note>
        <pitch>
          <step>F</step>
          <alter>1</alter>
          <octave>3</octave>
        </pitch>
        <duration>60</duration>
        <voice>2</voice>
        <type>eighth</type>
      </note>
      <note>
        <pitch>
          <step>G</step>
          <octave>3</octave>
        </pitch>
        <duration>240</duration>
        <voice>2</voice>
        <type>half</type>
      </note>
    </measure>
    <measure number="7">
      <note>
        <pitch>
          <step>C</step>
          <octave>4</octave>
        </pitch>
        <duration>120</duration>
        <voice>1</voice>
        <type>quarter</type>
      </note>
      <note>
        <pitch>
          <step>C</step>
          <octave>4</octave>
        </pitch>
        <duration>120</duration>
        <voice>1</voice>
        <type>quarter</type>
      </note>
      <note>
        <pitch>
          <step>F</step>
          <octave>3</octave>
        </pitch>
        <duration>120</duration>
        <voice>1</voice>
        <type>quarter</type>
      </note>
      <note>
        <pitch>
          <step>F</step>
          <alter>1</alter>
          <octave>3</octave>
        </pitch>
        <duration>120</duration>
        <voice>1</voice>
        <type>quarter</type>
        <accidental>sharp</accidental>
      </note>
      <backup>
        <duration>480</duration>
      </backup>
      <note>
        <pitch>
          <step>C</step>
          <octave>3</octave>
        </pitch>
        <duration>120</duration>
        <voice>2</voice>
        <type>quarter</type>
      </note>
      <note>
        <pitch>
          <step>B</step>
          <alter>-1</alter>
          <octave>2</octave>
        </pitch>
        <duration>120</duration>
        <voice>2</voice>
        <type>quarter</type>
      </note>
      <note>
        <pitch>
          <step>A</step>
          <octave>2</octave>
        </pitch>
        <duration>180</duration>
        <voice>2</voice>
        <type>quarter</type>
        <dot />
      </note>
      <note>
        <pitch>
          <step>A</step>
          <octave>2</octave>
        </pitch>
        <duration>60</duration>
        <voice>2</voice>
        <type>eighth</type>
      </note>
    </measure>
    <measure number="8">
      <note>
        <pitch>
          <step>G</step>
          <octave>3</octave>
        </pitch>
        <duration>120</duration>
        <voice>1</voice>
        <type>quarter</type>
      </note>
      <note>
        <pitch>
          <step>B</step>
          <alter>-1</alter>
          <octave>3</octave>
        </pitch>
        <duration>120</duration>
        <voice>1</voice>
        <type>quarter</type>
      </note>
      <note>
        <pitch>
          <step>A</step>
          <octave>3</octave>
        </pitch>
        <duration>240</duration>
        <voice>1</voice>
        <type>half</type>
      </note>
      <backup>
        <duration>480</duration>
      </backup>
      <note>
        <pitch>
          <step>B</step>
          <alter>-1</alter>
          <octave>2</octave>
        </pitch>
        <duration>120</duration>
        <voice>2</voice>
        <type>quarter</type>
      </note>
      <note>
        <pitch>
          <step>C</step>
          <octave>3</octave>
        </pitch>
        <duration>120</duration>
        <voice>2</voice>
        <type>quarter</type>
      </note>
      <note>
        <pitch>
          <step>F</step>
          <octave>3</octave>
        </pitch>
        <duration>240</duration>
        <voice>2</voice>
        <type>half</type>
      </note>
    </measure>
    <measure number="9">
      <note>
        <pitch>
          <step>C</step>
          <octave>4</octave>
        </pitch>
        <duration>120</duration>
        <voice>1</voice>
        <type>quarter</type>
      </note>
      <note>
        <pitch>
          <step>C</step>
          <octave>4</octave>
        </pitch>
        <duration>120</duration>
        <voice>1</voice>
        <type>quarter</type>
      </note>
      <note>
        <pitch>
          <step>B</step>
          <alter>-1</alter>
          <octave>3</octave>
        </pitch>
        <duration>120</duration>
        <voice>1</voice>
        <type>quarter</type>
      </note>
      <note>
        <pitch>
          <step>B</step>
          <alter>-1</alter>
          <octave>3</octave>
        </pitch>
        <duration>120</duration>
        <voice>1</voice>
        <type>quarter</type>
      </note>
      <backup>
        <duration>480</duration>
      </backup>
      <note>
        <pitch>
          <step>A</step>
          <octave>3</octave>
        </pitch>
        <duration>120</duration>
        <voice>2</voice>
        <type>quarter</type>
      </note>
      <note>
        <pitch>
          <step>A</step>
          <octave>3</octave>
        </pitch>
        <duration>120</duration>
        <voice>2</voice>
        <type>quarter</type>
      </note>
      <note>
        <pitch>
          <step>B</step>
          <alter>-1</alter>
          <octave>3</octave>
        </pitch>
        <duration>120</duration>
        <voice>2</voice>
        <type>quarter</type>
      </note>
      <note>
        <pitch>
          <step>G</step>
          <octave>3</octave>
        </pitch>
        <duration>120</duration>
        <voice>2</voice>
        <type>quarter</type>
      </note>
    </measure>
    <measure number="10">
      <note>
        <pitch>
          <step>A</step>
          <octave>3</octave>
        </pitch>
        <duration>180</duration>
        <voice>1</voice>
        <type>quarter</type>
        <dot />
      </note>
      <note>
        <pitch>
          <step>A</step>
          <octave>3</octave>
        </pitch>
        <duration>60</duration>
        <voice>1</voice>
        <type>eighth</type>
      </note>
      <note>
        <pitch>
          <step>B</step>
          <alter>-1</alter>
          <octave>3</octave>
        </pitch>
        <duration>240</duration>
        <voice>1</voice>
        <type>half</type>
      </note>
      <backup>
        <duration>480</duration>
      </backup>
      <note>
        <pitch>
          <step>D</step>
          <octave>3</octave>
        </pitch>
        <duration>180</duration>
        <voice>2</voice>
        <type>quarter</type>
        <dot />
      </note>
      <note>
        <pitch>
          <step>D</step>
          <octave>3</octave>
        </pitch>
        <duration>60</duration>
        <voice>2</voice>
        <type>eighth</type>
      </note>
      <note>
        <pitch>
          <step>G</step>
          <octave>3</octave>
        </pitch>
        <duration>240</duration>
        <voice>2</voice>
        <type>half</type>
      </note>
    </measure>
    <measure number="11">
      <note>
        <pitch>
          <step>B</step>
          <alter>-1</alter>
          <octave>3</octave>
        </pitch>
        <duration>180</duration>
        <voice>1</voice>
        <type>quarter</type>
        <dot />
      </note>
      <note>
        <pitch>
          <step>B</step>
          <alter>-1</alter>
          <octave>3</octave>
        </pitch>
        <duration>60</duration>
        <voice>1</voice>
        <type>eighth</type>
      </note>
      <note>
        <pitch>
          <step>B</step>
          <alter>-1</alter>
          <octave>3</octave>
        </pitch>
        <duration>120</duration>
        <voice>1</voice>
        <type>quarter</type>
      </note>
      <note>
        <pitch>
          <step>D</step>
          <octave>4</octave>
        </pitch>
        <duration>120</duration>
        <voice>1</voice>
        <type>quarter</type>
      </note>
      <backup>
        <duration>480</duration>
      </backup>
      <note>
        <pitch>
          <step>E</step>
          <alter>0</alter>
          <octave>3</octave>
        </pitch>
        <duration>180</duration>
        <voice>2</voice>
        <type>quarter</type>
        <dot />
        <accidental>natural</accidental>
      </note>
      <note>
        <pitch>
          <step>E</step>
          <alter>0</alter>
          <octave>3</octave>
        </pitch>
        <duration>60</duration>
        <voice>2</voice>
        <type>eighth</type>
      </note>
      <note>
        <pitch>
          <step>F</step>
          <octave>3</octave>
        </pitch>
        <duration>120</duration>
        <voice>2</voice>
        <type>quarter</type>
      </note>
      <note>
        <pitch>
          <step>F</step>
          <octave>3</octave>
        </pitch>
        <duration>120</duration>
        <voice>2</voice>
        <type>quarter</type>
      </note>
    </measure>
    <measure number="12">
      <note>
        <pitch>
          <step>D</step>
          <octave>4</octave>
        </pitch>
        <duration>120</duration>
        <voice>1</voice>
        <type>quarter</type>
      </note>
      <note>
        <pitch>
          <step>C</step>
          <octave>4</octave>
        </pitch>
        <duration>120</duration>
        <voice>1</voice>
        <type>quarter</type>
      </note>
      <note>
        <pitch>
          <step>B</step>
          <alter>-1</alter>
          <octave>3</octave>
        </pitch>
        <duration>240</duration>
        <voice>1</voice>
        <type>half</type>
      </note>
      <barline location="right">
        <bar-style>light-heavy</bar-style>
      </barline>
      <backup>
        <duration>480</duration>
      </backup>
      <note>
        <pitch>
          <step>F</step>
          <octave>3</octave>
        </pitch>
        <duration>180</duration>
        <voice>2</voice>
        <type>quarter</type>
        <dot />
      </note>
      <note>
        <pitch>
          <step>F</step>
          <octave>3</octave>
        </pitch>
        <duration>60</duration>
        <voice>2</voice>
        <type>eighth</type>
      </note>
      <note>
        <pitch>
          <step>B</step>
          <alter>-1</alter>
          <octave>2</octave>
        </pitch>
        <duration>240</duration>
        <voice>2</voice>
        <type>half</type>
      </note>
      <barline location="right">
        <bar-style>light-heavy</bar-style>
      </barline>
    </measure>
  </part>
</score-partwise>
