<?xml version='1.0' encoding='utf-8'?>
<!DOCTYPE score-partwise PUBLIC "-//Recordare//DTD MusicXML 3.0 Partwise//EN" "http://www.musicxml.org/dtds/partwise.dtd">
<score-partwise>
  <work>
    <work-title>I Know That My Redeemer Lives</work-title>
  </work>
  <identification>
    <creator type="composer">Words: Samuel Medley, 1775.  Music: 'Duke Street' John Hatton, 1793.
Setting: "The Church Hymnal, Revised and Enlarged" (Episcopal), 1905.
copyright: public domain.  This score is a part of the Open Hymnal Project, 2007 Revision.</creator>
    <encoding>
      <encoder>abc2xml version 268</encoder>
      <software>https://wim.vree.org/svgParse/abc2xml.html</software>
      <encoding-date>2026-07-21</encoding-date>
    </encoding>
    <source>Music source: "The Church Hymnal, Revised and Enlarged" (Episcopal), 1905. Hymn 132.
Setting quite similar to "Songs of Pilgrimage" 1888 hymns 76-79</source>
    <miscellaneous>
      <miscellaneous-field name="lyrics">6.He lives, my kind, wise, heavenly Friend,
He lives and loves me to the end;
He lives, and while He lives, Ill sing;
He lives, my Prophet, Priest, and King.

7.He lives and grants me daily breath;
He lives, and I shall conquer death:
He lives my mansion to prepare;
He lives to bring me safely there.

8.He lives, all glory to His Name!
He lives, my Jesus, still the same.
Oh, the sweet joy this sentence gives,
I know that my Redeemer lives!</miscellaneous-field>
    </miscellaneous>
  </identification>
  <defaults>
    <scaling>
      <millimeters>6.351</millimeters>
      <tenths>40</tenths>
    </scaling>
    <page-layout>
      <page-height>1757.2</page-height>
      <page-width>1360.42</page-width>
      <page-margins type="both">
        <left-margin>113.368</left-margin>
        <right-margin>113.368</right-margin>
        <top-margin>62.9822</top-margin>
        <bottom-margin>62.9822</bottom-margin>
      </page-margins>
    </page-layout>
  </defaults>
  <part-list>
    <score-part id="PS1V1">
      <part-name />
    </score-part>
    <score-part id="PS2V1">
      <part-name />
      <score-instrument id="IS2V1-S2V2">
        <instrument-name>acoustic_grand_piano</instrument-name>
      </score-instrument>
      <midi-instrument id="IS2V1-S2V2">
        <midi-channel>4</midi-channel>
        <midi-program>1</midi-program>
      </midi-instrument>
    </score-part>
  </part-list>
  <part id="PS1V1">
    <measure number="1">
      <attributes>
        <divisions>120</divisions>
        <key>
          <fifths>2</fifths>
          <mode>major</mode>
        </key>
        <time>
          <beats>4</beats>
          <beat-type>4</beat-type>
        </time>
        <clef>
          <sign>G</sign>
          <line>2</line>
        </clef>
      </attributes>
      <direction placement="above">
        <direction-type>
          <metronome>
            <beat-unit>quarter</beat-unit>
            <per-minute>140</per-minute>
          </metronome>
        </direction-type>
        <sound tempo="140.00" />
      </direction>
      <note>
        <pitch>
          <step>D</step>
          <octave>4</octave>
        </pitch>
        <duration>240</duration>
        <voice>1</voice>
        <type>half</type>
        <lyric number="1">
          <syllabic>single</syllabic>
          <text>1. I</text>
        </lyric>
        <lyric number="2">
          <syllabic>single</syllabic>
          <text>2. He</text>
        </lyric>
        <lyric number="3">
          <syllabic>single</syllabic>
          <text>3. He</text>
        </lyric>
        <lyric number="4">
          <syllabic>single</syllabic>
          <text>4. He</text>
        </lyric>
        <lyric number="5">
          <syllabic>single</syllabic>
          <text>5. He</text>
        </lyric>
      </note>
      <note>
        <pitch>
          <step>F</step>
          <alter>1</alter>
          <octave>4</octave>
        </pitch>
        <duration>120</duration>
        <voice>1</voice>
        <type>quarter</type>
        <lyric number="1">
          <syllabic>single</syllabic>
          <text>know</text>
        </lyric>
        <lyric number="2">
          <syllabic>single</syllabic>
          <text>lives</text>
        </lyric>
        <lyric number="3">
          <syllabic>single</syllabic>
          <text>lives</text>
        </lyric>
        <lyric number="4">
          <syllabic>single</syllabic>
          <text>lives</text>
        </lyric>
        <lyric number="5">
          <syllabic>single</syllabic>
          <text>lives</text>
        </lyric>
      </note>
      <note>
        <pitch>
          <step>G</step>
          <octave>4</octave>
        </pitch>
        <duration>120</duration>
        <voice>1</voice>
        <type>quarter</type>
        <lyric number="1">
          <syllabic>single</syllabic>
          <text>that</text>
        </lyric>
        <lyric number="2">
          <syllabic>single</syllabic>
          <text>to</text>
        </lyric>
        <lyric number="3">
          <syllabic>begin</syllabic>
          <text>tri</text>
        </lyric>
        <lyric number="4">
          <syllabic>single</syllabic>
          <text>to</text>
        </lyric>
        <lyric number="5">
          <syllabic>single</syllabic>
          <text>to</text>
        </lyric>
      </note>
      <backup>
        <duration>480</duration>
      </backup>
      <note>
        <pitch>
          <step>D</step>
          <octave>4</octave>
        </pitch>
        <duration>240</duration>
        <voice>2</voice>
        <type>half</type>
      </note>
      <note>
        <pitch>
          <step>D</step>
          <octave>4</octave>
        </pitch>
        <duration>120</duration>
        <voice>2</voice>
        <type>quarter</type>
      </note>
      <note>
        <pitch>
          <step>C</step>
          <alter>1</alter>
          <octave>4</octave>
        </pitch>
        <duration>120</duration>
        <voice>2</voice>
        <type>quarter</type>
      </note>
    </measure>
    <measure number="2">
      <note>
        <pitch>
          <step>A</step>
          <octave>4</octave>
        </pitch>
        <duration>240</duration>
        <voice>1</voice>
        <type>half</type>
        <lyric number="1">
          <syllabic>single</syllabic>
          <text>my</text>
        </lyric>
        <lyric number="2">
          <syllabic>single</syllabic>
          <text>bless</text>
        </lyric>
        <lyric number="3">
          <syllabic>middle</syllabic>
          <text>um</text>
        </lyric>
        <lyric number="4">
          <syllabic>single</syllabic>
          <text>grant</text>
        </lyric>
        <lyric number="5">
          <syllabic>begin</syllabic>
          <text>si</text>
        </lyric>
      </note>
      <note>
        <pitch>
          <step>B</step>
          <octave>4</octave>
        </pitch>
        <duration>120</duration>
        <voice>1</voice>
        <type>quarter</type>
        <notations>
          <slur number="1" type="start" />
        </notations>
        <lyric number="1">
          <syllabic>begin</syllabic>
          <text>Re</text>
        </lyric>
        <lyric number="2">
          <syllabic>single</syllabic>
          <text>me</text>
        </lyric>
        <lyric number="3">
          <syllabic>end</syllabic>
          <text>phant</text>
        </lyric>
        <lyric number="4">
          <syllabic>single</syllabic>
          <text>me</text>
        </lyric>
        <lyric number="5">
          <syllabic>end</syllabic>
          <text>lence</text>
        </lyric>
      </note>
      <note>
        <pitch>
          <step>C</step>
          <alter>1</alter>
          <octave>5</octave>
        </pitch>
        <duration>120</duration>
        <voice>1</voice>
        <type>quarter</type>
        <notations>
          <slur number="1" type="stop" />
        </notations>
      </note>
      <backup>
        <duration>480</duration>
      </backup>
      <note>
        <pitch>
          <step>D</step>
          <octave>4</octave>
        </pitch>
        <duration>240</duration>
        <voice>2</voice>
        <type>half</type>
      </note>
      <note>
        <pitch>
          <step>D</step>
          <octave>4</octave>
        </pitch>
        <duration>120</duration>
        <voice>2</voice>
        <type>quarter</type>
        <notations>
          <slur number="2" type="start" />
        </notations>
      </note>
      <note>
        <pitch>
          <step>G</step>
          <octave>4</octave>
        </pitch>
        <duration>120</duration>
        <voice>2</voice>
        <type>quarter</type>
        <notations>
          <slur number="2" type="stop" />
        </notations>
      </note>
    </measure>
    <measure number="3">
      <note>
        <pitch>
          <step>D</step>
          <octave>5</octave>
        </pitch>
        <duration>240</duration>
        <voice>1</voice>
        <type>half</type>
        <lyric number="1">
          <syllabic>middle</syllabic>
          <text>deem</text>
        </lyric>
        <lyric number="2">
          <syllabic>single</syllabic>
          <text>with</text>
        </lyric>
        <lyric number="3">
          <syllabic>single</syllabic>
          <text>from</text>
        </lyric>
        <lyric number="4">
          <syllabic>single</syllabic>
          <text>rich</text>
        </lyric>
        <lyric number="5">
          <syllabic>single</syllabic>
          <text>all</text>
        </lyric>
      </note>
      <note>
        <pitch>
          <step>C</step>
          <alter>1</alter>
          <octave>5</octave>
        </pitch>
        <duration>120</duration>
        <voice>1</voice>
        <type>quarter</type>
        <notations>
          <slur number="1" type="start" />
        </notations>
        <lyric number="1">
          <syllabic>end</syllabic>
          <text>er</text>
        </lyric>
        <lyric number="2">
          <syllabic>single</syllabic>
          <text>His</text>
        </lyric>
        <lyric number="3">
          <syllabic>single</syllabic>
          <text>the</text>
        </lyric>
        <lyric number="4">
          <syllabic>begin</syllabic>
          <text>sup</text>
        </lyric>
        <lyric number="5">
          <syllabic>single</syllabic>
          <text>my</text>
        </lyric>
      </note>
      <note>
        <pitch>
          <step>B</step>
          <octave>4</octave>
        </pitch>
        <duration>120</duration>
        <voice>1</voice>
        <type>quarter</type>
        <notations>
          <slur number="1" type="stop" />
        </notations>
      </note>
      <backup>
        <duration>480</duration>
      </backup>
      <note>
        <pitch>
          <step>F</step>
          <alter>1</alter>
          <octave>4</octave>
        </pitch>
        <duration>240</duration>
        <voice>2</voice>
        <type>half</type>
      </note>
      <note>
        <pitch>
          <step>E</step>
          <octave>4</octave>
        </pitch>
        <duration>120</duration>
        <voice>2</voice>
        <type>quarter</type>
        <notations>
          <slur number="2" type="start" />
        </notations>
      </note>
      <note>
        <pitch>
          <step>D</step>
          <octave>4</octave>
        </pitch>
        <duration>120</duration>
        <voice>2</voice>
        <type>quarter</type>
        <notations>
          <slur number="2" type="stop" />
        </notations>
      </note>
    </measure>
    <measure number="4">
      <note>
        <pitch>
          <step>A</step>
          <octave>4</octave>
        </pitch>
        <duration>480</duration>
        <voice>1</voice>
        <type>whole</type>
        <lyric number="1">
          <syllabic>single</syllabic>
          <text>lives;</text>
        </lyric>
        <lyric number="2">
          <syllabic>single</syllabic>
          <text>love,</text>
        </lyric>
        <lyric number="3">
          <syllabic>single</syllabic>
          <text>grave,</text>
        </lyric>
        <lyric number="4">
          <syllabic>end</syllabic>
          <text>ply,</text>
        </lyric>
        <lyric number="5">
          <syllabic>single</syllabic>
          <text>fears,</text>
        </lyric>
      </note>
      <backup>
        <duration>480</duration>
      </backup>
      <note>
        <pitch>
          <step>C</step>
          <alter>1</alter>
          <octave>4</octave>
        </pitch>
        <duration>480</duration>
        <voice>2</voice>
        <type>whole</type>
      </note>
    </measure>
    <measure number="5">
      <note>
        <pitch>
          <step>A</step>
          <octave>4</octave>
        </pitch>
        <duration>240</duration>
        <voice>1</voice>
        <type>half</type>
        <lyric number="1">
          <syllabic>single</syllabic>
          <text>What</text>
        </lyric>
        <lyric number="2">
          <syllabic>single</syllabic>
          <text>He</text>
        </lyric>
        <lyric number="3">
          <syllabic>single</syllabic>
          <text>He</text>
        </lyric>
        <lyric number="4">
          <syllabic>single</syllabic>
          <text>He</text>
        </lyric>
        <lyric number="5">
          <syllabic>single</syllabic>
          <text>He</text>
        </lyric>
      </note>
      <note>
        <pitch>
          <step>A</step>
          <octave>4</octave>
        </pitch>
        <duration>120</duration>
        <voice>1</voice>
        <type>quarter</type>
        <lyric number="1">
          <syllabic>begin</syllabic>
          <text>com</text>
        </lyric>
        <lyric number="2">
          <syllabic>single</syllabic>
          <text>lives</text>
        </lyric>
        <lyric number="3">
          <syllabic>single</syllabic>
          <text>lives</text>
        </lyric>
        <lyric number="4">
          <syllabic>single</syllabic>
          <text>lives</text>
        </lyric>
        <lyric number="5">
          <syllabic>single</syllabic>
          <text>lives</text>
        </lyric>
      </note>
      <note>
        <pitch>
          <step>A</step>
          <octave>4</octave>
        </pitch>
        <duration>120</duration>
        <voice>1</voice>
        <type>quarter</type>
        <lyric number="1">
          <syllabic>end</syllabic>
          <text>fort</text>
        </lyric>
        <lyric number="2">
          <syllabic>single</syllabic>
          <text>to</text>
        </lyric>
        <lyric number="3">
          <syllabic>begin</syllabic>
          <text>e</text>
        </lyric>
        <lyric number="4">
          <syllabic>single</syllabic>
          <text>to</text>
        </lyric>
        <lyric number="5">
          <syllabic>single</syllabic>
          <text>to</text>
        </lyric>
      </note>
      <backup>
        <duration>480</duration>
      </backup>
      <note>
        <pitch>
          <step>D</step>
          <octave>4</octave>
        </pitch>
        <duration>240</duration>
        <voice>2</voice>
        <type>half</type>
      </note>
      <note>
        <pitch>
          <step>D</step>
          <octave>4</octave>
        </pitch>
        <duration>120</duration>
        <voice>2</voice>
        <type>quarter</type>
      </note>
      <note>
        <pitch>
          <step>D</step>
          <octave>4</octave>
        </pitch>
        <duration>120</duration>
        <voice>2</voice>
        <type>quarter</type>
      </note>
    </measure>
    <measure number="6">
      <note>
        <pitch>
          <step>B</step>
          <octave>4</octave>
        </pitch>
        <duration>240</duration>
        <voice>1</voice>
        <type>half</type>
        <lyric number="1">
          <syllabic>single</syllabic>
          <text>this</text>
        </lyric>
        <lyric number="2">
          <syllabic>single</syllabic>
          <text>plead</text>
        </lyric>
        <lyric number="3">
          <syllabic>middle</syllabic>
          <text>ter</text>
        </lyric>
        <lyric number="4">
          <syllabic>single</syllabic>
          <text>guide</text>
        </lyric>
        <lyric number="5">
          <syllabic>single</syllabic>
          <text>wipe</text>
        </lyric>
      </note>
      <note>
        <pitch>
          <step>A</step>
          <octave>4</octave>
        </pitch>
        <duration>240</duration>
        <voice>1</voice>
        <type>half</type>
        <lyric number="1">
          <syllabic>single</syllabic>
          <text>sweet</text>
        </lyric>
        <lyric number="2">
          <syllabic>single</syllabic>
          <text>for</text>
        </lyric>
        <lyric number="3">
          <syllabic>middle</syllabic>
          <text>nal</text>
        </lyric>
        <lyric number="4">
          <syllabic>single</syllabic>
          <text>me</text>
        </lyric>
        <lyric number="5">
          <syllabic>begin</syllabic>
          <text>a</text>
        </lyric>
      </note>
      <backup>
        <duration>480</duration>
      </backup>
      <note>
        <pitch>
          <step>D</step>
          <octave>4</octave>
        </pitch>
        <duration>240</duration>
        <voice>2</voice>
        <type>half</type>
      </note>
      <note>
        <pitch>
          <step>D</step>
          <octave>4</octave>
        </pitch>
        <duration>120</duration>
        <voice>2</voice>
        <type>quarter</type>
        <notations>
          <slur number="2" type="start" />
        </notations>
      </note>
      <note>
        <pitch>
          <step>A</step>
          <octave>3</octave>
        </pitch>
        <duration>120</duration>
        <voice>2</voice>
        <type>quarter</type>
        <notations>
          <slur number="2" type="stop" />
        </notations>
      </note>
    </measure>
    <measure number="7">
      <note>
        <pitch>
          <step>G</step>
          <octave>4</octave>
        </pitch>
        <duration>240</duration>
        <voice>1</voice>
        <type>half</type>
        <lyric number="1">
          <syllabic>begin</syllabic>
          <text>sen</text>
        </lyric>
        <lyric number="2">
          <syllabic>single</syllabic>
          <text>me</text>
        </lyric>
        <lyric number="3">
          <syllabic>end</syllabic>
          <text>ly</text>
        </lyric>
        <lyric number="4">
          <syllabic>single</syllabic>
          <text>with</text>
        </lyric>
        <lyric number="5">
          <syllabic>end</syllabic>
          <text>way</text>
        </lyric>
      </note>
      <note>
        <pitch>
          <step>F</step>
          <alter>1</alter>
          <octave>4</octave>
        </pitch>
        <duration>240</duration>
        <voice>1</voice>
        <type>half</type>
        <lyric number="1">
          <syllabic>end</syllabic>
          <text>tence</text>
        </lyric>
        <lyric number="2">
          <syllabic>begin</syllabic>
          <text>a</text>
        </lyric>
        <lyric number="3">
          <syllabic>single</syllabic>
          <text>to</text>
        </lyric>
        <lyric number="4">
          <syllabic>single</syllabic>
          <text>His</text>
        </lyric>
        <lyric number="5">
          <syllabic>single</syllabic>
          <text>my</text>
        </lyric>
      </note>
      <backup>
        <duration>480</duration>
      </backup>
      <note>
        <pitch>
          <step>B</step>
          <octave>3</octave>
        </pitch>
        <duration>120</duration>
        <voice>2</voice>
        <type>quarter</type>
        <notations>
          <slur number="2" type="start" />
        </notations>
      </note>
      <note>
        <pitch>
          <step>C</step>
          <alter>1</alter>
          <octave>4</octave>
        </pitch>
        <duration>120</duration>
        <voice>2</voice>
        <type>quarter</type>
        <notations>
          <slur number="2" type="stop" />
        </notations>
      </note>
      <note>
        <pitch>
          <step>D</step>
          <octave>4</octave>
        </pitch>
        <duration>240</duration>
        <voice>2</voice>
        <type>half</type>
      </note>
    </measure>
    <measure number="8">
      <note>
        <pitch>
          <step>E</step>
          <octave>4</octave>
        </pitch>
        <duration>480</duration>
        <voice>1</voice>
        <type>whole</type>
        <lyric number="1">
          <syllabic>single</syllabic>
          <text>gives!</text>
        </lyric>
        <lyric number="2">
          <syllabic>end</syllabic>
          <text>bove.</text>
        </lyric>
        <lyric number="3">
          <syllabic>single</syllabic>
          <text>save,</text>
        </lyric>
        <lyric number="4">
          <syllabic>single</syllabic>
          <text>eye,</text>
        </lyric>
        <lyric number="5">
          <syllabic>single</syllabic>
          <text>tears</text>
        </lyric>
      </note>
      <backup>
        <duration>480</duration>
      </backup>
      <note>
        <pitch>
          <step>C</step>
          <alter>1</alter>
          <octave>4</octave>
        </pitch>
        <duration>480</duration>
        <voice>2</voice>
        <type>whole</type>
      </note>
    </measure>
    <measure number="9">
      <note>
        <pitch>
          <step>F</step>
          <alter>1</alter>
          <octave>4</octave>
        </pitch>
        <duration>240</duration>
        <voice>1</voice>
        <type>half</type>
        <lyric number="1">
          <syllabic>single</syllabic>
          <text>He</text>
        </lyric>
        <lyric number="2">
          <syllabic>single</syllabic>
          <text>He</text>
        </lyric>
        <lyric number="3">
          <syllabic>single</syllabic>
          <text>He</text>
        </lyric>
        <lyric number="4">
          <syllabic>single</syllabic>
          <text>He</text>
        </lyric>
        <lyric number="5">
          <syllabic>single</syllabic>
          <text>He</text>
        </lyric>
      </note>
      <note>
        <pitch>
          <step>F</step>
          <alter>1</alter>
          <octave>4</octave>
        </pitch>
        <duration>120</duration>
        <voice>1</voice>
        <type>quarter</type>
        <lyric number="1">
          <syllabic>single</syllabic>
          <text>lives,</text>
        </lyric>
        <lyric number="2">
          <syllabic>single</syllabic>
          <text>lives</text>
        </lyric>
        <lyric number="3">
          <syllabic>single</syllabic>
          <text>lives</text>
        </lyric>
        <lyric number="4">
          <syllabic>single</syllabic>
          <text>lives</text>
        </lyric>
        <lyric number="5">
          <syllabic>single</syllabic>
          <text>lives</text>
        </lyric>
      </note>
      <note>
        <pitch>
          <step>E</step>
          <octave>4</octave>
        </pitch>
        <duration>120</duration>
        <voice>1</voice>
        <type>quarter</type>
        <lyric number="1">
          <syllabic>single</syllabic>
          <text>He</text>
        </lyric>
        <lyric number="2">
          <syllabic>single</syllabic>
          <text>my</text>
        </lyric>
        <lyric number="3">
          <syllabic>single</syllabic>
          <text>all</text>
        </lyric>
        <lyric number="4">
          <syllabic>single</syllabic>
          <text>to</text>
        </lyric>
        <lyric number="5">
          <syllabic>single</syllabic>
          <text>to</text>
        </lyric>
      </note>
      <backup>
        <duration>480</duration>
      </backup>
      <note>
        <pitch>
          <step>D</step>
          <octave>4</octave>
        </pitch>
        <duration>240</duration>
        <voice>2</voice>
        <type>half</type>
      </note>
      <note>
        <pitch>
          <step>D</step>
          <octave>4</octave>
        </pitch>
        <duration>120</duration>
        <voice>2</voice>
        <type>quarter</type>
      </note>
      <note>
        <pitch>
          <step>C</step>
          <alter>1</alter>
          <octave>4</octave>
        </pitch>
        <duration>120</duration>
        <voice>2</voice>
        <type>quarter</type>
      </note>
    </measure>
    <measure number="10">
      <note>
        <pitch>
          <step>D</step>
          <octave>4</octave>
        </pitch>
        <duration>120</duration>
        <voice>1</voice>
        <type>quarter</type>
        <notations>
          <slur number="1" type="start" />
        </notations>
        <lyric number="1">
          <syllabic>single</syllabic>
          <text>lives,</text>
        </lyric>
        <lyric number="2">
          <syllabic>begin</syllabic>
          <text>hun</text>
        </lyric>
        <lyric number="3">
          <syllabic>begin</syllabic>
          <text>glo</text>
        </lyric>
        <lyric number="4">
          <syllabic>begin</syllabic>
          <text>com</text>
        </lyric>
        <lyric number="5">
          <syllabic>single</syllabic>
          <text>calm</text>
        </lyric>
      </note>
      <note>
        <pitch>
          <step>F</step>
          <alter>1</alter>
          <octave>4</octave>
        </pitch>
        <duration>120</duration>
        <voice>1</voice>
        <type>quarter</type>
        <notations>
          <slur number="1" type="stop" />
        </notations>
      </note>
      <note>
        <pitch>
          <step>A</step>
          <octave>4</octave>
        </pitch>
        <duration>120</duration>
        <voice>1</voice>
        <type>quarter</type>
        <notations>
          <slur number="1" type="start" />
        </notations>
        <lyric number="1">
          <syllabic>single</syllabic>
          <text>who</text>
        </lyric>
        <lyric number="2">
          <syllabic>end</syllabic>
          <text>gry</text>
        </lyric>
        <lyric number="3">
          <syllabic>end</syllabic>
          <text>rious</text>
        </lyric>
        <lyric number="4">
          <syllabic>end</syllabic>
          <text>fort</text>
        </lyric>
        <lyric number="5">
          <syllabic>single</syllabic>
          <text>my</text>
        </lyric>
      </note>
      <note>
        <pitch>
          <step>D</step>
          <octave>5</octave>
        </pitch>
        <duration>120</duration>
        <voice>1</voice>
        <type>quarter</type>
        <notations>
          <slur number="1" type="stop" />
        </notations>
      </note>
      <backup>
        <duration>480</duration>
      </backup>
      <note>
        <pitch>
          <step>A</step>
          <octave>3</octave>
        </pitch>
        <duration>120</duration>
        <voice>2</voice>
        <type>quarter</type>
        <notations>
          <slur number="2" type="start" />
        </notations>
      </note>
      <note>
        <pitch>
          <step>D</step>
          <octave>4</octave>
        </pitch>
        <duration>120</duration>
        <voice>2</voice>
        <type>quarter</type>
        <notations>
          <slur number="2" type="stop" />
        </notations>
      </note>
      <note>
        <pitch>
          <step>D</step>
          <octave>4</octave>
        </pitch>
        <duration>240</duration>
        <voice>2</voice>
        <type>half</type>
      </note>
    </measure>
    <measure number="11">
      <note>
        <pitch>
          <step>B</step>
          <octave>4</octave>
        </pitch>
        <duration>120</duration>
        <voice>1</voice>
        <type>quarter</type>
        <notations>
          <slur number="1" type="start" />
        </notations>
        <lyric number="1">
          <syllabic>single</syllabic>
          <text>once</text>
        </lyric>
        <lyric number="2">
          <syllabic>single</syllabic>
          <text>soul</text>
        </lyric>
        <lyric number="3">
          <syllabic>single</syllabic>
          <text>in</text>
        </lyric>
        <lyric number="4">
          <syllabic>single</syllabic>
          <text>me</text>
        </lyric>
        <lyric number="5">
          <syllabic>begin</syllabic>
          <text>trou</text>
        </lyric>
      </note>
      <note>
        <pitch>
          <step>A</step>
          <octave>4</octave>
        </pitch>
        <duration>120</duration>
        <voice>1</voice>
        <type>quarter</type>
        <notations>
          <slur number="1" type="stop" />
        </notations>
      </note>
      <note>
        <pitch>
          <step>G</step>
          <octave>4</octave>
        </pitch>
        <duration>120</duration>
        <voice>1</voice>
        <type>quarter</type>
        <notations>
          <slur number="1" type="start" />
        </notations>
        <lyric number="1">
          <syllabic>single</syllabic>
          <text>was</text>
        </lyric>
        <lyric number="2">
          <syllabic>single</syllabic>
          <text>to</text>
        </lyric>
        <lyric number="3">
          <syllabic>single</syllabic>
          <text>the</text>
        </lyric>
        <lyric number="4">
          <syllabic>single</syllabic>
          <text>when</text>
        </lyric>
        <lyric number="5">
          <syllabic>end</syllabic>
          <text>bled</text>
        </lyric>
      </note>
      <note>
        <pitch>
          <step>F</step>
          <alter>1</alter>
          <octave>4</octave>
        </pitch>
        <duration>120</duration>
        <voice>1</voice>
        <type>quarter</type>
        <notations>
          <slur number="1" type="stop" />
        </notations>
      </note>
      <backup>
        <duration>480</duration>
      </backup>
      <note>
        <pitch>
          <step>D</step>
          <octave>4</octave>
        </pitch>
        <duration>240</duration>
        <voice>2</voice>
        <type>half</type>
      </note>
      <note>
        <pitch>
          <step>C</step>
          <alter>1</alter>
          <octave>4</octave>
        </pitch>
        <duration>120</duration>
        <voice>2</voice>
        <type>quarter</type>
        <notations>
          <slur number="2" type="start" />
        </notations>
      </note>
      <note>
        <pitch>
          <step>D</step>
          <octave>4</octave>
        </pitch>
        <duration>120</duration>
        <voice>2</voice>
        <type>quarter</type>
        <notations>
          <slur number="2" type="stop" />
        </notations>
      </note>
    </measure>
    <measure number="12">
      <note>
        <pitch>
          <step>E</step>
          <octave>4</octave>
        </pitch>
        <duration>480</duration>
        <voice>1</voice>
        <type>whole</type>
        <lyric number="1">
          <syllabic>single</syllabic>
          <text>dead;</text>
        </lyric>
        <lyric number="2">
          <syllabic>single</syllabic>
          <text>feed,</text>
        </lyric>
        <lyric number="3">
          <syllabic>single</syllabic>
          <text>sky,</text>
        </lyric>
        <lyric number="4">
          <syllabic>single</syllabic>
          <text>faint,</text>
        </lyric>
        <lyric number="5">
          <syllabic>single</syllabic>
          <text>heart,</text>
        </lyric>
      </note>
      <backup>
        <duration>480</duration>
      </backup>
      <note>
        <pitch>
          <step>C</step>
          <alter>1</alter>
          <octave>4</octave>
        </pitch>
        <duration>480</duration>
        <voice>2</voice>
        <type>whole</type>
      </note>
    </measure>
    <measure number="13">
      <note>
        <pitch>
          <step>A</step>
          <octave>4</octave>
        </pitch>
        <duration>240</duration>
        <voice>1</voice>
        <type>half</type>
        <lyric number="1">
          <syllabic>single</syllabic>
          <text>He</text>
        </lyric>
        <lyric number="2">
          <syllabic>single</syllabic>
          <text>He</text>
        </lyric>
        <lyric number="3">
          <syllabic>single</syllabic>
          <text>He</text>
        </lyric>
        <lyric number="4">
          <syllabic>single</syllabic>
          <text>He</text>
        </lyric>
        <lyric number="5">
          <syllabic>single</syllabic>
          <text>He</text>
        </lyric>
      </note>
      <note>
        <pitch>
          <step>B</step>
          <octave>4</octave>
        </pitch>
        <duration>120</duration>
        <voice>1</voice>
        <type>quarter</type>
        <lyric number="1">
          <syllabic>single</syllabic>
          <text>lives,</text>
        </lyric>
        <lyric number="2">
          <syllabic>single</syllabic>
          <text>lives</text>
        </lyric>
        <lyric number="3">
          <syllabic>single</syllabic>
          <text>lives</text>
        </lyric>
        <lyric number="4">
          <syllabic>single</syllabic>
          <text>lives</text>
        </lyric>
        <lyric number="5">
          <syllabic>single</syllabic>
          <text>lives</text>
        </lyric>
      </note>
      <note>
        <pitch>
          <step>C</step>
          <alter>1</alter>
          <octave>5</octave>
        </pitch>
        <duration>120</duration>
        <voice>1</voice>
        <type>quarter</type>
        <lyric number="1">
          <syllabic>single</syllabic>
          <text>my</text>
        </lyric>
        <lyric number="2">
          <syllabic>single</syllabic>
          <text>to</text>
        </lyric>
        <lyric number="3">
          <syllabic>begin</syllabic>
          <text>ex</text>
        </lyric>
        <lyric number="4">
          <syllabic>single</syllabic>
          <text>to</text>
        </lyric>
        <lyric number="5">
          <syllabic>single</syllabic>
          <text>all</text>
        </lyric>
      </note>
      <backup>
        <duration>480</duration>
      </backup>
      <note>
        <pitch>
          <step>D</step>
          <octave>4</octave>
        </pitch>
        <duration>240</duration>
        <voice>2</voice>
        <type>half</type>
      </note>
      <note>
        <pitch>
          <step>D</step>
          <octave>4</octave>
        </pitch>
        <duration>120</duration>
        <voice>2</voice>
        <type>quarter</type>
      </note>
      <note>
        <pitch>
          <step>E</step>
          <octave>4</octave>
        </pitch>
        <duration>120</duration>
        <voice>2</voice>
        <type>quarter</type>
      </note>
    </measure>
    <measure number="14">
      <note>
        <pitch>
          <step>D</step>
          <octave>5</octave>
        </pitch>
        <duration>360</duration>
        <voice>1</voice>
        <type>half</type>
        <dot />
        <lyric number="1">
          <syllabic>begin</syllabic>
          <text>ev</text>
        </lyric>
        <lyric number="2">
          <syllabic>single</syllabic>
          <text>help</text>
        </lyric>
        <lyric number="3">
          <syllabic>middle</syllabic>
          <text>alt</text>
        </lyric>
        <lyric number="4">
          <syllabic>single</syllabic>
          <text>hear</text>
        </lyric>
        <lyric number="5">
          <syllabic>begin</syllabic>
          <text>bless</text>
        </lyric>
      </note>
      <note>
        <pitch>
          <step>G</step>
          <octave>4</octave>
        </pitch>
        <duration>120</duration>
        <voice>1</voice>
        <type>quarter</type>
        <lyric number="1">
          <syllabic>end</syllabic>
          <text>er</text>
        </lyric>
        <lyric number="2">
          <syllabic>single</syllabic>
          <text>in</text>
        </lyric>
        <lyric number="3">
          <syllabic>end</syllabic>
          <text>ed</text>
        </lyric>
        <lyric number="4">
          <syllabic>single</syllabic>
          <text>my</text>
        </lyric>
        <lyric number="5">
          <syllabic>end</syllabic>
          <text>ings</text>
        </lyric>
      </note>
      <backup>
        <duration>480</duration>
      </backup>
      <note>
        <pitch>
          <step>F</step>
          <alter>1</alter>
          <octave>4</octave>
        </pitch>
        <duration>180</duration>
        <voice>2</voice>
        <type>quarter</type>
        <dot />
        <notations>
          <slur number="2" type="start" />
        </notations>
      </note>
      <note>
        <pitch>
          <step>E</step>
          <octave>4</octave>
        </pitch>
        <duration>60</duration>
        <voice>2</voice>
        <type>eighth</type>
      </note>
      <note>
        <pitch>
          <step>D</step>
          <octave>4</octave>
        </pitch>
        <duration>120</duration>
        <voice>2</voice>
        <type>quarter</type>
        <notations>
          <slur number="2" type="stop" />
        </notations>
      </note>
      <note>
        <pitch>
          <step>E</step>
          <octave>4</octave>
        </pitch>
        <duration>120</duration>
        <voice>2</voice>
        <type>quarter</type>
      </note>
    </measure>
    <measure number="15">
      <note>
        <pitch>
          <step>F</step>
          <alter>1</alter>
          <octave>4</octave>
        </pitch>
        <duration>240</duration>
        <voice>1</voice>
        <type>half</type>
        <lyric number="1">
          <syllabic>begin</syllabic>
          <text>liv</text>
        </lyric>
        <lyric number="2">
          <syllabic>single</syllabic>
          <text>time</text>
        </lyric>
        <lyric number="3">
          <syllabic>single</syllabic>
          <text>there</text>
        </lyric>
        <lyric number="4">
          <syllabic>single</syllabic>
          <text>soul's</text>
        </lyric>
        <lyric number="5">
          <syllabic>single</syllabic>
          <text>to</text>
        </lyric>
      </note>
      <note>
        <pitch>
          <step>E</step>
          <octave>4</octave>
        </pitch>
        <duration>240</duration>
        <voice>1</voice>
        <type>half</type>
        <lyric number="1">
          <syllabic>end</syllabic>
          <text>ing</text>
        </lyric>
        <lyric number="2">
          <syllabic>single</syllabic>
          <text>of</text>
        </lyric>
        <lyric number="3">
          <syllabic>single</syllabic>
          <text>on</text>
        </lyric>
        <lyric number="4">
          <syllabic>begin</syllabic>
          <text>com</text>
        </lyric>
        <lyric number="5">
          <syllabic>begin</syllabic>
          <text>im</text>
        </lyric>
      </note>
      <backup>
        <duration>480</duration>
      </backup>
      <note>
        <pitch>
          <step>D</step>
          <octave>4</octave>
        </pitch>
        <duration>240</duration>
        <voice>2</voice>
        <type>half</type>
      </note>
      <note>
        <pitch>
          <step>C</step>
          <alter>1</alter>
          <octave>4</octave>
        </pitch>
        <duration>240</duration>
        <voice>2</voice>
        <type>half</type>
      </note>
    </measure>
    <measure number="16">
      <note>
        <pitch>
          <step>D</step>
          <octave>4</octave>
        </pitch>
        <duration>480</duration>
        <voice>1</voice>
        <type>whole</type>
        <lyric number="1">
          <syllabic>single</syllabic>
          <text>Head.</text>
        </lyric>
        <lyric number="2">
          <syllabic>single</syllabic>
          <text>need.</text>
        </lyric>
        <lyric number="3">
          <syllabic>single</syllabic>
          <text>high.</text>
        </lyric>
        <lyric number="4">
          <syllabic>end</syllabic>
          <text>plaint.</text>
        </lyric>
        <lyric number="5">
          <syllabic>end</syllabic>
          <text>part.</text>
        </lyric>
      </note>
      <barline location="right">
        <bar-style>light-heavy</bar-style>
      </barline>
      <backup>
        <duration>480</duration>
      </backup>
      <note>
        <pitch>
          <step>D</step>
          <octave>4</octave>
        </pitch>
        <duration>480</duration>
        <voice>2</voice>
        <type>whole</type>
      </note>
      <barline location="right">
        <bar-style>light-heavy</bar-style>
      </barline>
    </measure>
  </part>
  <part id="PS2V1">
    <measure number="1">
      <attributes>
        <divisions>120</divisions>
        <key>
          <fifths>2</fifths>
          <mode>major</mode>
        </key>
        <time>
          <beats>4</beats>
          <beat-type>4</beat-type>
        </time>
        <clef>
          <sign>F</sign>
          <line>4</line>
        </clef>
      </attributes>
      <note>
        <pitch>
          <step>F</step>
          <alter>1</alter>
          <octave>3</octave>
        </pitch>
        <duration>240</duration>
        <voice>1</voice>
        <type>half</type>
      </note>
      <note>
        <pitch>
          <step>A</step>
          <octave>3</octave>
        </pitch>
        <duration>120</duration>
        <voice>1</voice>
        <type>quarter</type>
      </note>
      <note>
        <pitch>
          <step>A</step>
          <octave>3</octave>
        </pitch>
        <duration>120</duration>
        <voice>1</voice>
        <type>quarter</type>
      </note>
      <backup>
        <duration>480</duration>
      </backup>
      <note>
        <pitch>
          <step>D</step>
          <octave>3</octave>
        </pitch>
        <duration>240</duration>
        <voice>2</voice>
        <type>half</type>
      </note>
      <note>
        <pitch>
          <step>D</step>
          <octave>3</octave>
        </pitch>
        <duration>120</duration>
        <voice>2</voice>
        <type>quarter</type>
      </note>
      <note>
        <pitch>
          <step>E</step>
          <octave>3</octave>
        </pitch>
        <duration>120</duration>
        <voice>2</voice>
        <type>quarter</type>
      </note>
    </measure>
    <measure number="2">
      <note>
        <pitch>
          <step>A</step>
          <octave>3</octave>
        </pitch>
        <duration>240</duration>
        <voice>1</voice>
        <type>half</type>
      </note>
      <note>
        <pitch>
          <step>G</step>
          <octave>3</octave>
        </pitch>
        <duration>240</duration>
        <voice>1</voice>
        <type>half</type>
      </note>
      <backup>
        <duration>480</duration>
      </backup>
      <note>
        <pitch>
          <step>F</step>
          <alter>1</alter>
          <octave>3</octave>
        </pitch>
        <duration>240</duration>
        <voice>2</voice>
        <type>half</type>
      </note>
      <note>
        <pitch>
          <step>G</step>
          <octave>3</octave>
        </pitch>
        <duration>120</duration>
        <voice>2</voice>
        <type>quarter</type>
        <notations>
          <slur number="2" type="start" />
        </notations>
      </note>
      <note>
        <pitch>
          <step>E</step>
          <octave>3</octave>
        </pitch>
        <duration>120</duration>
        <voice>2</voice>
        <type>quarter</type>
        <notations>
          <slur number="2" type="stop" />
        </notations>
      </note>
    </measure>
    <measure number="3">
      <note>
        <pitch>
          <step>A</step>
          <octave>3</octave>
        </pitch>
        <duration>240</duration>
        <voice>1</voice>
        <type>half</type>
      </note>
      <note>
        <pitch>
          <step>A</step>
          <octave>3</octave>
        </pitch>
        <duration>120</duration>
        <voice>1</voice>
        <type>quarter</type>
        <notations>
          <slur number="1" type="start" />
        </notations>
      </note>
      <note>
        <pitch>
          <step>G</step>
          <alter>1</alter>
          <octave>3</octave>
        </pitch>
        <duration>120</duration>
        <voice>1</voice>
        <type>quarter</type>
        <accidental>sharp</accidental>
        <notations>
          <slur number="1" type="stop" />
        </notations>
      </note>
      <backup>
        <duration>480</duration>
      </backup>
      <note>
        <pitch>
          <step>D</step>
          <octave>3</octave>
        </pitch>
        <duration>240</duration>
        <voice>2</voice>
        <type>half</type>
      </note>
      <note>
        <pitch>
          <step>E</step>
          <octave>3</octave>
        </pitch>
        <duration>240</duration>
        <voice>2</voice>
        <type>half</type>
      </note>
    </measure>
    <measure number="4">
      <note>
        <pitch>
          <step>A</step>
          <octave>3</octave>
        </pitch>
        <duration>480</duration>
        <voice>1</voice>
        <type>whole</type>
      </note>
      <backup>
        <duration>480</duration>
      </backup>
      <note>
        <pitch>
          <step>A</step>
          <octave>2</octave>
        </pitch>
        <duration>480</duration>
        <voice>2</voice>
        <type>whole</type>
      </note>
    </measure>
    <measure number="5">
      <note>
        <pitch>
          <step>F</step>
          <alter>1</alter>
          <octave>3</octave>
        </pitch>
        <duration>240</duration>
        <voice>1</voice>
        <type>half</type>
      </note>
      <note>
        <pitch>
          <step>F</step>
          <alter>1</alter>
          <octave>3</octave>
        </pitch>
        <duration>120</duration>
        <voice>1</voice>
        <type>quarter</type>
      </note>
      <note>
        <pitch>
          <step>A</step>
          <octave>3</octave>
        </pitch>
        <duration>120</duration>
        <voice>1</voice>
        <type>quarter</type>
      </note>
      <backup>
        <duration>480</duration>
      </backup>
      <note>
        <pitch>
          <step>D</step>
          <octave>3</octave>
        </pitch>
        <duration>240</duration>
        <voice>2</voice>
        <type>half</type>
      </note>
      <note>
        <pitch>
          <step>D</step>
          <octave>3</octave>
        </pitch>
        <duration>120</duration>
        <voice>2</voice>
        <type>quarter</type>
      </note>
      <note>
        <pitch>
          <step>F</step>
          <alter>1</alter>
          <octave>3</octave>
        </pitch>
        <duration>120</duration>
        <voice>2</voice>
        <type>quarter</type>
      </note>
    </measure>
    <measure number="6">
      <note>
        <pitch>
          <step>G</step>
          <octave>3</octave>
        </pitch>
        <duration>240</duration>
        <voice>1</voice>
        <type>half</type>
      </note>
      <note>
        <pitch>
          <step>A</step>
          <octave>3</octave>
        </pitch>
        <duration>120</duration>
        <voice>1</voice>
        <type>quarter</type>
        <notations>
          <slur number="1" type="start" />
        </notations>
      </note>
      <note>
        <pitch>
          <step>F</step>
          <alter>1</alter>
          <octave>3</octave>
        </pitch>
        <duration>120</duration>
        <voice>1</voice>
        <type>quarter</type>
        <notations>
          <slur number="1" type="stop" />
        </notations>
      </note>
      <backup>
        <duration>480</duration>
      </backup>
      <note>
        <pitch>
          <step>G</step>
          <octave>3</octave>
        </pitch>
        <duration>240</duration>
        <voice>2</voice>
        <type>half</type>
      </note>
      <note>
        <pitch>
          <step>F</step>
          <alter>1</alter>
          <octave>3</octave>
        </pitch>
        <duration>240</duration>
        <voice>2</voice>
        <type>half</type>
      </note>
    </measure>
    <measure number="7">
      <note>
        <pitch>
          <step>G</step>
          <octave>3</octave>
        </pitch>
        <duration>240</duration>
        <voice>1</voice>
        <type>half</type>
      </note>
      <note>
        <pitch>
          <step>A</step>
          <octave>3</octave>
        </pitch>
        <duration>240</duration>
        <voice>1</voice>
        <type>half</type>
      </note>
      <backup>
        <duration>480</duration>
      </backup>
      <note>
        <pitch>
          <step>E</step>
          <octave>3</octave>
        </pitch>
        <duration>240</duration>
        <voice>2</voice>
        <type>half</type>
      </note>
      <note>
        <pitch>
          <step>D</step>
          <octave>3</octave>
        </pitch>
        <duration>240</duration>
        <voice>2</voice>
        <type>half</type>
      </note>
    </measure>
    <measure number="8">
      <note>
        <pitch>
          <step>A</step>
          <octave>3</octave>
        </pitch>
        <duration>480</duration>
        <voice>1</voice>
        <type>whole</type>
      </note>
      <backup>
        <duration>480</duration>
      </backup>
      <note>
        <pitch>
          <step>A</step>
          <octave>2</octave>
        </pitch>
        <duration>480</duration>
        <voice>2</voice>
        <type>whole</type>
      </note>
    </measure>
    <measure number="9">
      <note>
        <pitch>
          <step>A</step>
          <octave>3</octave>
        </pitch>
        <duration>240</duration>
        <voice>1</voice>
        <type>half</type>
      </note>
      <note>
        <pitch>
          <step>A</step>
          <octave>3</octave>
        </pitch>
        <duration>120</duration>
        <voice>1</voice>
        <type>quarter</type>
      </note>
      <note>
        <pitch>
          <step>G</step>
          <octave>3</octave>
        </pitch>
        <duration>120</duration>
        <voice>1</voice>
        <type>quarter</type>
      </note>
      <backup>
        <duration>480</duration>
      </backup>
      <note>
        <pitch>
          <step>D</step>
          <octave>3</octave>
        </pitch>
        <duration>240</duration>
        <voice>2</voice>
        <type>half</type>
      </note>
      <note>
        <pitch>
          <step>D</step>
          <octave>3</octave>
        </pitch>
        <duration>120</duration>
        <voice>2</voice>
        <type>quarter</type>
      </note>
      <note>
        <pitch>
          <step>A</step>
          <octave>2</octave>
        </pitch>
        <duration>120</duration>
        <voice>2</voice>
        <type>quarter</type>
      </note>
    </measure>
    <measure number="10">
      <note>
        <pitch>
          <step>F</step>
          <alter>1</alter>
          <octave>3</octave>
        </pitch>
        <duration>120</duration>
        <voice>1</voice>
        <type>quarter</type>
        <notations>
          <slur number="1" type="start" />
        </notations>
      </note>
      <note>
        <pitch>
          <step>G</step>
          <octave>3</octave>
        </pitch>
        <duration>120</duration>
        <voice>1</voice>
        <type>quarter</type>
        <notations>
          <slur number="1" type="stop" />
        </notations>
      </note>
      <note>
        <pitch>
          <step>A</step>
          <octave>3</octave>
        </pitch>
        <duration>240</duration>
        <voice>1</voice>
        <type>half</type>
      </note>
      <backup>
        <duration>480</duration>
      </backup>
      <note>
        <pitch>
          <step>D</step>
          <octave>3</octave>
        </pitch>
        <duration>240</duration>
        <voice>2</voice>
        <type>half</type>
      </note>
      <note>
        <pitch>
          <step>F</step>
          <alter>1</alter>
          <octave>3</octave>
        </pitch>
        <duration>240</duration>
        <voice>2</voice>
        <type>half</type>
      </note>
    </measure>
    <measure number="11">
      <note>
        <pitch>
          <step>G</step>
          <octave>3</octave>
        </pitch>
        <duration>120</duration>
        <voice>1</voice>
        <type>quarter</type>
        <notations>
          <slur number="1" type="start" />
        </notations>
      </note>
      <note>
        <pitch>
          <step>D</step>
          <octave>4</octave>
        </pitch>
        <duration>120</duration>
        <voice>1</voice>
        <type>quarter</type>
        <notations>
          <slur number="1" type="stop" />
        </notations>
      </note>
      <note>
        <pitch>
          <step>A</step>
          <octave>3</octave>
        </pitch>
        <duration>240</duration>
        <voice>1</voice>
        <type>half</type>
      </note>
      <backup>
        <duration>480</duration>
      </backup>
      <note>
        <pitch>
          <step>G</step>
          <octave>3</octave>
        </pitch>
        <duration>120</duration>
        <voice>2</voice>
        <type>quarter</type>
        <notations>
          <slur number="2" type="start" />
        </notations>
      </note>
      <note>
        <pitch>
          <step>F</step>
          <alter>1</alter>
          <octave>3</octave>
        </pitch>
        <duration>120</duration>
        <voice>2</voice>
        <type>quarter</type>
        <notations>
          <slur number="2" type="stop" />
        </notations>
      </note>
      <note>
        <pitch>
          <step>E</step>
          <octave>3</octave>
        </pitch>
        <duration>120</duration>
        <voice>2</voice>
        <type>quarter</type>
        <notations>
          <slur number="2" type="start" />
        </notations>
      </note>
      <note>
        <pitch>
          <step>D</step>
          <octave>3</octave>
        </pitch>
        <duration>120</duration>
        <voice>2</voice>
        <type>quarter</type>
        <notations>
          <slur number="2" type="stop" />
        </notations>
      </note>
    </measure>
    <measure number="12">
      <note>
        <pitch>
          <step>A</step>
          <octave>3</octave>
        </pitch>
        <duration>480</duration>
        <voice>1</voice>
        <type>whole</type>
      </note>
      <backup>
        <duration>480</duration>
      </backup>
      <note>
        <pitch>
          <step>A</step>
          <octave>2</octave>
        </pitch>
        <duration>480</duration>
        <voice>2</voice>
        <type>whole</type>
      </note>
    </measure>
    <measure number="13">
      <note>
        <pitch>
          <step>A</step>
          <octave>3</octave>
        </pitch>
        <duration>240</duration>
        <voice>1</voice>
        <type>half</type>
      </note>
      <note>
        <pitch>
          <step>G</step>
          <octave>3</octave>
        </pitch>
        <duration>120</duration>
        <voice>1</voice>
        <type>quarter</type>
      </note>
      <note>
        <pitch>
          <step>G</step>
          <octave>3</octave>
        </pitch>
        <duration>120</duration>
        <voice>1</voice>
        <type>quarter</type>
      </note>
      <backup>
        <duration>480</duration>
      </backup>
      <note>
        <pitch>
          <step>F</step>
          <alter>1</alter>
          <octave>3</octave>
        </pitch>
        <duration>240</duration>
        <voice>2</voice>
        <type>half</type>
      </note>
      <note>
        <pitch>
          <step>G</step>
          <octave>3</octave>
        </pitch>
        <duration>120</duration>
        <voice>2</voice>
        <type>quarter</type>
      </note>
      <note>
        <pitch>
          <step>E</step>
          <octave>3</octave>
        </pitch>
        <duration>120</duration>
        <voice>2</voice>
        <type>quarter</type>
      </note>
    </measure>
    <measure number="14">
      <note>
        <pitch>
          <step>F</step>
          <alter>1</alter>
          <octave>3</octave>
        </pitch>
        <duration>180</duration>
        <voice>1</voice>
        <type>quarter</type>
        <dot />
        <notations>
          <slur number="1" type="start" />
        </notations>
      </note>
      <note>
        <pitch>
          <step>G</step>
          <octave>3</octave>
        </pitch>
        <duration>60</duration>
        <voice>1</voice>
        <type>eighth</type>
      </note>
      <note>
        <pitch>
          <step>A</step>
          <octave>3</octave>
        </pitch>
        <duration>120</duration>
        <voice>1</voice>
        <type>quarter</type>
        <notations>
          <slur number="1" type="stop" />
        </notations>
      </note>
      <note>
        <pitch>
          <step>B</step>
          <octave>3</octave>
        </pitch>
        <duration>120</duration>
        <voice>1</voice>
        <type>quarter</type>
      </note>
      <backup>
        <duration>480</duration>
      </backup>
      <note>
        <pitch>
          <step>D</step>
          <octave>3</octave>
        </pitch>
        <duration>180</duration>
        <voice>2</voice>
        <type>quarter</type>
        <dot />
        <notations>
          <slur number="2" type="start" />
        </notations>
      </note>
      <note>
        <pitch>
          <step>E</step>
          <octave>3</octave>
        </pitch>
        <duration>60</duration>
        <voice>2</voice>
        <type>eighth</type>
      </note>
      <note>
        <pitch>
          <step>F</step>
          <alter>1</alter>
          <octave>3</octave>
        </pitch>
        <duration>120</duration>
        <voice>2</voice>
        <type>quarter</type>
        <notations>
          <slur number="2" type="stop" />
        </notations>
      </note>
      <note>
        <pitch>
          <step>G</step>
          <octave>3</octave>
        </pitch>
        <duration>120</duration>
        <voice>2</voice>
        <type>quarter</type>
      </note>
    </measure>
    <measure number="15">
      <note>
        <pitch>
          <step>A</step>
          <octave>3</octave>
        </pitch>
        <duration>240</duration>
        <voice>1</voice>
        <type>half</type>
      </note>
      <note>
        <pitch>
          <step>G</step>
          <octave>3</octave>
        </pitch>
        <duration>240</duration>
        <voice>1</voice>
        <type>half</type>
      </note>
      <backup>
        <duration>480</duration>
      </backup>
      <note>
        <pitch>
          <step>A</step>
          <octave>3</octave>
        </pitch>
        <duration>240</duration>
        <voice>2</voice>
        <type>half</type>
      </note>
      <note>
        <pitch>
          <step>A</step>
          <octave>2</octave>
        </pitch>
        <duration>240</duration>
        <voice>2</voice>
        <type>half</type>
      </note>
    </measure>
    <measure number="16">
      <note>
        <pitch>
          <step>F</step>
          <alter>1</alter>
          <octave>3</octave>
        </pitch>
        <duration>480</duration>
        <voice>1</voice>
        <type>whole</type>
      </note>
      <barline location="right">
        <bar-style>light-heavy</bar-style>
      </barline>
      <backup>
        <duration>480</duration>
      </backup>
      <note>
        <pitch>
          <step>D</step>
          <octave>3</octave>
        </pitch>
        <duration>480</duration>
        <voice>2</voice>
        <type>whole</type>
      </note>
      <barline location="right">
        <bar-style>light-heavy</bar-style>
      </barline>
    </measure>
  </part>
</score-partwise>
