<?xml version='1.0' encoding='utf-8'?>
<!DOCTYPE score-partwise PUBLIC "-//Recordare//DTD MusicXML 3.0 Partwise//EN" "http://www.musicxml.org/dtds/partwise.dtd">
<score-partwise>
  <work>
    <work-title>Jesus Grant That Balm and Healing</work-title>
  </work>
  <identification>
    <creator type="composer">Words: Johann Heermann, 1644.  Translation composite.
Music: 'Der Am Kreuz' Johann Balthasar König, 1738.  Setting: "Evangelical Lutheran Hymn-Book", 1931.
copyright: public domain.  This score is a part of the Open Hymnal Project, 2008 Revision.</creator>
    <encoding>
      <encoder>abc2xml version 268</encoder>
      <software>https://wim.vree.org/svgParse/abc2xml.html</software>
      <encoding-date>2026-07-21</encoding-date>
    </encoding>
    <source>Music source:  Evangelical Lutheran Hymn Book (LCMS), Edition of 1931 Hymn 194.
This translation (from TLH 1941 Hymn 144) is half-way between that in the ELHB 1931 hymn 194, and LSB 2006 Hymn 421 (marked there as public domain)</source>
    <miscellaneous>
      <miscellaneous-field name="lyrics">6.Jesus, grant that balm and healing In Thy holy wounds I find,
Every hour that I am feeling, Pains of body and of mind.
And when I this world must leave, Grant that, Lord, to Thee I cleave,
In Thy wounds find consolation And obtain my soul's salvation</miscellaneous-field>
    </miscellaneous>
  </identification>
  <defaults>
    <scaling>
      <millimeters>6.351</millimeters>
      <tenths>40</tenths>
    </scaling>
    <page-layout>
      <page-height>1757.2</page-height>
      <page-width>1360.42</page-width>
      <page-margins type="both">
        <left-margin>113.368</left-margin>
        <right-margin>113.368</right-margin>
        <top-margin>62.9822</top-margin>
        <bottom-margin>62.9822</bottom-margin>
      </page-margins>
    </page-layout>
  </defaults>
  <part-list>
    <score-part id="PS1V1">
      <part-name />
    </score-part>
    <score-part id="PS2V1">
      <part-name />
      <score-instrument id="IS2V1-S2V2">
        <instrument-name>acoustic_grand_piano</instrument-name>
      </score-instrument>
      <midi-instrument id="IS2V1-S2V2">
        <midi-channel>4</midi-channel>
        <midi-program>1</midi-program>
      </midi-instrument>
    </score-part>
  </part-list>
  <part id="PS1V1">
    <measure number="1">
      <attributes>
        <divisions>120</divisions>
        <key>
          <fifths>0</fifths>
          <mode>major</mode>
        </key>
        <time>
          <beats>4</beats>
          <beat-type>4</beat-type>
        </time>
        <clef>
          <sign>G</sign>
          <line>2</line>
        </clef>
      </attributes>
      <direction placement="above">
        <direction-type>
          <metronome>
            <beat-unit>quarter</beat-unit>
            <per-minute>100</per-minute>
          </metronome>
        </direction-type>
        <sound tempo="100.00" />
      </direction>
      <note>
        <pitch>
          <step>A</step>
          <octave>4</octave>
        </pitch>
        <duration>120</duration>
        <voice>1</voice>
        <type>quarter</type>
        <lyric number="1">
          <syllabic>begin</syllabic>
          <text>1. Je</text>
        </lyric>
        <lyric number="2">
          <syllabic>single</syllabic>
          <text>2. Should</text>
        </lyric>
        <lyric number="3">
          <syllabic>single</syllabic>
          <text>3. If</text>
        </lyric>
        <lyric number="4">
          <syllabic>begin</syllabic>
          <text>4. Ev</text>
        </lyric>
        <lyric number="5">
          <syllabic>single</syllabic>
          <text>5. O</text>
        </lyric>
      </note>
      <note>
        <pitch>
          <step>E</step>
          <octave>4</octave>
        </pitch>
        <duration>120</duration>
        <voice>1</voice>
        <type>quarter</type>
        <lyric number="1">
          <syllabic>end</syllabic>
          <text>sus,</text>
        </lyric>
        <lyric number="2">
          <syllabic>single</syllabic>
          <text>some</text>
        </lyric>
        <lyric number="3">
          <syllabic>single</syllabic>
          <text>the</text>
        </lyric>
        <lyric number="4">
          <syllabic>end</syllabic>
          <text>ery</text>
        </lyric>
        <lyric number="5">
          <syllabic>single</syllabic>
          <text>my</text>
        </lyric>
      </note>
      <note>
        <pitch>
          <step>A</step>
          <octave>4</octave>
        </pitch>
        <duration>120</duration>
        <voice>1</voice>
        <type>quarter</type>
        <lyric number="1">
          <syllabic>single</syllabic>
          <text>grant</text>
        </lyric>
        <lyric number="2">
          <syllabic>single</syllabic>
          <text>lust</text>
        </lyric>
        <lyric number="3">
          <syllabic>single</syllabic>
          <text>world</text>
        </lyric>
        <lyric number="4">
          <syllabic>single</syllabic>
          <text>wound</text>
        </lyric>
        <lyric number="5">
          <syllabic>single</syllabic>
          <text>God,</text>
        </lyric>
      </note>
      <note>
        <pitch>
          <step>B</step>
          <octave>4</octave>
        </pitch>
        <duration>120</duration>
        <voice>1</voice>
        <type>quarter</type>
        <lyric number="1">
          <syllabic>single</syllabic>
          <text>that</text>
        </lyric>
        <lyric number="2">
          <syllabic>single</syllabic>
          <text>or</text>
        </lyric>
        <lyric number="3">
          <syllabic>single</syllabic>
          <text>my</text>
        </lyric>
        <lyric number="4">
          <syllabic>single</syllabic>
          <text>that</text>
        </lyric>
        <lyric number="5">
          <syllabic>single</syllabic>
          <text>my</text>
        </lyric>
      </note>
      <backup>
        <duration>480</duration>
      </backup>
      <note>
        <pitch>
          <step>E</step>
          <octave>4</octave>
        </pitch>
        <duration>120</duration>
        <voice>2</voice>
        <type>quarter</type>
      </note>
      <note>
        <pitch>
          <step>E</step>
          <octave>4</octave>
        </pitch>
        <duration>120</duration>
        <voice>2</voice>
        <type>quarter</type>
      </note>
      <note>
        <pitch>
          <step>F</step>
          <octave>4</octave>
        </pitch>
        <duration>120</duration>
        <voice>2</voice>
        <type>quarter</type>
      </note>
      <note>
        <pitch>
          <step>F</step>
          <octave>4</octave>
        </pitch>
        <duration>120</duration>
        <voice>2</voice>
        <type>quarter</type>
      </note>
    </measure>
    <measure number="2">
      <note>
        <pitch>
          <step>C</step>
          <octave>5</octave>
        </pitch>
        <duration>120</duration>
        <voice>1</voice>
        <type>quarter</type>
        <lyric number="1">
          <syllabic>single</syllabic>
          <text>balm</text>
        </lyric>
        <lyric number="2">
          <syllabic>single</syllabic>
          <text>sharp</text>
        </lyric>
        <lyric number="3">
          <syllabic>single</syllabic>
          <text>heart</text>
        </lyric>
        <lyric number="4">
          <syllabic>single</syllabic>
          <text>pains</text>
        </lyric>
        <lyric number="5">
          <syllabic>single</syllabic>
          <text>Rock</text>
        </lyric>
      </note>
      <note>
        <pitch>
          <step>B</step>
          <octave>4</octave>
        </pitch>
        <duration>60</duration>
        <voice>1</voice>
        <type>eighth</type>
        <beam number="1">begin</beam>
        <lyric number="1">
          <syllabic>single</syllabic>
          <text>and</text>
        </lyric>
        <lyric number="2">
          <syllabic>begin</syllabic>
          <text>temp</text>
        </lyric>
        <lyric number="3">
          <syllabic>begin</syllabic>
          <text>en</text>
        </lyric>
        <lyric number="4">
          <syllabic>single</syllabic>
          <text>or</text>
        </lyric>
        <lyric number="5">
          <syllabic>single</syllabic>
          <text>and</text>
        </lyric>
      </note>
      <note>
        <pitch>
          <step>A</step>
          <octave>4</octave>
        </pitch>
        <duration>60</duration>
        <voice>1</voice>
        <type>eighth</type>
        <beam number="1">end</beam>
      </note>
      <note>
        <pitch>
          <step>G</step>
          <alter>1</alter>
          <octave>4</octave>
        </pitch>
        <duration>120</duration>
        <voice>1</voice>
        <type>quarter</type>
        <accidental>sharp</accidental>
        <lyric number="1">
          <syllabic>begin</syllabic>
          <text>heal</text>
        </lyric>
        <lyric number="2">
          <syllabic>middle</syllabic>
          <text>ta</text>
        </lyric>
        <lyric number="3">
          <syllabic>middle</syllabic>
          <text>ti</text>
        </lyric>
        <lyric number="4">
          <syllabic>single</syllabic>
          <text>grieves</text>
        </lyric>
        <lyric number="5">
          <syllabic>begin</syllabic>
          <text>To</text>
        </lyric>
      </note>
      <note>
        <pitch>
          <step>E</step>
          <octave>4</octave>
        </pitch>
        <duration>120</duration>
        <voice>1</voice>
        <type>quarter</type>
        <lyric number="1">
          <syllabic>end</syllabic>
          <text>ing</text>
        </lyric>
        <lyric number="2">
          <syllabic>end</syllabic>
          <text>tion</text>
        </lyric>
        <lyric number="3">
          <syllabic>end</syllabic>
          <text>ces</text>
        </lyric>
        <lyric number="4">
          <syllabic>single</syllabic>
          <text>me,</text>
        </lyric>
        <lyric number="5">
          <syllabic>end</syllabic>
          <text>wer,</text>
        </lyric>
      </note>
      <backup>
        <duration>480</duration>
      </backup>
      <note>
        <pitch>
          <step>G</step>
          <octave>4</octave>
        </pitch>
        <duration>120</duration>
        <voice>2</voice>
        <type>quarter</type>
      </note>
      <note>
        <pitch>
          <step>F</step>
          <octave>4</octave>
        </pitch>
        <duration>120</duration>
        <voice>2</voice>
        <type>quarter</type>
      </note>
      <note>
        <pitch>
          <step>E</step>
          <octave>4</octave>
        </pitch>
        <duration>120</duration>
        <voice>2</voice>
        <type>quarter</type>
      </note>
      <note>
        <pitch>
          <step>E</step>
          <octave>4</octave>
        </pitch>
        <duration>120</duration>
        <voice>2</voice>
        <type>quarter</type>
      </note>
    </measure>
    <measure number="3">
      <note>
        <pitch>
          <step>B</step>
          <octave>4</octave>
        </pitch>
        <duration>120</duration>
        <voice>1</voice>
        <type>quarter</type>
        <lyric number="1">
          <syllabic>single</syllabic>
          <text>In</text>
        </lyric>
        <lyric number="2">
          <syllabic>single</syllabic>
          <text>Prove</text>
        </lyric>
        <lyric number="3">
          <syllabic>single</syllabic>
          <text>On</text>
        </lyric>
        <lyric number="4">
          <syllabic>single</syllabic>
          <text>By</text>
        </lyric>
        <lyric number="5">
          <syllabic>single</syllabic>
          <text>Grant</text>
        </lyric>
      </note>
      <note>
        <pitch>
          <step>C</step>
          <octave>5</octave>
        </pitch>
        <duration>120</duration>
        <voice>1</voice>
        <type>quarter</type>
        <lyric number="1">
          <syllabic>single</syllabic>
          <text>Thy</text>
        </lyric>
        <lyric number="2">
          <syllabic>single</syllabic>
          <text>too</text>
        </lyric>
        <lyric number="3">
          <syllabic>single</syllabic>
          <text>the</text>
        </lyric>
        <lyric number="4">
          <syllabic>single</syllabic>
          <text>Thy</text>
        </lyric>
        <lyric number="5">
          <syllabic>single</syllabic>
          <text>that</text>
        </lyric>
      </note>
      <note>
        <pitch>
          <step>D</step>
          <octave>5</octave>
        </pitch>
        <duration>120</duration>
        <voice>1</voice>
        <type>quarter</type>
        <lyric number="1">
          <syllabic>begin</syllabic>
          <text>ho</text>
        </lyric>
        <lyric number="2">
          <syllabic>single</syllabic>
          <text>strong</text>
        </lyric>
        <lyric number="3">
          <syllabic>single</syllabic>
          <text>broad</text>
        </lyric>
        <lyric number="4">
          <syllabic>single</syllabic>
          <text>stripes,</text>
        </lyric>
        <lyric number="5">
          <syllabic>single</syllabic>
          <text>in</text>
        </lyric>
      </note>
      <note>
        <pitch>
          <step>C</step>
          <octave>5</octave>
        </pitch>
        <duration>120</duration>
        <voice>1</voice>
        <type>quarter</type>
        <lyric number="1">
          <syllabic>end</syllabic>
          <text>ly</text>
        </lyric>
        <lyric number="2">
          <syllabic>single</syllabic>
          <text>for</text>
        </lyric>
        <lyric number="3">
          <syllabic>single</syllabic>
          <text>and</text>
        </lyric>
        <lyric number="4">
          <syllabic>single</syllabic>
          <text>Lord,</text>
        </lyric>
        <lyric number="5">
          <syllabic>single</syllabic>
          <text>Thy</text>
        </lyric>
      </note>
      <backup>
        <duration>480</duration>
      </backup>
      <note>
        <pitch>
          <step>E</step>
          <octave>4</octave>
        </pitch>
        <duration>120</duration>
        <voice>2</voice>
        <type>quarter</type>
      </note>
      <note>
        <pitch>
          <step>E</step>
          <octave>4</octave>
        </pitch>
        <duration>120</duration>
        <voice>2</voice>
        <type>quarter</type>
      </note>
      <note>
        <pitch>
          <step>A</step>
          <octave>4</octave>
        </pitch>
        <duration>120</duration>
        <voice>2</voice>
        <type>quarter</type>
      </note>
      <note>
        <pitch>
          <step>A</step>
          <octave>4</octave>
        </pitch>
        <duration>120</duration>
        <voice>2</voice>
        <type>quarter</type>
      </note>
    </measure>
    <measure number="4">
      <note>
        <pitch>
          <step>B</step>
          <octave>4</octave>
        </pitch>
        <duration>120</duration>
        <voice>1</voice>
        <type>quarter</type>
        <lyric number="1">
          <syllabic>single</syllabic>
          <text>wounds</text>
        </lyric>
        <lyric number="2">
          <syllabic>single</syllabic>
          <text>flesh</text>
        </lyric>
        <lyric number="3">
          <syllabic>begin</syllabic>
          <text>ea</text>
        </lyric>
        <lyric number="4">
          <syllabic>single</syllabic>
          <text>is</text>
        </lyric>
        <lyric number="5">
          <syllabic>single</syllabic>
          <text>death</text>
        </lyric>
      </note>
      <note>
        <pitch>
          <step>B</step>
          <octave>4</octave>
        </pitch>
        <duration>120</duration>
        <voice>1</voice>
        <type>quarter</type>
        <lyric number="1">
          <syllabic>single</syllabic>
          <text>I</text>
        </lyric>
        <lyric number="2">
          <syllabic>single</syllabic>
          <text>and</text>
        </lyric>
        <lyric number="3">
          <syllabic>end</syllabic>
          <text>sy</text>
        </lyric>
        <lyric number="4">
          <syllabic>single</syllabic>
          <text>made</text>
        </lyric>
        <lyric number="5">
          <syllabic>single</syllabic>
          <text>I</text>
        </lyric>
      </note>
      <note>
        <pitch>
          <step>A</step>
          <octave>4</octave>
        </pitch>
        <duration>240</duration>
        <voice>1</voice>
        <type>half</type>
        <lyric number="1">
          <syllabic>single</syllabic>
          <text>find,</text>
        </lyric>
        <lyric number="2">
          <syllabic>single</syllabic>
          <text>blood,</text>
        </lyric>
        <lyric number="3">
          <syllabic>single</syllabic>
          <text>road</text>
        </lyric>
        <lyric number="4">
          <syllabic>single</syllabic>
          <text>whole;</text>
        </lyric>
        <lyric number="5">
          <syllabic>single</syllabic>
          <text>trust,</text>
        </lyric>
      </note>
      <backup>
        <duration>480</duration>
      </backup>
      <note>
        <pitch>
          <step>A</step>
          <octave>4</octave>
        </pitch>
        <duration>120</duration>
        <voice>2</voice>
        <type>quarter</type>
      </note>
      <note>
        <pitch>
          <step>G</step>
          <alter>1</alter>
          <octave>4</octave>
        </pitch>
        <duration>120</duration>
        <voice>2</voice>
        <type>quarter</type>
        <accidental>sharp</accidental>
      </note>
      <note>
        <pitch>
          <step>A</step>
          <octave>4</octave>
        </pitch>
        <duration>240</duration>
        <voice>2</voice>
        <type>half</type>
      </note>
    </measure>
    <measure number="5">
      <note>
        <pitch>
          <step>A</step>
          <octave>4</octave>
        </pitch>
        <duration>120</duration>
        <voice>1</voice>
        <type>quarter</type>
        <lyric number="1">
          <syllabic>begin</syllabic>
          <text>E</text>
        </lyric>
        <lyric number="2">
          <syllabic>single</syllabic>
          <text>Let</text>
        </lyric>
        <lyric number="3">
          <syllabic>single</syllabic>
          <text>With</text>
        </lyric>
        <lyric number="4">
          <syllabic>single</syllabic>
          <text>When</text>
        </lyric>
        <lyric number="5">
          <syllabic>begin</syllabic>
          <text>Know</text>
        </lyric>
      </note>
      <note>
        <pitch>
          <step>E</step>
          <octave>4</octave>
        </pitch>
        <duration>120</duration>
        <voice>1</voice>
        <type>quarter</type>
        <lyric number="1">
          <syllabic>end</syllabic>
          <text>very</text>
        </lyric>
        <lyric number="2">
          <syllabic>single</syllabic>
          <text>me</text>
        </lyric>
        <lyric number="3">
          <syllabic>single</syllabic>
          <text>its</text>
        </lyric>
        <lyric number="4">
          <syllabic>single</syllabic>
          <text>I'm</text>
        </lyric>
        <lyric number="5">
          <syllabic>end</syllabic>
          <text>ing</text>
        </lyric>
      </note>
      <note>
        <pitch>
          <step>A</step>
          <octave>4</octave>
        </pitch>
        <duration>120</duration>
        <voice>1</voice>
        <type>quarter</type>
        <lyric number="1">
          <syllabic>single</syllabic>
          <text>hour</text>
        </lyric>
        <lyric number="2">
          <syllabic>single</syllabic>
          <text>think</text>
        </lyric>
        <lyric number="3">
          <syllabic>single</syllabic>
          <text>mirth</text>
        </lyric>
        <lyric number="4">
          <syllabic>single</syllabic>
          <text>faint,</text>
        </lyric>
        <lyric number="5">
          <syllabic>single</syllabic>
          <text>death</text>
        </lyric>
      </note>
      <note>
        <pitch>
          <step>B</step>
          <octave>4</octave>
        </pitch>
        <duration>120</duration>
        <voice>1</voice>
        <type>quarter</type>
        <lyric number="1">
          <syllabic>single</syllabic>
          <text>that</text>
        </lyric>
        <lyric number="2">
          <syllabic>begin</syllabic>
          <text>up</text>
        </lyric>
        <lyric number="3">
          <syllabic>single</syllabic>
          <text>and</text>
        </lyric>
        <lyric number="4">
          <syllabic>single</syllabic>
          <text>Thy</text>
        </lyric>
        <lyric number="5">
          <syllabic>single</syllabic>
          <text>has</text>
        </lyric>
      </note>
      <backup>
        <duration>480</duration>
      </backup>
      <note>
        <pitch>
          <step>E</step>
          <octave>4</octave>
        </pitch>
        <duration>120</duration>
        <voice>2</voice>
        <type>quarter</type>
      </note>
      <note>
        <pitch>
          <step>E</step>
          <octave>4</octave>
        </pitch>
        <duration>120</duration>
        <voice>2</voice>
        <type>quarter</type>
      </note>
      <note>
        <pitch>
          <step>F</step>
          <octave>4</octave>
        </pitch>
        <duration>120</duration>
        <voice>2</voice>
        <type>quarter</type>
      </note>
      <note>
        <pitch>
          <step>F</step>
          <octave>4</octave>
        </pitch>
        <duration>120</duration>
        <voice>2</voice>
        <type>quarter</type>
      </note>
    </measure>
    <measure number="6">
      <note>
        <pitch>
          <step>C</step>
          <octave>5</octave>
        </pitch>
        <duration>120</duration>
        <voice>1</voice>
        <type>quarter</type>
        <lyric number="1">
          <syllabic>single</syllabic>
          <text>I</text>
        </lyric>
        <lyric number="2">
          <syllabic>end</syllabic>
          <text>on</text>
        </lyric>
        <lyric number="3">
          <syllabic>begin</syllabic>
          <text>lur</text>
        </lyric>
        <lyric number="4">
          <syllabic>single</syllabic>
          <text>cross</text>
        </lyric>
        <lyric number="5">
          <syllabic>single</syllabic>
          <text>lost</text>
        </lyric>
      </note>
      <note>
        <pitch>
          <step>B</step>
          <octave>4</octave>
        </pitch>
        <duration>60</duration>
        <voice>1</voice>
        <type>eighth</type>
        <beam number="1">begin</beam>
        <lyric number="1">
          <syllabic>single</syllabic>
          <text>am</text>
        </lyric>
        <lyric number="2">
          <syllabic>single</syllabic>
          <text>Thy</text>
        </lyric>
        <lyric number="3">
          <syllabic>end</syllabic>
          <text>ing</text>
        </lyric>
        <lyric number="4">
          <syllabic>begin</syllabic>
          <text>re</text>
        </lyric>
        <lyric number="5">
          <syllabic>single</syllabic>
          <text>his</text>
        </lyric>
      </note>
      <note>
        <pitch>
          <step>A</step>
          <octave>4</octave>
        </pitch>
        <duration>60</duration>
        <voice>1</voice>
        <type>eighth</type>
        <beam number="1">end</beam>
      </note>
      <note>
        <pitch>
          <step>G</step>
          <alter>1</alter>
          <octave>4</octave>
        </pitch>
        <duration>120</duration>
        <voice>1</voice>
        <type>quarter</type>
        <accidental>sharp</accidental>
        <lyric number="1">
          <syllabic>begin</syllabic>
          <text>feel</text>
        </lyric>
        <lyric number="2">
          <syllabic>begin</syllabic>
          <text>Pas</text>
        </lyric>
        <lyric number="3">
          <syllabic>begin</syllabic>
          <text>vic</text>
        </lyric>
        <lyric number="4">
          <syllabic>end</syllabic>
          <text>vives</text>
        </lyric>
        <lyric number="5">
          <syllabic>begin</syllabic>
          <text>po</text>
        </lyric>
      </note>
      <note>
        <pitch>
          <step>E</step>
          <octave>4</octave>
        </pitch>
        <duration>120</duration>
        <voice>1</voice>
        <type>quarter</type>
        <lyric number="1">
          <syllabic>end</syllabic>
          <text>ing,</text>
        </lyric>
        <lyric number="2">
          <syllabic>end</syllabic>
          <text>sion,</text>
        </lyric>
        <lyric number="3">
          <syllabic>end</syllabic>
          <text>es,</text>
        </lyric>
        <lyric number="4">
          <syllabic>single</syllabic>
          <text>me,</text>
        </lyric>
        <lyric number="5">
          <syllabic>end</syllabic>
          <text>wer</text>
        </lyric>
      </note>
      <backup>
        <duration>480</duration>
      </backup>
      <note>
        <pitch>
          <step>G</step>
          <octave>4</octave>
        </pitch>
        <duration>120</duration>
        <voice>2</voice>
        <type>quarter</type>
      </note>
      <note>
        <pitch>
          <step>F</step>
          <octave>4</octave>
        </pitch>
        <duration>120</duration>
        <voice>2</voice>
        <type>quarter</type>
      </note>
      <note>
        <pitch>
          <step>E</step>
          <octave>4</octave>
        </pitch>
        <duration>120</duration>
        <voice>2</voice>
        <type>quarter</type>
      </note>
      <note>
        <pitch>
          <step>E</step>
          <octave>4</octave>
        </pitch>
        <duration>120</duration>
        <voice>2</voice>
        <type>quarter</type>
      </note>
    </measure>
    <measure number="7">
      <note>
        <pitch>
          <step>B</step>
          <octave>4</octave>
        </pitch>
        <duration>120</duration>
        <voice>1</voice>
        <type>quarter</type>
        <lyric number="1">
          <syllabic>single</syllabic>
          <text>Pains</text>
        </lyric>
        <lyric number="2">
          <syllabic>single</syllabic>
          <text>And</text>
        </lyric>
        <lyric number="3">
          <syllabic>single</syllabic>
          <text>Let</text>
        </lyric>
        <lyric number="4">
          <syllabic>begin</syllabic>
          <text>Grant</text>
        </lyric>
        <lyric number="5">
          <syllabic>single</syllabic>
          <text>Since</text>
        </lyric>
      </note>
      <note>
        <pitch>
          <step>C</step>
          <octave>5</octave>
        </pitch>
        <duration>120</duration>
        <voice>1</voice>
        <type>quarter</type>
        <lyric number="1">
          <syllabic>single</syllabic>
          <text>of</text>
        </lyric>
        <lyric number="2">
          <syllabic>single</syllabic>
          <text>the</text>
        </lyric>
        <lyric number="3">
          <syllabic>single</syllabic>
          <text>me</text>
        </lyric>
        <lyric number="4">
          <syllabic>end</syllabic>
          <text>ing</text>
        </lyric>
        <lyric number="5">
          <syllabic>single</syllabic>
          <text>Thou</text>
        </lyric>
      </note>
      <note>
        <pitch>
          <step>D</step>
          <octave>5</octave>
        </pitch>
        <duration>120</duration>
        <voice>1</voice>
        <type>quarter</type>
        <lyric number="1">
          <syllabic>begin</syllabic>
          <text>bo</text>
        </lyric>
        <lyric number="2">
          <syllabic>single</syllabic>
          <text>breach</text>
        </lyric>
        <lyric number="3">
          <syllabic>single</syllabic>
          <text>think</text>
        </lyric>
        <lyric number="4">
          <syllabic>single</syllabic>
          <text>new</text>
        </lyric>
        <lyric number="5">
          <syllabic>single</syllabic>
          <text>trodd'st</text>
        </lyric>
      </note>
      <note>
        <pitch>
          <step>C</step>
          <octave>5</octave>
        </pitch>
        <duration>120</duration>
        <voice>1</voice>
        <type>quarter</type>
        <lyric number="1">
          <syllabic>end</syllabic>
          <text>dy</text>
        </lyric>
        <lyric number="2">
          <syllabic>single</syllabic>
          <text>is</text>
        </lyric>
        <lyric number="3">
          <syllabic>begin</syllabic>
          <text>up</text>
        </lyric>
        <lyric number="4">
          <syllabic>single</syllabic>
          <text>life</text>
        </lyric>
        <lyric number="5">
          <syllabic>single</syllabic>
          <text>him</text>
        </lyric>
      </note>
      <backup>
        <duration>480</duration>
      </backup>
      <note>
        <pitch>
          <step>E</step>
          <octave>4</octave>
        </pitch>
        <duration>120</duration>
        <voice>2</voice>
        <type>quarter</type>
      </note>
      <note>
        <pitch>
          <step>E</step>
          <octave>4</octave>
        </pitch>
        <duration>120</duration>
        <voice>2</voice>
        <type>quarter</type>
      </note>
      <note>
        <pitch>
          <step>A</step>
          <octave>4</octave>
        </pitch>
        <duration>120</duration>
        <voice>2</voice>
        <type>quarter</type>
      </note>
      <note>
        <pitch>
          <step>A</step>
          <octave>4</octave>
        </pitch>
        <duration>120</duration>
        <voice>2</voice>
        <type>quarter</type>
      </note>
    </measure>
    <measure number="8">
      <note>
        <pitch>
          <step>B</step>
          <octave>4</octave>
        </pitch>
        <duration>120</duration>
        <voice>1</voice>
        <type>quarter</type>
        <lyric number="1">
          <syllabic>single</syllabic>
          <text>and</text>
        </lyric>
        <lyric number="2">
          <syllabic>single</syllabic>
          <text>soon</text>
        </lyric>
        <lyric number="3">
          <syllabic>end</syllabic>
          <text>on</text>
        </lyric>
        <lyric number="4">
          <syllabic>single</syllabic>
          <text>to</text>
        </lyric>
        <lyric number="5">
          <syllabic>single</syllabic>
          <text>in</text>
        </lyric>
      </note>
      <note>
        <pitch>
          <step>B</step>
          <octave>4</octave>
        </pitch>
        <duration>120</duration>
        <voice>1</voice>
        <type>quarter</type>
        <lyric number="1">
          <syllabic>single</syllabic>
          <text>of</text>
        </lyric>
        <lyric number="2">
          <syllabic>single</syllabic>
          <text>made</text>
        </lyric>
        <lyric number="3">
          <syllabic>single</syllabic>
          <text>the</text>
        </lyric>
        <lyric number="4">
          <syllabic>single</syllabic>
          <text>my</text>
        </lyric>
        <lyric number="5">
          <syllabic>single</syllabic>
          <text>the</text>
        </lyric>
      </note>
      <note>
        <pitch>
          <step>A</step>
          <octave>4</octave>
        </pitch>
        <duration>240</duration>
        <voice>1</voice>
        <type>half</type>
        <lyric number="1">
          <syllabic>single</syllabic>
          <text>mind.</text>
        </lyric>
        <lyric number="2">
          <syllabic>single</syllabic>
          <text>good.</text>
        </lyric>
        <lyric number="3">
          <syllabic>single</syllabic>
          <text>load</text>
        </lyric>
        <lyric number="4">
          <syllabic>single</syllabic>
          <text>soul.</text>
        </lyric>
        <lyric number="5">
          <syllabic>single</syllabic>
          <text>dust.</text>
        </lyric>
      </note>
      <backup>
        <duration>480</duration>
      </backup>
      <note>
        <pitch>
          <step>A</step>
          <octave>4</octave>
        </pitch>
        <duration>120</duration>
        <voice>2</voice>
        <type>quarter</type>
      </note>
      <note>
        <pitch>
          <step>G</step>
          <alter>1</alter>
          <octave>4</octave>
        </pitch>
        <duration>120</duration>
        <voice>2</voice>
        <type>quarter</type>
        <accidental>sharp</accidental>
      </note>
      <note>
        <pitch>
          <step>A</step>
          <octave>4</octave>
        </pitch>
        <duration>240</duration>
        <voice>2</voice>
        <type>half</type>
      </note>
    </measure>
    <measure number="9">
      <note>
        <pitch>
          <step>G</step>
          <octave>4</octave>
        </pitch>
        <duration>120</duration>
        <voice>1</voice>
        <type>quarter</type>
        <lyric number="1">
          <syllabic>single</syllabic>
          <text>Should</text>
        </lyric>
        <lyric number="2">
          <syllabic>single</syllabic>
          <text>Or</text>
        </lyric>
        <lyric number="3">
          <syllabic>single</syllabic>
          <text>Thou</text>
        </lyric>
        <lyric number="4">
          <syllabic>single</syllabic>
          <text>Yea,</text>
        </lyric>
        <lyric number="5">
          <syllabic>begin</syllabic>
          <text>Sa</text>
        </lyric>
      </note>
      <note>
        <pitch>
          <step>G</step>
          <octave>4</octave>
        </pitch>
        <duration>120</duration>
        <voice>1</voice>
        <type>quarter</type>
        <lyric number="1">
          <syllabic>single</syllabic>
          <text>some</text>
        </lyric>
        <lyric number="2">
          <syllabic>single</syllabic>
          <text>should</text>
        </lyric>
        <lyric number="3">
          <syllabic>single</syllabic>
          <text>didst</text>
        </lyric>
        <lyric number="4">
          <syllabic>single</syllabic>
          <text>Thy</text>
        </lyric>
        <lyric number="5">
          <syllabic>end</syllabic>
          <text>vior,</text>
        </lyric>
      </note>
      <note>
        <pitch>
          <step>G</step>
          <octave>4</octave>
        </pitch>
        <duration>120</duration>
        <voice>1</voice>
        <type>quarter</type>
        <lyric number="1">
          <syllabic>begin</syllabic>
          <text>e</text>
        </lyric>
        <lyric number="2">
          <syllabic>begin</syllabic>
          <text>Sa</text>
        </lyric>
        <lyric number="3">
          <syllabic>begin</syllabic>
          <text>car</text>
        </lyric>
        <lyric number="4">
          <syllabic>begin</syllabic>
          <text>com</text>
        </lyric>
        <lyric number="5">
          <syllabic>single</syllabic>
          <text>let</text>
        </lyric>
      </note>
      <note>
        <pitch>
          <step>E</step>
          <octave>4</octave>
        </pitch>
        <duration>120</duration>
        <voice>1</voice>
        <type>quarter</type>
        <lyric number="1">
          <syllabic>end</syllabic>
          <text>vil</text>
        </lyric>
        <lyric number="2">
          <syllabic>end</syllabic>
          <text>tan</text>
        </lyric>
        <lyric number="3">
          <syllabic>end</syllabic>
          <text>ry</text>
        </lyric>
        <lyric number="4">
          <syllabic>end</syllabic>
          <text>fort</text>
        </lyric>
        <lyric number="5">
          <syllabic>single</syllabic>
          <text>Thine</text>
        </lyric>
      </note>
      <backup>
        <duration>480</duration>
      </backup>
      <note>
        <pitch>
          <step>E</step>
          <octave>4</octave>
        </pitch>
        <duration>120</duration>
        <voice>2</voice>
        <type>quarter</type>
      </note>
      <note>
        <pitch>
          <step>D</step>
          <octave>4</octave>
        </pitch>
        <duration>120</duration>
        <voice>2</voice>
        <type>quarter</type>
      </note>
      <note>
        <pitch>
          <step>E</step>
          <octave>4</octave>
        </pitch>
        <duration>120</duration>
        <voice>2</voice>
        <type>quarter</type>
      </note>
      <note>
        <pitch>
          <step>C</step>
          <octave>4</octave>
        </pitch>
        <duration>120</duration>
        <voice>2</voice>
        <type>quarter</type>
      </note>
    </measure>
    <measure number="10">
      <note>
        <pitch>
          <step>F</step>
          <octave>4</octave>
        </pitch>
        <duration>120</duration>
        <voice>1</voice>
        <type>quarter</type>
        <lyric number="1">
          <syllabic>single</syllabic>
          <text>thought</text>
        </lyric>
        <lyric number="2">
          <syllabic>single</syllabic>
          <text>press</text>
        </lyric>
        <lyric number="3">
          <syllabic>single</syllabic>
          <text>and</text>
        </lyric>
        <lyric number="4">
          <syllabic>begin</syllabic>
          <text>ren</text>
        </lyric>
        <lyric number="5">
          <syllabic>begin</syllabic>
          <text>a</text>
        </lyric>
      </note>
      <note>
        <pitch>
          <step>G</step>
          <octave>4</octave>
        </pitch>
        <duration>120</duration>
        <voice>1</voice>
        <type>quarter</type>
        <lyric number="1">
          <syllabic>begin</syllabic>
          <text>with</text>
        </lyric>
        <lyric number="2">
          <syllabic>single</syllabic>
          <text>me</text>
        </lyric>
        <lyric number="3">
          <syllabic>begin</syllabic>
          <text>en</text>
        </lyric>
        <lyric number="4">
          <syllabic>end</syllabic>
          <text>ders</text>
        </lyric>
        <lyric number="5">
          <syllabic>middle</syllabic>
          <text>gon</text>
        </lyric>
      </note>
      <note>
        <pitch>
          <step>A</step>
          <octave>4</octave>
        </pitch>
        <duration>240</duration>
        <voice>1</voice>
        <type>half</type>
        <lyric number="1">
          <syllabic>end</syllabic>
          <text>in</text>
        </lyric>
        <lyric number="2">
          <syllabic>single</syllabic>
          <text>hard,</text>
        </lyric>
        <lyric number="3">
          <syllabic>end</syllabic>
          <text>dure</text>
        </lyric>
        <lyric number="4">
          <syllabic>single</syllabic>
          <text>sweet</text>
        </lyric>
        <lyric number="5">
          <syllabic>end</syllabic>
          <text>y</text>
        </lyric>
      </note>
      <backup>
        <duration>480</duration>
      </backup>
      <note>
        <pitch>
          <step>C</step>
          <octave>4</octave>
        </pitch>
        <duration>60</duration>
        <voice>2</voice>
        <type>eighth</type>
        <beam number="1">begin</beam>
      </note>
      <note>
        <pitch>
          <step>D</step>
          <octave>4</octave>
        </pitch>
        <duration>60</duration>
        <voice>2</voice>
        <type>eighth</type>
        <beam number="1">end</beam>
      </note>
      <note>
        <pitch>
          <step>E</step>
          <octave>4</octave>
        </pitch>
        <duration>120</duration>
        <voice>2</voice>
        <type>quarter</type>
      </note>
      <note>
        <pitch>
          <step>F</step>
          <octave>4</octave>
        </pitch>
        <duration>240</duration>
        <voice>2</voice>
        <type>half</type>
      </note>
    </measure>
    <measure number="11">
      <note>
        <pitch>
          <step>G</step>
          <octave>4</octave>
        </pitch>
        <duration>120</duration>
        <voice>1</voice>
        <type>quarter</type>
        <lyric number="1">
          <syllabic>single</syllabic>
          <text>Tempt</text>
        </lyric>
        <lyric number="2">
          <syllabic>single</syllabic>
          <text>Let</text>
        </lyric>
        <lyric number="3">
          <syllabic>single</syllabic>
          <text>That</text>
        </lyric>
        <lyric number="4">
          <syllabic>begin</syllabic>
          <text>Ev</text>
        </lyric>
        <lyric number="5">
          <syllabic>begin</syllabic>
          <text>Ev</text>
        </lyric>
      </note>
      <note>
        <pitch>
          <step>G</step>
          <octave>4</octave>
        </pitch>
        <duration>120</duration>
        <voice>1</voice>
        <type>quarter</type>
        <lyric number="1">
          <syllabic>single</syllabic>
          <text>my</text>
        </lyric>
        <lyric number="2">
          <syllabic>single</syllabic>
          <text>me</text>
        </lyric>
        <lyric number="3">
          <syllabic>single</syllabic>
          <text>I</text>
        </lyric>
        <lyric number="4">
          <syllabic>end</syllabic>
          <text>ery</text>
        </lyric>
        <lyric number="5">
          <syllabic>end</syllabic>
          <text>er</text>
        </lyric>
      </note>
      <note>
        <pitch>
          <step>F</step>
          <octave>4</octave>
        </pitch>
        <duration>120</duration>
        <voice>1</voice>
        <type>quarter</type>
        <lyric number="1">
          <syllabic>begin</syllabic>
          <text>treach</text>
        </lyric>
        <lyric number="2">
          <syllabic>single</syllabic>
          <text>then</text>
        </lyric>
        <lyric number="3">
          <syllabic>single</syllabic>
          <text>flee</text>
        </lyric>
        <lyric number="4">
          <syllabic>begin</syllabic>
          <text>bit</text>
        </lyric>
        <lyric number="5">
          <syllabic>single</syllabic>
          <text>help</text>
        </lyric>
      </note>
      <note>
        <pitch>
          <step>E</step>
          <octave>4</octave>
        </pitch>
        <duration>120</duration>
        <voice>1</voice>
        <type>quarter</type>
        <lyric number="1">
          <syllabic>end</syllabic>
          <text>erous</text>
        </lyric>
        <lyric number="2">
          <syllabic>single</syllabic>
          <text>be</text>
        </lyric>
        <lyric number="3">
          <syllabic>single</syllabic>
          <text>all</text>
        </lyric>
        <lyric number="4">
          <syllabic>end</syllabic>
          <text>ter</text>
        </lyric>
        <lyric number="5">
          <syllabic>single</syllabic>
          <text>and</text>
        </lyric>
      </note>
      <backup>
        <duration>480</duration>
      </backup>
      <note>
        <pitch>
          <step>E</step>
          <octave>4</octave>
        </pitch>
        <duration>120</duration>
        <voice>2</voice>
        <type>quarter</type>
      </note>
      <note>
        <pitch>
          <step>D</step>
          <octave>4</octave>
        </pitch>
        <duration>120</duration>
        <voice>2</voice>
        <type>quarter</type>
      </note>
      <note>
        <pitch>
          <step>C</step>
          <octave>4</octave>
        </pitch>
        <duration>120</duration>
        <voice>2</voice>
        <type>quarter</type>
      </note>
      <note>
        <pitch>
          <step>C</step>
          <octave>4</octave>
        </pitch>
        <duration>120</duration>
        <voice>2</voice>
        <type>quarter</type>
      </note>
    </measure>
    <measure number="12">
      <note>
        <pitch>
          <step>D</step>
          <octave>4</octave>
        </pitch>
        <duration>120</duration>
        <voice>1</voice>
        <type>quarter</type>
        <lyric number="1">
          <syllabic>single</syllabic>
          <text>heart</text>
        </lyric>
        <lyric number="2">
          <syllabic>single</syllabic>
          <text>on</text>
        </lyric>
        <lyric number="3">
          <syllabic>single</syllabic>
          <text>thoughts</text>
        </lyric>
        <lyric number="4">
          <syllabic>single</syllabic>
          <text>cup</text>
        </lyric>
        <lyric number="5">
          <syllabic>begin</syllabic>
          <text>com</text>
        </lyric>
      </note>
      <note>
        <pitch>
          <step>D</step>
          <octave>4</octave>
        </pitch>
        <duration>120</duration>
        <voice>1</voice>
        <type>quarter</type>
        <lyric number="1">
          <syllabic>single</syllabic>
          <text>to</text>
        </lyric>
        <lyric number="2">
          <syllabic>single</syllabic>
          <text>my</text>
        </lyric>
        <lyric number="3">
          <syllabic>begin</syllabic>
          <text>im</text>
        </lyric>
        <lyric number="4">
          <syllabic>single</syllabic>
          <text>I</text>
        </lyric>
        <lyric number="5">
          <syllabic>end</syllabic>
          <text>fort</text>
        </lyric>
      </note>
      <note>
        <pitch>
          <step>C</step>
          <octave>4</octave>
        </pitch>
        <duration>240</duration>
        <voice>1</voice>
        <type>half</type>
        <lyric number="1">
          <syllabic>single</syllabic>
          <text>sin,</text>
        </lyric>
        <lyric number="2">
          <syllabic>single</syllabic>
          <text>guard,</text>
        </lyric>
        <lyric number="3">
          <syllabic>end</syllabic>
          <text>pure,</text>
        </lyric>
        <lyric number="4">
          <syllabic>single</syllabic>
          <text>meet;</text>
        </lyric>
        <lyric number="5">
          <syllabic>single</syllabic>
          <text>me;</text>
        </lyric>
      </note>
      <backup>
        <duration>480</duration>
      </backup>
      <note>
        <pitch>
          <step>C</step>
          <octave>4</octave>
        </pitch>
        <duration>120</duration>
        <voice>2</voice>
        <type>quarter</type>
      </note>
      <note>
        <pitch>
          <step>B</step>
          <octave>3</octave>
        </pitch>
        <duration>120</duration>
        <voice>2</voice>
        <type>quarter</type>
      </note>
      <note>
        <pitch>
          <step>C</step>
          <octave>4</octave>
        </pitch>
        <duration>240</duration>
        <voice>2</voice>
        <type>half</type>
      </note>
    </measure>
    <measure number="13">
      <note>
        <pitch>
          <step>C</step>
          <octave>5</octave>
        </pitch>
        <duration>120</duration>
        <voice>1</voice>
        <type>quarter</type>
        <lyric number="1">
          <syllabic>single</syllabic>
          <text>Show</text>
        </lyric>
        <lyric number="2">
          <syllabic>begin</syllabic>
          <text>Say</text>
        </lyric>
        <lyric number="3">
          <syllabic>begin</syllabic>
          <text>Ba</text>
        </lyric>
        <lyric number="4">
          <syllabic>single</syllabic>
          <text>For</text>
        </lyric>
        <lyric number="5">
          <syllabic>single</syllabic>
          <text>When</text>
        </lyric>
      </note>
      <note>
        <pitch>
          <step>C</step>
          <octave>5</octave>
        </pitch>
        <duration>120</duration>
        <voice>1</voice>
        <type>quarter</type>
        <lyric number="1">
          <syllabic>single</syllabic>
          <text>the</text>
        </lyric>
        <lyric number="2">
          <syllabic>end</syllabic>
          <text>ing,</text>
        </lyric>
        <lyric number="3">
          <syllabic>middle</syllabic>
          <text>nish</text>
        </lyric>
        <lyric number="4">
          <syllabic>single</syllabic>
          <text>Thy</text>
        </lyric>
        <lyric number="5">
          <syllabic>single</syllabic>
          <text>I</text>
        </lyric>
      </note>
      <note>
        <pitch>
          <step>B</step>
          <octave>4</octave>
        </pitch>
        <duration>120</duration>
        <voice>1</voice>
        <type>quarter</type>
        <lyric number="1">
          <syllabic>begin</syllabic>
          <text>per</text>
        </lyric>
        <lyric number="2">
          <syllabic>single</syllabic>
          <text>"Christ</text>
        </lyric>
        <lyric number="3">
          <syllabic>end</syllabic>
          <text>ing</text>
        </lyric>
        <lyric number="4">
          <syllabic>single</syllabic>
          <text>all</text>
        </lyric>
        <lyric number="5">
          <syllabic>single</syllabic>
          <text>die,</text>
        </lyric>
      </note>
      <note>
        <pitch>
          <step>B</step>
          <octave>4</octave>
        </pitch>
        <duration>120</duration>
        <voice>1</voice>
        <type>quarter</type>
        <lyric number="1">
          <syllabic>end</syllabic>
          <text>il,</text>
        </lyric>
        <lyric number="2">
          <syllabic>single</syllabic>
          <text>for</text>
        </lyric>
        <lyric number="3">
          <syllabic>single</syllabic>
          <text>each</text>
        </lyric>
        <lyric number="4">
          <syllabic>begin</syllabic>
          <text>a</text>
        </lyric>
        <lyric number="5">
          <syllabic>single</syllabic>
          <text>be</text>
        </lyric>
      </note>
      <backup>
        <duration>480</duration>
      </backup>
      <note>
        <pitch>
          <step>G</step>
          <octave>4</octave>
        </pitch>
        <duration>120</duration>
        <voice>2</voice>
        <type>quarter</type>
      </note>
      <note>
        <pitch>
          <step>A</step>
          <octave>4</octave>
        </pitch>
        <duration>120</duration>
        <voice>2</voice>
        <type>quarter</type>
      </note>
      <note>
        <pitch>
          <step>A</step>
          <octave>4</octave>
        </pitch>
        <duration>120</duration>
        <voice>2</voice>
        <type>quarter</type>
      </note>
      <note>
        <pitch>
          <step>G</step>
          <octave>4</octave>
        </pitch>
        <duration>120</duration>
        <voice>2</voice>
        <type>quarter</type>
      </note>
    </measure>
    <measure number="14">
      <note>
        <pitch>
          <step>A</step>
          <octave>4</octave>
        </pitch>
        <duration>120</duration>
        <voice>1</voice>
        <type>quarter</type>
        <lyric number="1">
          <syllabic>single</syllabic>
          <text>and</text>
        </lyric>
        <lyric number="2">
          <syllabic>single</syllabic>
          <text>me</text>
        </lyric>
        <lyric number="3">
          <syllabic>single</syllabic>
          <text>wild</text>
        </lyric>
        <lyric number="4">
          <syllabic>middle</syllabic>
          <text>ton</text>
        </lyric>
        <lyric number="5">
          <syllabic>single</syllabic>
          <text>my</text>
        </lyric>
      </note>
      <note>
        <pitch>
          <step>B</step>
          <octave>4</octave>
        </pitch>
        <duration>120</duration>
        <voice>1</voice>
        <type>quarter</type>
        <lyric number="1">
          <syllabic>single</syllabic>
          <text>from</text>
        </lyric>
        <lyric number="2">
          <syllabic>single</syllabic>
          <text>was</text>
        </lyric>
        <lyric number="3">
          <syllabic>begin</syllabic>
          <text>e</text>
        </lyric>
        <lyric number="4">
          <syllabic>end</syllabic>
          <text>ing</text>
        </lyric>
        <lyric number="5">
          <syllabic>begin</syllabic>
          <text>Pro</text>
        </lyric>
      </note>
      <note>
        <pitch>
          <step>G</step>
          <alter>1</alter>
          <octave>4</octave>
        </pitch>
        <duration>120</duration>
        <voice>1</voice>
        <type>quarter</type>
        <accidental>sharp</accidental>
        <lyric number="1">
          <syllabic>begin</syllabic>
          <text>sin</text>
        </lyric>
        <lyric number="2">
          <syllabic>begin</syllabic>
          <text>wound</text>
        </lyric>
        <lyric number="3">
          <syllabic>middle</syllabic>
          <text>mo</text>
        </lyric>
        <lyric number="4">
          <syllabic>begin</syllabic>
          <text>Pas</text>
        </lyric>
        <lyric number="5">
          <syllabic>middle</syllabic>
          <text>tec</text>
        </lyric>
      </note>
      <note>
        <pitch>
          <step>E</step>
          <octave>4</octave>
        </pitch>
        <duration>120</duration>
        <voice>1</voice>
        <type>quarter</type>
        <lyric number="1">
          <syllabic>end</syllabic>
          <text>ning</text>
        </lyric>
        <lyric number="2">
          <syllabic>end</syllabic>
          <text>ed,"</text>
        </lyric>
        <lyric number="3">
          <syllabic>end</syllabic>
          <text>tion,</text>
        </lyric>
        <lyric number="4">
          <syllabic>end</syllabic>
          <text>sion</text>
        </lyric>
        <lyric number="5">
          <syllabic>end</syllabic>
          <text>tion,</text>
        </lyric>
      </note>
      <backup>
        <duration>480</duration>
      </backup>
      <note>
        <pitch>
          <step>F</step>
          <octave>4</octave>
        </pitch>
        <duration>120</duration>
        <voice>2</voice>
        <type>quarter</type>
      </note>
      <note>
        <pitch>
          <step>F</step>
          <octave>4</octave>
        </pitch>
        <duration>120</duration>
        <voice>2</voice>
        <type>quarter</type>
      </note>
      <note>
        <pitch>
          <step>E</step>
          <octave>4</octave>
        </pitch>
        <duration>120</duration>
        <voice>2</voice>
        <type>quarter</type>
      </note>
      <note>
        <pitch>
          <step>E</step>
          <octave>4</octave>
        </pitch>
        <duration>120</duration>
        <voice>2</voice>
        <type>quarter</type>
      </note>
    </measure>
    <measure number="15">
      <note>
        <pitch>
          <step>B</step>
          <octave>4</octave>
        </pitch>
        <duration>120</duration>
        <voice>1</voice>
        <type>quarter</type>
        <lyric number="1">
          <syllabic>single</syllabic>
          <text>Keep</text>
        </lyric>
        <lyric number="2">
          <syllabic>single</syllabic>
          <text>That</text>
        </lyric>
        <lyric number="3">
          <syllabic>single</syllabic>
          <text>Calm</text>
        </lyric>
        <lyric number="4">
          <syllabic>single</syllabic>
          <text>Has</text>
        </lyric>
        <lyric number="5">
          <syllabic>single</syllabic>
          <text>Light</text>
        </lyric>
      </note>
      <note>
        <pitch>
          <step>C</step>
          <octave>5</octave>
        </pitch>
        <duration>120</duration>
        <voice>1</voice>
        <type>quarter</type>
        <lyric number="1">
          <syllabic>single</syllabic>
          <text>me</text>
        </lyric>
        <lyric number="2">
          <syllabic>single</syllabic>
          <text>the</text>
        </lyric>
        <lyric number="3">
          <syllabic>single</syllabic>
          <text>and</text>
        </lyric>
        <lyric number="4">
          <syllabic>begin</syllabic>
          <text>pro</text>
        </lyric>
        <lyric number="5">
          <syllabic>single</syllabic>
          <text>and</text>
        </lyric>
      </note>
      <note>
        <pitch>
          <step>D</step>
          <octave>5</octave>
        </pitch>
        <duration>120</duration>
        <voice>1</voice>
        <type>quarter</type>
        <lyric number="1">
          <syllabic>single</syllabic>
          <text>ere</text>
        </lyric>
        <lyric number="2">
          <syllabic>begin</syllabic>
          <text>temp</text>
        </lyric>
        <lyric number="3">
          <syllabic>single</syllabic>
          <text>blest</text>
        </lyric>
        <lyric number="4">
          <syllabic>end</syllabic>
          <text>cured</text>
        </lyric>
        <lyric number="5">
          <syllabic>single</syllabic>
          <text>Life</text>
        </lyric>
      </note>
      <note>
        <pitch>
          <step>C</step>
          <octave>5</octave>
        </pitch>
        <duration>120</duration>
        <voice>1</voice>
        <type>quarter</type>
        <lyric number="1">
          <syllabic>single</syllabic>
          <text>its</text>
        </lyric>
        <lyric number="2">
          <syllabic>end</syllabic>
          <text>ter</text>
        </lyric>
        <lyric number="3">
          <syllabic>single</syllabic>
          <text>in</text>
        </lyric>
        <lyric number="4">
          <syllabic>single</syllabic>
          <text>my</text>
        </lyric>
        <lyric number="5">
          <syllabic>single</syllabic>
          <text>and</text>
        </lyric>
      </note>
      <backup>
        <duration>480</duration>
      </backup>
      <note>
        <pitch>
          <step>E</step>
          <octave>4</octave>
        </pitch>
        <duration>120</duration>
        <voice>2</voice>
        <type>quarter</type>
      </note>
      <note>
        <pitch>
          <step>E</step>
          <octave>4</octave>
        </pitch>
        <duration>120</duration>
        <voice>2</voice>
        <type>quarter</type>
      </note>
      <note>
        <pitch>
          <step>F</step>
          <octave>4</octave>
        </pitch>
        <duration>120</duration>
        <voice>2</voice>
        <type>quarter</type>
      </note>
      <note>
        <pitch>
          <step>E</step>
          <octave>4</octave>
        </pitch>
        <duration>120</duration>
        <voice>2</voice>
        <type>quarter</type>
      </note>
    </measure>
    <measure number="16">
      <note>
        <pitch>
          <step>B</step>
          <octave>4</octave>
        </pitch>
        <duration>120</duration>
        <voice>1</voice>
        <type>quarter</type>
        <lyric number="1">
          <syllabic>single</syllabic>
          <text>first</text>
        </lyric>
        <lyric number="2">
          <syllabic>single</syllabic>
          <text>flee</text>
        </lyric>
        <lyric number="3">
          <syllabic>single</syllabic>
          <text>my</text>
        </lyric>
        <lyric number="4">
          <syllabic>single</syllabic>
          <text>soul's</text>
        </lyric>
        <lyric number="5">
          <syllabic>begin</syllabic>
          <text>Re</text>
        </lyric>
      </note>
      <note>
        <pitch>
          <step>C</step>
          <octave>5</octave>
        </pitch>
        <duration>120</duration>
        <voice>1</voice>
        <type>quarter</type>
        <lyric number="1">
          <syllabic>begin</syllabic>
          <text>be</text>
        </lyric>
        <lyric number="2">
          <syllabic>begin</syllabic>
          <text>con</text>
        </lyric>
        <lyric number="3">
          <syllabic>begin</syllabic>
          <text>de</text>
        </lyric>
        <lyric number="4">
          <syllabic>begin</syllabic>
          <text>sal</text>
        </lyric>
        <lyric number="5">
          <syllabic>middle</syllabic>
          <text>sur</text>
        </lyric>
      </note>
      <note>
        <pitch>
          <step>B</step>
          <octave>4</octave>
        </pitch>
        <duration>240</duration>
        <voice>1</voice>
        <type>half</type>
        <lyric number="1">
          <syllabic>middle</syllabic>
          <text>gin</text>
        </lyric>
        <lyric number="2">
          <syllabic>middle</syllabic>
          <text>found</text>
        </lyric>
        <lyric number="3">
          <syllabic>middle</syllabic>
          <text>vo</text>
        </lyric>
        <lyric number="4">
          <syllabic>middle</syllabic>
          <text>va</text>
        </lyric>
        <lyric number="5">
          <syllabic>middle</syllabic>
          <text>rec</text>
        </lyric>
      </note>
      <backup>
        <duration>480</duration>
      </backup>
      <note>
        <pitch>
          <step>E</step>
          <octave>4</octave>
        </pitch>
        <duration>120</duration>
        <voice>2</voice>
        <type>quarter</type>
      </note>
      <note>
        <pitch>
          <step>E</step>
          <octave>4</octave>
        </pitch>
        <duration>120</duration>
        <voice>2</voice>
        <type>quarter</type>
      </note>
      <note>
        <pitch>
          <step>E</step>
          <octave>4</octave>
        </pitch>
        <duration>240</duration>
        <voice>2</voice>
        <type>half</type>
      </note>
    </measure>
    <measure number="17">
      <note>
        <pitch>
          <step>A</step>
          <octave>4</octave>
        </pitch>
        <duration>480</duration>
        <voice>1</voice>
        <type>whole</type>
        <lyric number="1">
          <syllabic>end</syllabic>
          <text>ning.</text>
        </lyric>
        <lyric number="2">
          <syllabic>end</syllabic>
          <text>ed.</text>
        </lyric>
        <lyric number="3">
          <syllabic>end</syllabic>
          <text>tion.</text>
        </lyric>
        <lyric number="4">
          <syllabic>end</syllabic>
          <text>tion.</text>
        </lyric>
        <lyric number="5">
          <syllabic>end</syllabic>
          <text>tion.</text>
        </lyric>
      </note>
      <barline location="right">
        <bar-style>light-heavy</bar-style>
      </barline>
      <backup>
        <duration>480</duration>
      </backup>
      <note>
        <pitch>
          <step>C</step>
          <octave>4</octave>
        </pitch>
        <duration>480</duration>
        <voice>2</voice>
        <type>whole</type>
      </note>
      <barline location="right">
        <bar-style>light-heavy</bar-style>
      </barline>
    </measure>
  </part>
  <part id="PS2V1">
    <measure number="1">
      <attributes>
        <divisions>120</divisions>
        <key>
          <fifths>0</fifths>
          <mode>major</mode>
        </key>
        <time>
          <beats>4</beats>
          <beat-type>4</beat-type>
        </time>
        <clef>
          <sign>F</sign>
          <line>4</line>
        </clef>
      </attributes>
      <note>
        <pitch>
          <step>C</step>
          <octave>4</octave>
        </pitch>
        <duration>120</duration>
        <voice>1</voice>
        <type>quarter</type>
      </note>
      <note>
        <pitch>
          <step>B</step>
          <octave>3</octave>
        </pitch>
        <duration>120</duration>
        <voice>1</voice>
        <type>quarter</type>
      </note>
      <note>
        <pitch>
          <step>C</step>
          <octave>4</octave>
        </pitch>
        <duration>120</duration>
        <voice>1</voice>
        <type>quarter</type>
      </note>
      <note>
        <pitch>
          <step>D</step>
          <octave>4</octave>
        </pitch>
        <duration>120</duration>
        <voice>1</voice>
        <type>quarter</type>
      </note>
      <backup>
        <duration>480</duration>
      </backup>
      <note>
        <pitch>
          <step>A</step>
          <octave>3</octave>
        </pitch>
        <duration>120</duration>
        <voice>2</voice>
        <type>quarter</type>
      </note>
      <note>
        <pitch>
          <step>G</step>
          <octave>3</octave>
        </pitch>
        <duration>120</duration>
        <voice>2</voice>
        <type>quarter</type>
      </note>
      <note>
        <pitch>
          <step>F</step>
          <octave>3</octave>
        </pitch>
        <duration>120</duration>
        <voice>2</voice>
        <type>quarter</type>
      </note>
      <note>
        <pitch>
          <step>D</step>
          <octave>3</octave>
        </pitch>
        <duration>120</duration>
        <voice>2</voice>
        <type>quarter</type>
      </note>
    </measure>
    <measure number="2">
      <note>
        <pitch>
          <step>E</step>
          <octave>4</octave>
        </pitch>
        <duration>120</duration>
        <voice>1</voice>
        <type>quarter</type>
      </note>
      <note>
        <pitch>
          <step>D</step>
          <octave>4</octave>
        </pitch>
        <duration>60</duration>
        <voice>1</voice>
        <type>eighth</type>
        <beam number="1">begin</beam>
      </note>
      <note>
        <pitch>
          <step>C</step>
          <octave>4</octave>
        </pitch>
        <duration>60</duration>
        <voice>1</voice>
        <type>eighth</type>
        <beam number="1">end</beam>
      </note>
      <note>
        <pitch>
          <step>B</step>
          <octave>3</octave>
        </pitch>
        <duration>120</duration>
        <voice>1</voice>
        <type>quarter</type>
      </note>
      <note>
        <pitch>
          <step>G</step>
          <alter>1</alter>
          <octave>3</octave>
        </pitch>
        <duration>120</duration>
        <voice>1</voice>
        <type>quarter</type>
        <accidental>sharp</accidental>
      </note>
      <backup>
        <duration>480</duration>
      </backup>
      <note>
        <pitch>
          <step>C</step>
          <octave>3</octave>
        </pitch>
        <duration>120</duration>
        <voice>2</voice>
        <type>quarter</type>
      </note>
      <note>
        <pitch>
          <step>D</step>
          <octave>3</octave>
        </pitch>
        <duration>120</duration>
        <voice>2</voice>
        <type>quarter</type>
      </note>
      <note>
        <pitch>
          <step>E</step>
          <octave>3</octave>
        </pitch>
        <duration>120</duration>
        <voice>2</voice>
        <type>quarter</type>
      </note>
      <note>
        <pitch>
          <step>E</step>
          <octave>3</octave>
        </pitch>
        <duration>120</duration>
        <voice>2</voice>
        <type>quarter</type>
      </note>
    </measure>
    <measure number="3">
      <note>
        <pitch>
          <step>G</step>
          <alter>1</alter>
          <octave>3</octave>
        </pitch>
        <duration>120</duration>
        <voice>1</voice>
        <type>quarter</type>
        <accidental>sharp</accidental>
      </note>
      <note>
        <pitch>
          <step>A</step>
          <octave>3</octave>
        </pitch>
        <duration>120</duration>
        <voice>1</voice>
        <type>quarter</type>
      </note>
      <note>
        <pitch>
          <step>A</step>
          <octave>3</octave>
        </pitch>
        <duration>120</duration>
        <voice>1</voice>
        <type>quarter</type>
      </note>
      <note>
        <pitch>
          <step>E</step>
          <octave>4</octave>
        </pitch>
        <duration>120</duration>
        <voice>1</voice>
        <type>quarter</type>
      </note>
      <backup>
        <duration>480</duration>
      </backup>
      <note>
        <pitch>
          <step>E</step>
          <octave>3</octave>
        </pitch>
        <duration>120</duration>
        <voice>2</voice>
        <type>quarter</type>
      </note>
      <note>
        <pitch>
          <step>A</step>
          <octave>3</octave>
        </pitch>
        <duration>120</duration>
        <voice>2</voice>
        <type>quarter</type>
      </note>
      <note>
        <pitch>
          <step>F</step>
          <octave>3</octave>
        </pitch>
        <duration>120</duration>
        <voice>2</voice>
        <type>quarter</type>
      </note>
      <note>
        <pitch>
          <step>E</step>
          <octave>3</octave>
        </pitch>
        <duration>120</duration>
        <voice>2</voice>
        <type>quarter</type>
      </note>
    </measure>
    <measure number="4">
      <note>
        <pitch>
          <step>F</step>
          <octave>4</octave>
        </pitch>
        <duration>120</duration>
        <voice>1</voice>
        <type>quarter</type>
      </note>
      <note>
        <pitch>
          <step>E</step>
          <octave>4</octave>
        </pitch>
        <duration>120</duration>
        <voice>1</voice>
        <type>quarter</type>
      </note>
      <note>
        <pitch>
          <step>C</step>
          <octave>4</octave>
        </pitch>
        <duration>240</duration>
        <voice>1</voice>
        <type>half</type>
      </note>
      <backup>
        <duration>480</duration>
      </backup>
      <note>
        <pitch>
          <step>D</step>
          <octave>3</octave>
        </pitch>
        <duration>120</duration>
        <voice>2</voice>
        <type>quarter</type>
      </note>
      <note>
        <pitch>
          <step>E</step>
          <octave>3</octave>
        </pitch>
        <duration>120</duration>
        <voice>2</voice>
        <type>quarter</type>
      </note>
      <note>
        <pitch>
          <step>A</step>
          <octave>2</octave>
        </pitch>
        <duration>240</duration>
        <voice>2</voice>
        <type>half</type>
      </note>
    </measure>
    <measure number="5">
      <note>
        <pitch>
          <step>C</step>
          <octave>4</octave>
        </pitch>
        <duration>120</duration>
        <voice>1</voice>
        <type>quarter</type>
      </note>
      <note>
        <pitch>
          <step>B</step>
          <octave>3</octave>
        </pitch>
        <duration>120</duration>
        <voice>1</voice>
        <type>quarter</type>
      </note>
      <note>
        <pitch>
          <step>C</step>
          <octave>4</octave>
        </pitch>
        <duration>120</duration>
        <voice>1</voice>
        <type>quarter</type>
      </note>
      <note>
        <pitch>
          <step>D</step>
          <octave>4</octave>
        </pitch>
        <duration>120</duration>
        <voice>1</voice>
        <type>quarter</type>
      </note>
      <backup>
        <duration>480</duration>
      </backup>
      <note>
        <pitch>
          <step>A</step>
          <octave>3</octave>
        </pitch>
        <duration>120</duration>
        <voice>2</voice>
        <type>quarter</type>
      </note>
      <note>
        <pitch>
          <step>G</step>
          <octave>3</octave>
        </pitch>
        <duration>120</duration>
        <voice>2</voice>
        <type>quarter</type>
      </note>
      <note>
        <pitch>
          <step>F</step>
          <octave>3</octave>
        </pitch>
        <duration>120</duration>
        <voice>2</voice>
        <type>quarter</type>
      </note>
      <note>
        <pitch>
          <step>D</step>
          <octave>3</octave>
        </pitch>
        <duration>120</duration>
        <voice>2</voice>
        <type>quarter</type>
      </note>
    </measure>
    <measure number="6">
      <note>
        <pitch>
          <step>E</step>
          <octave>4</octave>
        </pitch>
        <duration>120</duration>
        <voice>1</voice>
        <type>quarter</type>
      </note>
      <note>
        <pitch>
          <step>D</step>
          <octave>4</octave>
        </pitch>
        <duration>60</duration>
        <voice>1</voice>
        <type>eighth</type>
        <beam number="1">begin</beam>
      </note>
      <note>
        <pitch>
          <step>C</step>
          <octave>4</octave>
        </pitch>
        <duration>60</duration>
        <voice>1</voice>
        <type>eighth</type>
        <beam number="1">end</beam>
      </note>
      <note>
        <pitch>
          <step>B</step>
          <octave>3</octave>
        </pitch>
        <duration>120</duration>
        <voice>1</voice>
        <type>quarter</type>
      </note>
      <note>
        <pitch>
          <step>G</step>
          <alter>1</alter>
          <octave>3</octave>
        </pitch>
        <duration>120</duration>
        <voice>1</voice>
        <type>quarter</type>
        <accidental>sharp</accidental>
      </note>
      <backup>
        <duration>480</duration>
      </backup>
      <note>
        <pitch>
          <step>C</step>
          <octave>3</octave>
        </pitch>
        <duration>120</duration>
        <voice>2</voice>
        <type>quarter</type>
      </note>
      <note>
        <pitch>
          <step>D</step>
          <octave>3</octave>
        </pitch>
        <duration>120</duration>
        <voice>2</voice>
        <type>quarter</type>
      </note>
      <note>
        <pitch>
          <step>E</step>
          <octave>3</octave>
        </pitch>
        <duration>120</duration>
        <voice>2</voice>
        <type>quarter</type>
      </note>
      <note>
        <pitch>
          <step>E</step>
          <octave>3</octave>
        </pitch>
        <duration>120</duration>
        <voice>2</voice>
        <type>quarter</type>
      </note>
    </measure>
    <measure number="7">
      <note>
        <pitch>
          <step>G</step>
          <alter>1</alter>
          <octave>3</octave>
        </pitch>
        <duration>120</duration>
        <voice>1</voice>
        <type>quarter</type>
        <accidental>sharp</accidental>
      </note>
      <note>
        <pitch>
          <step>A</step>
          <octave>3</octave>
        </pitch>
        <duration>120</duration>
        <voice>1</voice>
        <type>quarter</type>
      </note>
      <note>
        <pitch>
          <step>A</step>
          <octave>3</octave>
        </pitch>
        <duration>120</duration>
        <voice>1</voice>
        <type>quarter</type>
      </note>
      <note>
        <pitch>
          <step>E</step>
          <octave>4</octave>
        </pitch>
        <duration>120</duration>
        <voice>1</voice>
        <type>quarter</type>
      </note>
      <backup>
        <duration>480</duration>
      </backup>
      <note>
        <pitch>
          <step>E</step>
          <octave>3</octave>
        </pitch>
        <duration>120</duration>
        <voice>2</voice>
        <type>quarter</type>
      </note>
      <note>
        <pitch>
          <step>A</step>
          <octave>3</octave>
        </pitch>
        <duration>120</duration>
        <voice>2</voice>
        <type>quarter</type>
      </note>
      <note>
        <pitch>
          <step>F</step>
          <octave>3</octave>
        </pitch>
        <duration>120</duration>
        <voice>2</voice>
        <type>quarter</type>
      </note>
      <note>
        <pitch>
          <step>E</step>
          <octave>3</octave>
        </pitch>
        <duration>120</duration>
        <voice>2</voice>
        <type>quarter</type>
      </note>
    </measure>
    <measure number="8">
      <note>
        <pitch>
          <step>F</step>
          <octave>4</octave>
        </pitch>
        <duration>120</duration>
        <voice>1</voice>
        <type>quarter</type>
      </note>
      <note>
        <pitch>
          <step>E</step>
          <octave>4</octave>
        </pitch>
        <duration>120</duration>
        <voice>1</voice>
        <type>quarter</type>
      </note>
      <note>
        <pitch>
          <step>C</step>
          <octave>4</octave>
        </pitch>
        <duration>240</duration>
        <voice>1</voice>
        <type>half</type>
      </note>
      <backup>
        <duration>480</duration>
      </backup>
      <note>
        <pitch>
          <step>D</step>
          <octave>3</octave>
        </pitch>
        <duration>120</duration>
        <voice>2</voice>
        <type>quarter</type>
      </note>
      <note>
        <pitch>
          <step>E</step>
          <octave>3</octave>
        </pitch>
        <duration>120</duration>
        <voice>2</voice>
        <type>quarter</type>
      </note>
      <note>
        <pitch>
          <step>A</step>
          <octave>2</octave>
        </pitch>
        <duration>240</duration>
        <voice>2</voice>
        <type>half</type>
      </note>
    </measure>
    <measure number="9">
      <note>
        <pitch>
          <step>C</step>
          <octave>4</octave>
        </pitch>
        <duration>120</duration>
        <voice>1</voice>
        <type>quarter</type>
      </note>
      <note>
        <pitch>
          <step>D</step>
          <octave>4</octave>
        </pitch>
        <duration>120</duration>
        <voice>1</voice>
        <type>quarter</type>
      </note>
      <note>
        <pitch>
          <step>C</step>
          <octave>4</octave>
        </pitch>
        <duration>120</duration>
        <voice>1</voice>
        <type>quarter</type>
      </note>
      <note>
        <pitch>
          <step>G</step>
          <octave>3</octave>
        </pitch>
        <duration>120</duration>
        <voice>1</voice>
        <type>quarter</type>
      </note>
      <backup>
        <duration>480</duration>
      </backup>
      <note>
        <pitch>
          <step>C</step>
          <octave>3</octave>
        </pitch>
        <duration>120</duration>
        <voice>2</voice>
        <type>quarter</type>
      </note>
      <note>
        <pitch>
          <step>B</step>
          <octave>2</octave>
        </pitch>
        <duration>120</duration>
        <voice>2</voice>
        <type>quarter</type>
      </note>
      <note>
        <pitch>
          <step>C</step>
          <octave>3</octave>
        </pitch>
        <duration>120</duration>
        <voice>2</voice>
        <type>quarter</type>
      </note>
      <note>
        <pitch>
          <step>C</step>
          <octave>3</octave>
        </pitch>
        <duration>120</duration>
        <voice>2</voice>
        <type>quarter</type>
      </note>
    </measure>
    <measure number="10">
      <note>
        <pitch>
          <step>A</step>
          <octave>3</octave>
        </pitch>
        <duration>120</duration>
        <voice>1</voice>
        <type>quarter</type>
      </note>
      <note>
        <pitch>
          <step>B</step>
          <alter>-1</alter>
          <octave>3</octave>
        </pitch>
        <duration>120</duration>
        <voice>1</voice>
        <type>quarter</type>
        <accidental>flat</accidental>
      </note>
      <note>
        <pitch>
          <step>C</step>
          <octave>4</octave>
        </pitch>
        <duration>240</duration>
        <voice>1</voice>
        <type>half</type>
      </note>
      <backup>
        <duration>480</duration>
      </backup>
      <note>
        <pitch>
          <step>A</step>
          <octave>2</octave>
        </pitch>
        <duration>120</duration>
        <voice>2</voice>
        <type>quarter</type>
      </note>
      <note>
        <pitch>
          <step>G</step>
          <octave>2</octave>
        </pitch>
        <duration>120</duration>
        <voice>2</voice>
        <type>quarter</type>
      </note>
      <note>
        <pitch>
          <step>F</step>
          <octave>2</octave>
        </pitch>
        <duration>240</duration>
        <voice>2</voice>
        <type>half</type>
      </note>
    </measure>
    <measure number="11">
      <note>
        <pitch>
          <step>C</step>
          <octave>4</octave>
        </pitch>
        <duration>120</duration>
        <voice>1</voice>
        <type>quarter</type>
      </note>
      <note>
        <pitch>
          <step>G</step>
          <octave>3</octave>
        </pitch>
        <duration>120</duration>
        <voice>1</voice>
        <type>quarter</type>
      </note>
      <note>
        <pitch>
          <step>A</step>
          <octave>3</octave>
        </pitch>
        <duration>120</duration>
        <voice>1</voice>
        <type>quarter</type>
      </note>
      <note>
        <pitch>
          <step>G</step>
          <octave>3</octave>
        </pitch>
        <duration>120</duration>
        <voice>1</voice>
        <type>quarter</type>
      </note>
      <backup>
        <duration>480</duration>
      </backup>
      <note>
        <pitch>
          <step>C</step>
          <octave>3</octave>
        </pitch>
        <duration>120</duration>
        <voice>2</voice>
        <type>quarter</type>
      </note>
      <note>
        <pitch>
          <step>B</step>
          <octave>2</octave>
        </pitch>
        <duration>120</duration>
        <voice>2</voice>
        <type>quarter</type>
      </note>
      <note>
        <pitch>
          <step>A</step>
          <octave>2</octave>
        </pitch>
        <duration>120</duration>
        <voice>2</voice>
        <type>quarter</type>
      </note>
      <note>
        <pitch>
          <step>C</step>
          <octave>3</octave>
        </pitch>
        <duration>120</duration>
        <voice>2</voice>
        <type>quarter</type>
      </note>
    </measure>
    <measure number="12">
      <note>
        <pitch>
          <step>G</step>
          <octave>3</octave>
        </pitch>
        <duration>180</duration>
        <voice>1</voice>
        <type>quarter</type>
        <dot />
      </note>
      <note>
        <pitch>
          <step>F</step>
          <octave>3</octave>
        </pitch>
        <duration>60</duration>
        <voice>1</voice>
        <type>eighth</type>
      </note>
      <note>
        <pitch>
          <step>E</step>
          <octave>3</octave>
        </pitch>
        <duration>240</duration>
        <voice>1</voice>
        <type>half</type>
      </note>
      <backup>
        <duration>480</duration>
      </backup>
      <note>
        <pitch>
          <step>G</step>
          <octave>2</octave>
        </pitch>
        <duration>120</duration>
        <voice>2</voice>
        <type>quarter</type>
      </note>
      <note>
        <pitch>
          <step>G</step>
          <octave>2</octave>
        </pitch>
        <duration>120</duration>
        <voice>2</voice>
        <type>quarter</type>
      </note>
      <note>
        <pitch>
          <step>C</step>
          <octave>3</octave>
        </pitch>
        <duration>240</duration>
        <voice>2</voice>
        <type>half</type>
      </note>
    </measure>
    <measure number="13">
      <note>
        <pitch>
          <step>E</step>
          <octave>4</octave>
        </pitch>
        <duration>120</duration>
        <voice>1</voice>
        <type>quarter</type>
      </note>
      <note>
        <pitch>
          <step>E</step>
          <octave>4</octave>
        </pitch>
        <duration>120</duration>
        <voice>1</voice>
        <type>quarter</type>
      </note>
      <note>
        <pitch>
          <step>F</step>
          <octave>4</octave>
        </pitch>
        <duration>120</duration>
        <voice>1</voice>
        <type>quarter</type>
      </note>
      <note>
        <pitch>
          <step>E</step>
          <octave>4</octave>
        </pitch>
        <duration>60</duration>
        <voice>1</voice>
        <type>eighth</type>
        <beam number="1">begin</beam>
      </note>
      <note>
        <pitch>
          <step>D</step>
          <octave>4</octave>
        </pitch>
        <duration>60</duration>
        <voice>1</voice>
        <type>eighth</type>
        <beam number="1">end</beam>
      </note>
      <backup>
        <duration>480</duration>
      </backup>
      <note>
        <pitch>
          <step>C</step>
          <octave>4</octave>
        </pitch>
        <duration>120</duration>
        <voice>2</voice>
        <type>quarter</type>
      </note>
      <note>
        <pitch>
          <step>A</step>
          <octave>3</octave>
        </pitch>
        <duration>120</duration>
        <voice>2</voice>
        <type>quarter</type>
      </note>
      <note>
        <pitch>
          <step>D</step>
          <octave>3</octave>
        </pitch>
        <duration>120</duration>
        <voice>2</voice>
        <type>quarter</type>
      </note>
      <note>
        <pitch>
          <step>E</step>
          <octave>3</octave>
        </pitch>
        <duration>120</duration>
        <voice>2</voice>
        <type>quarter</type>
      </note>
    </measure>
    <measure number="14">
      <note>
        <pitch>
          <step>C</step>
          <octave>4</octave>
        </pitch>
        <duration>120</duration>
        <voice>1</voice>
        <type>quarter</type>
      </note>
      <note>
        <pitch>
          <step>D</step>
          <octave>4</octave>
        </pitch>
        <duration>120</duration>
        <voice>1</voice>
        <type>quarter</type>
      </note>
      <note>
        <pitch>
          <step>B</step>
          <octave>3</octave>
        </pitch>
        <duration>120</duration>
        <voice>1</voice>
        <type>quarter</type>
      </note>
      <note>
        <pitch>
          <step>G</step>
          <alter>1</alter>
          <octave>3</octave>
        </pitch>
        <duration>120</duration>
        <voice>1</voice>
        <type>quarter</type>
        <accidental>sharp</accidental>
      </note>
      <backup>
        <duration>480</duration>
      </backup>
      <note>
        <pitch>
          <step>F</step>
          <octave>3</octave>
        </pitch>
        <duration>120</duration>
        <voice>2</voice>
        <type>quarter</type>
      </note>
      <note>
        <pitch>
          <step>D</step>
          <octave>3</octave>
        </pitch>
        <duration>120</duration>
        <voice>2</voice>
        <type>quarter</type>
      </note>
      <note>
        <pitch>
          <step>E</step>
          <octave>3</octave>
        </pitch>
        <duration>120</duration>
        <voice>2</voice>
        <type>quarter</type>
      </note>
      <note>
        <pitch>
          <step>E</step>
          <octave>3</octave>
        </pitch>
        <duration>120</duration>
        <voice>2</voice>
        <type>quarter</type>
      </note>
    </measure>
    <measure number="15">
      <note>
        <pitch>
          <step>G</step>
          <alter>1</alter>
          <octave>3</octave>
        </pitch>
        <duration>120</duration>
        <voice>1</voice>
        <type>quarter</type>
        <accidental>sharp</accidental>
      </note>
      <note>
        <pitch>
          <step>A</step>
          <octave>3</octave>
        </pitch>
        <duration>120</duration>
        <voice>1</voice>
        <type>quarter</type>
      </note>
      <note>
        <pitch>
          <step>A</step>
          <octave>3</octave>
        </pitch>
        <duration>120</duration>
        <voice>1</voice>
        <type>quarter</type>
      </note>
      <note>
        <pitch>
          <step>A</step>
          <octave>3</octave>
        </pitch>
        <duration>120</duration>
        <voice>1</voice>
        <type>quarter</type>
      </note>
      <backup>
        <duration>480</duration>
      </backup>
      <note>
        <pitch>
          <step>E</step>
          <octave>3</octave>
        </pitch>
        <duration>120</duration>
        <voice>2</voice>
        <type>quarter</type>
      </note>
      <note>
        <pitch>
          <step>A</step>
          <octave>3</octave>
        </pitch>
        <duration>120</duration>
        <voice>2</voice>
        <type>quarter</type>
      </note>
      <note>
        <pitch>
          <step>D</step>
          <octave>3</octave>
        </pitch>
        <duration>120</duration>
        <voice>2</voice>
        <type>quarter</type>
      </note>
      <note>
        <pitch>
          <step>A</step>
          <octave>2</octave>
        </pitch>
        <duration>120</duration>
        <voice>2</voice>
        <type>quarter</type>
      </note>
    </measure>
    <measure number="16">
      <note>
        <pitch>
          <step>G</step>
          <alter>1</alter>
          <octave>3</octave>
        </pitch>
        <duration>120</duration>
        <voice>1</voice>
        <type>quarter</type>
        <accidental>sharp</accidental>
      </note>
      <note>
        <pitch>
          <step>A</step>
          <octave>3</octave>
        </pitch>
        <duration>240</duration>
        <voice>1</voice>
        <type>half</type>
      </note>
      <note>
        <pitch>
          <step>G</step>
          <alter>1</alter>
          <octave>3</octave>
        </pitch>
        <duration>120</duration>
        <voice>1</voice>
        <type>quarter</type>
        <accidental>sharp</accidental>
      </note>
      <backup>
        <duration>480</duration>
      </backup>
      <note>
        <pitch>
          <step>E</step>
          <octave>3</octave>
        </pitch>
        <duration>120</duration>
        <voice>2</voice>
        <type>quarter</type>
      </note>
      <note>
        <pitch>
          <step>C</step>
          <octave>3</octave>
        </pitch>
        <duration>60</duration>
        <voice>2</voice>
        <type>eighth</type>
        <beam number="1">begin</beam>
      </note>
      <note>
        <pitch>
          <step>A</step>
          <octave>2</octave>
        </pitch>
        <duration>60</duration>
        <voice>2</voice>
        <type>eighth</type>
        <beam number="1">end</beam>
      </note>
      <note>
        <pitch>
          <step>E</step>
          <octave>3</octave>
        </pitch>
        <duration>240</duration>
        <voice>2</voice>
        <type>half</type>
      </note>
    </measure>
    <measure number="17">
      <note>
        <pitch>
          <step>A</step>
          <octave>3</octave>
        </pitch>
        <duration>480</duration>
        <voice>1</voice>
        <type>whole</type>
      </note>
      <barline location="right">
        <bar-style>light-heavy</bar-style>
      </barline>
      <backup>
        <duration>480</duration>
      </backup>
      <note>
        <pitch>
          <step>A</step>
          <octave>2</octave>
        </pitch>
        <duration>480</duration>
        <voice>2</voice>
        <type>whole</type>
      </note>
      <barline location="right">
        <bar-style>light-heavy</bar-style>
      </barline>
    </measure>
  </part>
</score-partwise>
