<?xml version='1.0' encoding='utf-8'?>
<!DOCTYPE score-partwise PUBLIC "-//Recordare//DTD MusicXML 3.0 Partwise//EN" "http://www.musicxml.org/dtds/partwise.dtd">
<score-partwise>
  <work>
    <work-title>O For A Thousand Tongues</work-title>
  </work>
  <identification>
    <creator type="composer">Words: Charles Wesley, 1740.  Music: 'Azmon' Carl G. Gläser, 1828.  Setting: Lowell Mason, 1839.
copyright: public domain.  This score is a part of the Open Hymnal Project, 2007 Revision.</creator>
    <encoding>
      <encoder>abc2xml version 268</encoder>
      <software>https://wim.vree.org/svgParse/abc2xml.html</software>
      <encoding-date>2026-07-21</encoding-date>
    </encoding>
    <source>Music source: "The Methodist Hymnal", 1905. Hymn 1.</source>
    <miscellaneous>
      <miscellaneous-field name="lyrics">6.Hear Him, ye deaf; His praise, ye dumb,
Your loosened tongues employ;
Ye blind, behold your Savior come,
And leap, ye lame, for joy.

7.In Christ your Head, you then shall know,
Shall feel your sins forgiven;
Anticipate your heaven below,
And own that love is heaven.

8.Glory to God, and praise and love
Be ever, ever given,
By saints below and saints above,
The church in earth and heaven.

9.On this glad day the glorious Sun
Of Righteousness arose;
On my benighted soul He shone
And filled it with repose.

10.Sudden expired the legal strife,
'Twas then I ceased to grieve;
My second, real, living life
I then began to live.

11.Then with my heart I first believed,
Believed with faith divine,
Power with the Holy Ghost received
To call the Savior mine.

12.I felt my Lord's atoning blood
Close to my soul applied;
Me, me He loved, the Son of God,
For me, for me He died!

13.I found and owned His promise true,
Ascertained of my part,
My pardon passed in heaven I knew
When written on my heart.

14.Look unto Him, ye nations, own
Your God, ye fallen race;
Look, and be saved through faith alone,
Be justified by grace.

15.See all your sins on Jesus laid:
The Lamb of God was slain,
His soul was once an offering made
For every soul of man.

16.Awake from guilty nature's sleep,
And Christ shall give you light,
Cast all your sins into the deep,
And wash the Æthiop white.

17.Harlots and publicans and thieves
In holy triumph join!
Saved is the sinner that believes
From crimes as great as mine.

18.Murderers and all ye hellish crew,
Ye sons of lust and pride,
Believe the Savior died for you;
For me the Savior died.

19.With me, your chief, ye then shall know,
Shall feel your sins forgiven;
Anticipate your heaven below,
And own that love is heaven.</miscellaneous-field>
    </miscellaneous>
  </identification>
  <defaults>
    <scaling>
      <millimeters>6.351</millimeters>
      <tenths>40</tenths>
    </scaling>
    <page-layout>
      <page-height>1757.2</page-height>
      <page-width>1360.42</page-width>
      <page-margins type="both">
        <left-margin>113.368</left-margin>
        <right-margin>113.368</right-margin>
        <top-margin>62.9822</top-margin>
        <bottom-margin>62.9822</bottom-margin>
      </page-margins>
    </page-layout>
  </defaults>
  <part-list>
    <score-part id="PS1V1">
      <part-name />
    </score-part>
    <score-part id="PS2V1">
      <part-name />
      <score-instrument id="IS2V1-S2V2">
        <instrument-name>acoustic_grand_piano</instrument-name>
      </score-instrument>
      <midi-instrument id="IS2V1-S2V2">
        <midi-channel>4</midi-channel>
        <midi-program>1</midi-program>
      </midi-instrument>
    </score-part>
  </part-list>
  <part id="PS1V1">
    <measure number="1">
      <attributes>
        <divisions>120</divisions>
        <key>
          <fifths>-4</fifths>
          <mode>major</mode>
        </key>
        <time>
          <beats>3</beats>
          <beat-type>2</beat-type>
        </time>
        <clef>
          <sign>G</sign>
          <line>2</line>
        </clef>
      </attributes>
      <direction placement="above">
        <direction-type>
          <metronome>
            <beat-unit>quarter</beat-unit>
            <per-minute>200</per-minute>
          </metronome>
        </direction-type>
        <sound tempo="200.00" />
      </direction>
      <note>
        <pitch>
          <step>E</step>
          <alter>-1</alter>
          <octave>4</octave>
        </pitch>
        <duration>240</duration>
        <voice>1</voice>
        <type>half</type>
        <lyric number="1">
          <syllabic>single</syllabic>
          <text>1. O</text>
        </lyric>
        <lyric number="2">
          <syllabic>single</syllabic>
          <text>2. My</text>
        </lyric>
        <lyric number="3">
          <syllabic>begin</syllabic>
          <text>3. Je</text>
        </lyric>
        <lyric number="4">
          <syllabic>single</syllabic>
          <text>4. He</text>
        </lyric>
        <lyric number="5">
          <syllabic>single</syllabic>
          <text>5. He</text>
        </lyric>
      </note>
      <backup>
        <duration>240</duration>
      </backup>
      <note>
        <pitch>
          <step>E</step>
          <alter>-1</alter>
          <octave>4</octave>
        </pitch>
        <duration>240</duration>
        <voice>2</voice>
        <type>half</type>
      </note>
    </measure>
    <measure number="2">
      <note>
        <pitch>
          <step>A</step>
          <alter>-1</alter>
          <octave>4</octave>
        </pitch>
        <duration>120</duration>
        <voice>1</voice>
        <type>quarter</type>
        <lyric number="1">
          <syllabic>single</syllabic>
          <text>for</text>
        </lyric>
        <lyric number="2">
          <syllabic>begin</syllabic>
          <text>gra</text>
        </lyric>
        <lyric number="3">
          <syllabic>end</syllabic>
          <text>sus!</text>
        </lyric>
        <lyric number="4">
          <syllabic>single</syllabic>
          <text>breaks</text>
        </lyric>
        <lyric number="5">
          <syllabic>single</syllabic>
          <text>speaks,</text>
        </lyric>
      </note>
      <note>
        <pitch>
          <step>A</step>
          <alter>-1</alter>
          <octave>4</octave>
        </pitch>
        <duration>120</duration>
        <voice>1</voice>
        <type>quarter</type>
        <lyric number="1">
          <syllabic>single</syllabic>
          <text>a</text>
        </lyric>
        <lyric number="2">
          <syllabic>end</syllabic>
          <text>cious</text>
        </lyric>
        <lyric number="3">
          <syllabic>single</syllabic>
          <text>the</text>
        </lyric>
        <lyric number="4">
          <syllabic>single</syllabic>
          <text>the</text>
        </lyric>
        <lyric number="5">
          <syllabic>single</syllabic>
          <text>and,</text>
        </lyric>
      </note>
      <note>
        <pitch>
          <step>B</step>
          <alter>-1</alter>
          <octave>4</octave>
        </pitch>
        <duration>240</duration>
        <voice>1</voice>
        <type>half</type>
        <lyric number="1">
          <syllabic>begin</syllabic>
          <text>thou</text>
        </lyric>
        <lyric number="2">
          <syllabic>begin</syllabic>
          <text>Mas</text>
        </lyric>
        <lyric number="3">
          <syllabic>single</syllabic>
          <text>name</text>
        </lyric>
        <lyric number="4">
          <syllabic>single</syllabic>
          <text>pow'r</text>
        </lyric>
        <lyric number="5">
          <syllabic>begin</syllabic>
          <text>lis</text>
        </lyric>
      </note>
      <note>
        <pitch>
          <step>B</step>
          <alter>-1</alter>
          <octave>4</octave>
        </pitch>
        <duration>240</duration>
        <voice>1</voice>
        <type>half</type>
        <lyric number="1">
          <syllabic>end</syllabic>
          <text>sand</text>
        </lyric>
        <lyric number="2">
          <syllabic>end</syllabic>
          <text>ter</text>
        </lyric>
        <lyric number="3">
          <syllabic>single</syllabic>
          <text>that</text>
        </lyric>
        <lyric number="4">
          <syllabic>single</syllabic>
          <text>of</text>
        </lyric>
        <lyric number="5">
          <syllabic>end</syllabic>
          <text>tening</text>
        </lyric>
      </note>
      <backup>
        <duration>720</duration>
      </backup>
      <note>
        <pitch>
          <step>E</step>
          <alter>-1</alter>
          <octave>4</octave>
        </pitch>
        <duration>120</duration>
        <voice>2</voice>
        <type>quarter</type>
      </note>
      <note>
        <pitch>
          <step>C</step>
          <octave>4</octave>
        </pitch>
        <duration>120</duration>
        <voice>2</voice>
        <type>quarter</type>
      </note>
      <note>
        <pitch>
          <step>E</step>
          <alter>-1</alter>
          <octave>4</octave>
        </pitch>
        <duration>240</duration>
        <voice>2</voice>
        <type>half</type>
      </note>
      <note>
        <pitch>
          <step>E</step>
          <alter>-1</alter>
          <octave>4</octave>
        </pitch>
        <duration>240</duration>
        <voice>2</voice>
        <type>half</type>
      </note>
    </measure>
    <measure number="3">
      <note>
        <pitch>
          <step>C</step>
          <octave>5</octave>
        </pitch>
        <duration>120</duration>
        <voice>1</voice>
        <type>quarter</type>
        <lyric number="1">
          <syllabic>single</syllabic>
          <text>tongues</text>
        </lyric>
        <lyric number="2">
          <syllabic>single</syllabic>
          <text>and</text>
        </lyric>
        <lyric number="3">
          <syllabic>single</syllabic>
          <text>charms</text>
        </lyric>
        <lyric number="4">
          <syllabic>begin</syllabic>
          <text>can</text>
        </lyric>
        <lyric number="5">
          <syllabic>single</syllabic>
          <text>to</text>
        </lyric>
      </note>
      <note>
        <pitch>
          <step>B</step>
          <alter>-1</alter>
          <octave>4</octave>
        </pitch>
        <duration>120</duration>
        <voice>1</voice>
        <type>quarter</type>
        <lyric number="1">
          <syllabic>single</syllabic>
          <text>to</text>
        </lyric>
        <lyric number="2">
          <syllabic>single</syllabic>
          <text>my</text>
        </lyric>
        <lyric number="3">
          <syllabic>single</syllabic>
          <text>our</text>
        </lyric>
        <lyric number="4">
          <syllabic>end</syllabic>
          <text>celed</text>
        </lyric>
        <lyric number="5">
          <syllabic>single</syllabic>
          <text>His</text>
        </lyric>
      </note>
      <note>
        <pitch>
          <step>A</step>
          <alter>-1</alter>
          <octave>4</octave>
        </pitch>
        <duration>240</duration>
        <voice>1</voice>
        <type>half</type>
        <lyric number="1">
          <syllabic>single</syllabic>
          <text>sing</text>
        </lyric>
        <lyric number="2">
          <syllabic>single</syllabic>
          <text>God,</text>
        </lyric>
        <lyric number="3">
          <syllabic>single</syllabic>
          <text>fears,</text>
        </lyric>
        <lyric number="4">
          <syllabic>single</syllabic>
          <text>sin,</text>
        </lyric>
        <lyric number="5">
          <syllabic>single</syllabic>
          <text>voice,</text>
        </lyric>
      </note>
      <note>
        <pitch>
          <step>B</step>
          <alter>-1</alter>
          <octave>4</octave>
        </pitch>
        <duration>240</duration>
        <voice>1</voice>
        <type>half</type>
        <lyric number="1">
          <syllabic>single</syllabic>
          <text>My</text>
        </lyric>
        <lyric number="2">
          <syllabic>begin</syllabic>
          <text>A</text>
        </lyric>
        <lyric number="3">
          <syllabic>single</syllabic>
          <text>That</text>
        </lyric>
        <lyric number="4">
          <syllabic>single</syllabic>
          <text>He</text>
        </lyric>
        <lyric number="5">
          <syllabic>single</syllabic>
          <text>New</text>
        </lyric>
      </note>
      <backup>
        <duration>720</duration>
      </backup>
      <note>
        <pitch>
          <step>E</step>
          <alter>-1</alter>
          <octave>4</octave>
        </pitch>
        <duration>120</duration>
        <voice>2</voice>
        <type>quarter</type>
      </note>
      <note>
        <pitch>
          <step>D</step>
          <alter>-1</alter>
          <octave>4</octave>
        </pitch>
        <duration>120</duration>
        <voice>2</voice>
        <type>quarter</type>
      </note>
      <note>
        <pitch>
          <step>C</step>
          <octave>4</octave>
        </pitch>
        <duration>240</duration>
        <voice>2</voice>
        <type>half</type>
      </note>
      <note>
        <pitch>
          <step>E</step>
          <alter>-1</alter>
          <octave>4</octave>
        </pitch>
        <duration>240</duration>
        <voice>2</voice>
        <type>half</type>
      </note>
    </measure>
    <measure number="4">
      <note>
        <pitch>
          <step>C</step>
          <octave>5</octave>
        </pitch>
        <duration>120</duration>
        <voice>1</voice>
        <type>quarter</type>
        <lyric number="1">
          <syllabic>single</syllabic>
          <text>great</text>
        </lyric>
        <lyric number="2">
          <syllabic>end</syllabic>
          <text>ssist</text>
        </lyric>
        <lyric number="3">
          <syllabic>single</syllabic>
          <text>bids</text>
        </lyric>
        <lyric number="4">
          <syllabic>single</syllabic>
          <text>sets</text>
        </lyric>
        <lyric number="5">
          <syllabic>single</syllabic>
          <text>life</text>
        </lyric>
      </note>
      <note>
        <pitch>
          <step>C</step>
          <octave>5</octave>
        </pitch>
        <duration>120</duration>
        <voice>1</voice>
        <type>quarter</type>
        <lyric number="1">
          <syllabic>begin</syllabic>
          <text>Re</text>
        </lyric>
        <lyric number="2">
          <syllabic>single</syllabic>
          <text>me</text>
        </lyric>
        <lyric number="3">
          <syllabic>single</syllabic>
          <text>our</text>
        </lyric>
        <lyric number="4">
          <syllabic>single</syllabic>
          <text>the</text>
        </lyric>
        <lyric number="5">
          <syllabic>single</syllabic>
          <text>the</text>
        </lyric>
      </note>
      <note>
        <pitch>
          <step>D</step>
          <alter>-1</alter>
          <octave>5</octave>
        </pitch>
        <duration>240</duration>
        <voice>1</voice>
        <type>half</type>
        <lyric number="1">
          <syllabic>middle</syllabic>
          <text>deem</text>
        </lyric>
        <lyric number="2">
          <syllabic>single</syllabic>
          <text>to</text>
        </lyric>
        <lyric number="3">
          <syllabic>begin</syllabic>
          <text>sor</text>
        </lyric>
        <lyric number="4">
          <syllabic>begin</syllabic>
          <text>pri</text>
        </lyric>
        <lyric number="5">
          <syllabic>single</syllabic>
          <text>dead</text>
        </lyric>
      </note>
      <note>
        <pitch>
          <step>C</step>
          <octave>5</octave>
        </pitch>
        <duration>240</duration>
        <voice>1</voice>
        <type>half</type>
        <lyric number="1">
          <syllabic>end</syllabic>
          <text>er's</text>
        </lyric>
        <lyric number="2">
          <syllabic>begin</syllabic>
          <text>pro</text>
        </lyric>
        <lyric number="3">
          <syllabic>end</syllabic>
          <text>rows</text>
        </lyric>
        <lyric number="4">
          <syllabic>end</syllabic>
          <text>soner</text>
        </lyric>
        <lyric number="5">
          <syllabic>begin</syllabic>
          <text>re</text>
        </lyric>
      </note>
      <backup>
        <duration>720</duration>
      </backup>
      <note>
        <pitch>
          <step>E</step>
          <alter>-1</alter>
          <octave>4</octave>
        </pitch>
        <duration>120</duration>
        <voice>2</voice>
        <type>quarter</type>
      </note>
      <note>
        <pitch>
          <step>E</step>
          <alter>-1</alter>
          <octave>4</octave>
        </pitch>
        <duration>120</duration>
        <voice>2</voice>
        <type>quarter</type>
      </note>
      <note>
        <pitch>
          <step>E</step>
          <alter>-1</alter>
          <octave>4</octave>
        </pitch>
        <duration>240</duration>
        <voice>2</voice>
        <type>half</type>
      </note>
      <note>
        <pitch>
          <step>E</step>
          <alter>-1</alter>
          <octave>4</octave>
        </pitch>
        <duration>240</duration>
        <voice>2</voice>
        <type>half</type>
      </note>
    </measure>
    <measure number="5">
      <note>
        <pitch>
          <step>B</step>
          <alter>-1</alter>
          <octave>4</octave>
        </pitch>
        <duration>480</duration>
        <voice>1</voice>
        <type>whole</type>
        <lyric number="1">
          <syllabic>single</syllabic>
          <text>praise,</text>
        </lyric>
        <lyric number="2">
          <syllabic>end</syllabic>
          <text>claim,</text>
        </lyric>
        <lyric number="3">
          <syllabic>single</syllabic>
          <text>cease;</text>
        </lyric>
        <lyric number="4">
          <syllabic>single</syllabic>
          <text>free;</text>
        </lyric>
        <lyric number="5">
          <syllabic>end</syllabic>
          <text>ceive,</text>
        </lyric>
      </note>
      <note>
        <pitch>
          <step>E</step>
          <alter>-1</alter>
          <octave>5</octave>
        </pitch>
        <duration>240</duration>
        <voice>1</voice>
        <type>half</type>
        <lyric number="1">
          <syllabic>single</syllabic>
          <text>The</text>
        </lyric>
        <lyric number="2">
          <syllabic>single</syllabic>
          <text>To</text>
        </lyric>
        <lyric number="3">
          <syllabic>single</syllabic>
          <text>'Tis</text>
        </lyric>
        <lyric number="4">
          <syllabic>single</syllabic>
          <text>His</text>
        </lyric>
        <lyric number="5">
          <syllabic>single</syllabic>
          <text>The</text>
        </lyric>
      </note>
      <backup>
        <duration>720</duration>
      </backup>
      <note>
        <pitch>
          <step>E</step>
          <alter>-1</alter>
          <octave>4</octave>
        </pitch>
        <duration>480</duration>
        <voice>2</voice>
        <type>whole</type>
      </note>
      <note>
        <pitch>
          <step>G</step>
          <octave>4</octave>
        </pitch>
        <duration>240</duration>
        <voice>2</voice>
        <type>half</type>
      </note>
    </measure>
    <measure number="6">
      <note>
        <pitch>
          <step>E</step>
          <alter>-1</alter>
          <octave>5</octave>
        </pitch>
        <duration>120</duration>
        <voice>1</voice>
        <type>quarter</type>
        <lyric number="1">
          <syllabic>begin</syllabic>
          <text>glo</text>
        </lyric>
        <lyric number="2">
          <syllabic>single</syllabic>
          <text>spread</text>
        </lyric>
        <lyric number="3">
          <syllabic>begin</syllabic>
          <text>mu</text>
        </lyric>
        <lyric number="4">
          <syllabic>single</syllabic>
          <text>blood</text>
        </lyric>
        <lyric number="5">
          <syllabic>begin</syllabic>
          <text>mourn</text>
        </lyric>
      </note>
      <note>
        <pitch>
          <step>C</step>
          <octave>5</octave>
        </pitch>
        <duration>120</duration>
        <voice>1</voice>
        <type>quarter</type>
        <lyric number="1">
          <syllabic>end</syllabic>
          <text>ries</text>
        </lyric>
        <lyric number="2">
          <syllabic>single</syllabic>
          <text>through</text>
        </lyric>
        <lyric number="3">
          <syllabic>end</syllabic>
          <text>sic</text>
        </lyric>
        <lyric number="4">
          <syllabic>single</syllabic>
          <text>can</text>
        </lyric>
        <lyric number="5">
          <syllabic>end</syllabic>
          <text>ful,</text>
        </lyric>
      </note>
      <note>
        <pitch>
          <step>C</step>
          <octave>5</octave>
        </pitch>
        <duration>240</duration>
        <voice>1</voice>
        <type>half</type>
        <lyric number="1">
          <syllabic>single</syllabic>
          <text>of</text>
        </lyric>
        <lyric number="2">
          <syllabic>single</syllabic>
          <text>all</text>
        </lyric>
        <lyric number="3">
          <syllabic>single</syllabic>
          <text>in</text>
        </lyric>
        <lyric number="4">
          <syllabic>single</syllabic>
          <text>make</text>
        </lyric>
        <lyric number="5">
          <syllabic>begin</syllabic>
          <text>bro</text>
        </lyric>
      </note>
      <note>
        <pitch>
          <step>A</step>
          <alter>-1</alter>
          <octave>4</octave>
        </pitch>
        <duration>240</duration>
        <voice>1</voice>
        <type>half</type>
        <lyric number="1">
          <syllabic>single</syllabic>
          <text>my</text>
        </lyric>
        <lyric number="2">
          <syllabic>single</syllabic>
          <text>the</text>
        </lyric>
        <lyric number="3">
          <syllabic>single</syllabic>
          <text>the</text>
        </lyric>
        <lyric number="4">
          <syllabic>single</syllabic>
          <text>the</text>
        </lyric>
        <lyric number="5">
          <syllabic>end</syllabic>
          <text>ken</text>
        </lyric>
      </note>
      <backup>
        <duration>720</duration>
      </backup>
      <note>
        <pitch>
          <step>A</step>
          <alter>-1</alter>
          <octave>4</octave>
        </pitch>
        <duration>120</duration>
        <voice>2</voice>
        <type>quarter</type>
      </note>
      <note>
        <pitch>
          <step>E</step>
          <alter>-1</alter>
          <octave>4</octave>
        </pitch>
        <duration>120</duration>
        <voice>2</voice>
        <type>quarter</type>
      </note>
      <note>
        <pitch>
          <step>E</step>
          <alter>-1</alter>
          <octave>4</octave>
        </pitch>
        <duration>240</duration>
        <voice>2</voice>
        <type>half</type>
      </note>
      <note>
        <pitch>
          <step>E</step>
          <alter>-1</alter>
          <octave>4</octave>
        </pitch>
        <duration>240</duration>
        <voice>2</voice>
        <type>half</type>
      </note>
    </measure>
    <measure number="7">
      <note>
        <pitch>
          <step>A</step>
          <alter>-1</alter>
          <octave>4</octave>
        </pitch>
        <duration>120</duration>
        <voice>1</voice>
        <type>quarter</type>
        <lyric number="1">
          <syllabic>single</syllabic>
          <text>God</text>
        </lyric>
        <lyric number="2">
          <syllabic>single</syllabic>
          <text>earth</text>
        </lyric>
        <lyric number="3">
          <syllabic>begin</syllabic>
          <text>sin</text>
        </lyric>
        <lyric number="4">
          <syllabic>begin</syllabic>
          <text>foul</text>
        </lyric>
        <lyric number="5">
          <syllabic>single</syllabic>
          <text>hearts</text>
        </lyric>
      </note>
      <note>
        <pitch>
          <step>F</step>
          <octave>4</octave>
        </pitch>
        <duration>120</duration>
        <voice>1</voice>
        <type>quarter</type>
        <lyric number="1">
          <syllabic>single</syllabic>
          <text>and</text>
        </lyric>
        <lyric number="2">
          <syllabic>begin</syllabic>
          <text>a</text>
        </lyric>
        <lyric number="3">
          <syllabic>end</syllabic>
          <text>ner's</text>
        </lyric>
        <lyric number="4">
          <syllabic>end</syllabic>
          <text>est</text>
        </lyric>
        <lyric number="5">
          <syllabic>begin</syllabic>
          <text>re</text>
        </lyric>
      </note>
      <note>
        <pitch>
          <step>F</step>
          <octave>4</octave>
        </pitch>
        <duration>240</duration>
        <voice>1</voice>
        <type>half</type>
        <lyric number="1">
          <syllabic>single</syllabic>
          <text>King,</text>
        </lyric>
        <lyric number="2">
          <syllabic>end</syllabic>
          <text>broad</text>
        </lyric>
        <lyric number="3">
          <syllabic>single</syllabic>
          <text>ears,</text>
        </lyric>
        <lyric number="4">
          <syllabic>single</syllabic>
          <text>clean,</text>
        </lyric>
        <lyric number="5">
          <syllabic>end</syllabic>
          <text>joice,</text>
        </lyric>
      </note>
      <note>
        <pitch>
          <step>A</step>
          <alter>-1</alter>
          <octave>4</octave>
        </pitch>
        <duration>120</duration>
        <voice>1</voice>
        <type>quarter</type>
        <notations>
          <slur number="1" type="start" />
        </notations>
        <lyric number="1">
          <syllabic>single</syllabic>
          <text>The</text>
        </lyric>
        <lyric number="2">
          <syllabic>single</syllabic>
          <text>The</text>
        </lyric>
        <lyric number="3">
          <syllabic>single</syllabic>
          <text>'Tis</text>
        </lyric>
        <lyric number="4">
          <syllabic>single</syllabic>
          <text>His</text>
        </lyric>
        <lyric number="5">
          <syllabic>single</syllabic>
          <text>The</text>
        </lyric>
      </note>
      <note>
        <pitch>
          <step>F</step>
          <octave>4</octave>
        </pitch>
        <duration>120</duration>
        <voice>1</voice>
        <type>quarter</type>
        <notations>
          <slur number="1" type="stop" />
        </notations>
      </note>
      <backup>
        <duration>720</duration>
      </backup>
      <note>
        <pitch>
          <step>F</step>
          <octave>4</octave>
        </pitch>
        <duration>120</duration>
        <voice>2</voice>
        <type>quarter</type>
      </note>
      <note>
        <pitch>
          <step>D</step>
          <alter>-1</alter>
          <octave>4</octave>
        </pitch>
        <duration>120</duration>
        <voice>2</voice>
        <type>quarter</type>
      </note>
      <note>
        <pitch>
          <step>D</step>
          <alter>-1</alter>
          <octave>4</octave>
        </pitch>
        <duration>240</duration>
        <voice>2</voice>
        <type>half</type>
      </note>
      <note>
        <pitch>
          <step>F</step>
          <octave>4</octave>
        </pitch>
        <duration>120</duration>
        <voice>2</voice>
        <type>quarter</type>
        <notations>
          <slur number="2" type="start" />
        </notations>
      </note>
      <note>
        <pitch>
          <step>D</step>
          <alter>-1</alter>
          <octave>4</octave>
        </pitch>
        <duration>120</duration>
        <voice>2</voice>
        <type>quarter</type>
        <notations>
          <slur number="2" type="stop" />
        </notations>
      </note>
    </measure>
    <measure number="8">
      <note>
        <pitch>
          <step>E</step>
          <alter>-1</alter>
          <octave>4</octave>
        </pitch>
        <duration>120</duration>
        <voice>1</voice>
        <type>quarter</type>
        <lyric number="1">
          <syllabic>begin</syllabic>
          <text>tri</text>
        </lyric>
        <lyric number="2">
          <syllabic>begin</syllabic>
          <text>ho</text>
        </lyric>
        <lyric number="3">
          <syllabic>single</syllabic>
          <text>life,</text>
        </lyric>
        <lyric number="4">
          <syllabic>single</syllabic>
          <text>blood</text>
        </lyric>
        <lyric number="5">
          <syllabic>begin</syllabic>
          <text>hum</text>
        </lyric>
      </note>
      <note>
        <pitch>
          <step>A</step>
          <alter>-1</alter>
          <octave>4</octave>
        </pitch>
        <duration>120</duration>
        <voice>1</voice>
        <type>quarter</type>
        <lyric number="1">
          <syllabic>end</syllabic>
          <text>umphs</text>
        </lyric>
        <lyric number="2">
          <syllabic>end</syllabic>
          <text>nors</text>
        </lyric>
        <lyric number="3">
          <syllabic>single</syllabic>
          <text>and</text>
        </lyric>
        <lyric number="4">
          <syllabic>begin</syllabic>
          <text>a</text>
        </lyric>
        <lyric number="5">
          <syllabic>end</syllabic>
          <text>ble</text>
        </lyric>
      </note>
      <note>
        <pitch>
          <step>A</step>
          <alter>-1</alter>
          <octave>4</octave>
        </pitch>
        <duration>240</duration>
        <voice>1</voice>
        <type>half</type>
        <lyric number="1">
          <syllabic>single</syllabic>
          <text>of</text>
        </lyric>
        <lyric number="2">
          <syllabic>single</syllabic>
          <text>of</text>
        </lyric>
        <lyric number="3">
          <syllabic>single</syllabic>
          <text>health,</text>
        </lyric>
        <lyric number="4">
          <syllabic>end</syllabic>
          <text>vailed</text>
        </lyric>
        <lyric number="5">
          <syllabic>single</syllabic>
          <text>poor</text>
        </lyric>
      </note>
      <note>
        <pitch>
          <step>B</step>
          <alter>-1</alter>
          <octave>4</octave>
        </pitch>
        <duration>240</duration>
        <voice>1</voice>
        <type>half</type>
        <lyric number="1">
          <syllabic>single</syllabic>
          <text>His</text>
        </lyric>
        <lyric number="2">
          <syllabic>single</syllabic>
          <text>Thy</text>
        </lyric>
        <lyric number="3">
          <syllabic>single</syllabic>
          <text>and</text>
        </lyric>
        <lyric number="4">
          <syllabic>single</syllabic>
          <text>for</text>
        </lyric>
        <lyric number="5">
          <syllabic>begin</syllabic>
          <text>be</text>
        </lyric>
      </note>
      <backup>
        <duration>720</duration>
      </backup>
      <note>
        <pitch>
          <step>C</step>
          <octave>4</octave>
        </pitch>
        <duration>120</duration>
        <voice>2</voice>
        <type>quarter</type>
      </note>
      <note>
        <pitch>
          <step>C</step>
          <octave>4</octave>
        </pitch>
        <duration>120</duration>
        <voice>2</voice>
        <type>quarter</type>
      </note>
      <note>
        <pitch>
          <step>C</step>
          <octave>4</octave>
        </pitch>
        <duration>240</duration>
        <voice>2</voice>
        <type>half</type>
      </note>
      <note>
        <pitch>
          <step>D</step>
          <alter>-1</alter>
          <octave>4</octave>
        </pitch>
        <duration>240</duration>
        <voice>2</voice>
        <type>half</type>
      </note>
    </measure>
    <measure number="9">
      <note>
        <pitch>
          <step>A</step>
          <alter>-1</alter>
          <octave>4</octave>
        </pitch>
        <duration>480</duration>
        <voice>1</voice>
        <type>whole</type>
        <lyric number="1">
          <syllabic>single</syllabic>
          <text>grace!</text>
        </lyric>
        <lyric number="2">
          <syllabic>single</syllabic>
          <text>name.</text>
        </lyric>
        <lyric number="3">
          <syllabic>single</syllabic>
          <text>peace.</text>
        </lyric>
        <lyric number="4">
          <syllabic>single</syllabic>
          <text>me.</text>
        </lyric>
        <lyric number="5">
          <syllabic>end</syllabic>
          <text>lieve.</text>
        </lyric>
      </note>
      <barline location="right">
        <bar-style>light-heavy</bar-style>
      </barline>
      <backup>
        <duration>480</duration>
      </backup>
      <note>
        <pitch>
          <step>C</step>
          <octave>4</octave>
        </pitch>
        <duration>480</duration>
        <voice>2</voice>
        <type>whole</type>
      </note>
      <barline location="right">
        <bar-style>light-heavy</bar-style>
      </barline>
    </measure>
  </part>
  <part id="PS2V1">
    <measure number="1">
      <attributes>
        <divisions>120</divisions>
        <key>
          <fifths>-4</fifths>
          <mode>major</mode>
        </key>
        <time>
          <beats>3</beats>
          <beat-type>2</beat-type>
        </time>
        <clef>
          <sign>F</sign>
          <line>4</line>
        </clef>
      </attributes>
      <note>
        <pitch>
          <step>E</step>
          <alter>-1</alter>
          <octave>3</octave>
        </pitch>
        <duration>240</duration>
        <voice>1</voice>
        <type>half</type>
      </note>
      <backup>
        <duration>240</duration>
      </backup>
      <note>
        <pitch>
          <step>E</step>
          <alter>-1</alter>
          <octave>3</octave>
        </pitch>
        <duration>240</duration>
        <voice>2</voice>
        <type>half</type>
      </note>
    </measure>
    <measure number="2">
      <note>
        <pitch>
          <step>E</step>
          <alter>-1</alter>
          <octave>3</octave>
        </pitch>
        <duration>120</duration>
        <voice>1</voice>
        <type>quarter</type>
      </note>
      <note>
        <pitch>
          <step>A</step>
          <alter>-1</alter>
          <octave>3</octave>
        </pitch>
        <duration>120</duration>
        <voice>1</voice>
        <type>quarter</type>
      </note>
      <note>
        <pitch>
          <step>G</step>
          <octave>3</octave>
        </pitch>
        <duration>240</duration>
        <voice>1</voice>
        <type>half</type>
      </note>
      <note>
        <pitch>
          <step>G</step>
          <octave>3</octave>
        </pitch>
        <duration>240</duration>
        <voice>1</voice>
        <type>half</type>
      </note>
      <backup>
        <duration>720</duration>
      </backup>
      <note>
        <pitch>
          <step>C</step>
          <octave>3</octave>
        </pitch>
        <duration>120</duration>
        <voice>2</voice>
        <type>quarter</type>
      </note>
      <note>
        <pitch>
          <step>A</step>
          <alter>-1</alter>
          <octave>2</octave>
        </pitch>
        <duration>120</duration>
        <voice>2</voice>
        <type>quarter</type>
      </note>
      <note>
        <pitch>
          <step>E</step>
          <alter>-1</alter>
          <octave>3</octave>
        </pitch>
        <duration>240</duration>
        <voice>2</voice>
        <type>half</type>
      </note>
      <note>
        <pitch>
          <step>E</step>
          <alter>-1</alter>
          <octave>3</octave>
        </pitch>
        <duration>240</duration>
        <voice>2</voice>
        <type>half</type>
      </note>
    </measure>
    <measure number="3">
      <note>
        <pitch>
          <step>A</step>
          <alter>-1</alter>
          <octave>3</octave>
        </pitch>
        <duration>120</duration>
        <voice>1</voice>
        <type>quarter</type>
      </note>
      <note>
        <pitch>
          <step>G</step>
          <octave>3</octave>
        </pitch>
        <duration>120</duration>
        <voice>1</voice>
        <type>quarter</type>
      </note>
      <note>
        <pitch>
          <step>A</step>
          <alter>-1</alter>
          <octave>3</octave>
        </pitch>
        <duration>240</duration>
        <voice>1</voice>
        <type>half</type>
      </note>
      <note>
        <pitch>
          <step>G</step>
          <octave>3</octave>
        </pitch>
        <duration>240</duration>
        <voice>1</voice>
        <type>half</type>
      </note>
      <backup>
        <duration>720</duration>
      </backup>
      <note>
        <pitch>
          <step>A</step>
          <alter>-1</alter>
          <octave>3</octave>
        </pitch>
        <duration>120</duration>
        <voice>2</voice>
        <type>quarter</type>
      </note>
      <note>
        <pitch>
          <step>E</step>
          <alter>-1</alter>
          <octave>3</octave>
        </pitch>
        <duration>120</duration>
        <voice>2</voice>
        <type>quarter</type>
      </note>
      <note>
        <pitch>
          <step>F</step>
          <octave>3</octave>
        </pitch>
        <duration>240</duration>
        <voice>2</voice>
        <type>half</type>
      </note>
      <note>
        <pitch>
          <step>E</step>
          <alter>-1</alter>
          <octave>3</octave>
        </pitch>
        <duration>240</duration>
        <voice>2</voice>
        <type>half</type>
      </note>
    </measure>
    <measure number="4">
      <note>
        <pitch>
          <step>A</step>
          <alter>-1</alter>
          <octave>3</octave>
        </pitch>
        <duration>120</duration>
        <voice>1</voice>
        <type>quarter</type>
      </note>
      <note>
        <pitch>
          <step>A</step>
          <alter>-1</alter>
          <octave>3</octave>
        </pitch>
        <duration>120</duration>
        <voice>1</voice>
        <type>quarter</type>
      </note>
      <note>
        <pitch>
          <step>B</step>
          <alter>-1</alter>
          <octave>3</octave>
        </pitch>
        <duration>240</duration>
        <voice>1</voice>
        <type>half</type>
      </note>
      <note>
        <pitch>
          <step>A</step>
          <alter>-1</alter>
          <octave>3</octave>
        </pitch>
        <duration>240</duration>
        <voice>1</voice>
        <type>half</type>
      </note>
      <backup>
        <duration>720</duration>
      </backup>
      <note>
        <pitch>
          <step>A</step>
          <alter>-1</alter>
          <octave>3</octave>
        </pitch>
        <duration>120</duration>
        <voice>2</voice>
        <type>quarter</type>
      </note>
      <note>
        <pitch>
          <step>A</step>
          <alter>-1</alter>
          <octave>3</octave>
        </pitch>
        <duration>120</duration>
        <voice>2</voice>
        <type>quarter</type>
      </note>
      <note>
        <pitch>
          <step>G</step>
          <octave>3</octave>
        </pitch>
        <duration>240</duration>
        <voice>2</voice>
        <type>half</type>
      </note>
      <note>
        <pitch>
          <step>A</step>
          <alter>-1</alter>
          <octave>3</octave>
        </pitch>
        <duration>240</duration>
        <voice>2</voice>
        <type>half</type>
      </note>
    </measure>
    <measure number="5">
      <note>
        <pitch>
          <step>G</step>
          <octave>3</octave>
        </pitch>
        <duration>480</duration>
        <voice>1</voice>
        <type>whole</type>
      </note>
      <note>
        <pitch>
          <step>B</step>
          <alter>-1</alter>
          <octave>3</octave>
        </pitch>
        <duration>240</duration>
        <voice>1</voice>
        <type>half</type>
      </note>
      <backup>
        <duration>720</duration>
      </backup>
      <note>
        <pitch>
          <step>E</step>
          <alter>-1</alter>
          <octave>3</octave>
        </pitch>
        <duration>480</duration>
        <voice>2</voice>
        <type>whole</type>
      </note>
      <note>
        <pitch>
          <step>E</step>
          <alter>-1</alter>
          <octave>3</octave>
        </pitch>
        <duration>240</duration>
        <voice>2</voice>
        <type>half</type>
      </note>
    </measure>
    <measure number="6">
      <note>
        <pitch>
          <step>C</step>
          <octave>4</octave>
        </pitch>
        <duration>120</duration>
        <voice>1</voice>
        <type>quarter</type>
      </note>
      <note>
        <pitch>
          <step>A</step>
          <alter>-1</alter>
          <octave>3</octave>
        </pitch>
        <duration>120</duration>
        <voice>1</voice>
        <type>quarter</type>
      </note>
      <note>
        <pitch>
          <step>A</step>
          <alter>-1</alter>
          <octave>3</octave>
        </pitch>
        <duration>240</duration>
        <voice>1</voice>
        <type>half</type>
      </note>
      <note>
        <pitch>
          <step>A</step>
          <alter>-1</alter>
          <octave>3</octave>
        </pitch>
        <duration>240</duration>
        <voice>1</voice>
        <type>half</type>
      </note>
      <backup>
        <duration>720</duration>
      </backup>
      <note>
        <pitch>
          <step>A</step>
          <alter>-1</alter>
          <octave>3</octave>
        </pitch>
        <duration>120</duration>
        <voice>2</voice>
        <type>quarter</type>
      </note>
      <note>
        <pitch>
          <step>A</step>
          <alter>-1</alter>
          <octave>3</octave>
        </pitch>
        <duration>120</duration>
        <voice>2</voice>
        <type>quarter</type>
      </note>
      <note>
        <pitch>
          <step>A</step>
          <alter>-1</alter>
          <octave>3</octave>
        </pitch>
        <duration>240</duration>
        <voice>2</voice>
        <type>half</type>
      </note>
      <note>
        <pitch>
          <step>C</step>
          <octave>3</octave>
        </pitch>
        <duration>240</duration>
        <voice>2</voice>
        <type>half</type>
      </note>
    </measure>
    <measure number="7">
      <note>
        <pitch>
          <step>A</step>
          <alter>-1</alter>
          <octave>3</octave>
        </pitch>
        <duration>120</duration>
        <voice>1</voice>
        <type>quarter</type>
      </note>
      <note>
        <pitch>
          <step>A</step>
          <alter>-1</alter>
          <octave>3</octave>
        </pitch>
        <duration>120</duration>
        <voice>1</voice>
        <type>quarter</type>
      </note>
      <note>
        <pitch>
          <step>A</step>
          <alter>-1</alter>
          <octave>3</octave>
        </pitch>
        <duration>240</duration>
        <voice>1</voice>
        <type>half</type>
      </note>
      <note>
        <pitch>
          <step>A</step>
          <alter>-1</alter>
          <octave>3</octave>
        </pitch>
        <duration>240</duration>
        <voice>1</voice>
        <type>half</type>
      </note>
      <backup>
        <duration>720</duration>
      </backup>
      <note>
        <pitch>
          <step>D</step>
          <alter>-1</alter>
          <octave>3</octave>
        </pitch>
        <duration>120</duration>
        <voice>2</voice>
        <type>quarter</type>
      </note>
      <note>
        <pitch>
          <step>D</step>
          <alter>-1</alter>
          <octave>3</octave>
        </pitch>
        <duration>120</duration>
        <voice>2</voice>
        <type>quarter</type>
      </note>
      <note>
        <pitch>
          <step>D</step>
          <alter>-1</alter>
          <octave>3</octave>
        </pitch>
        <duration>240</duration>
        <voice>2</voice>
        <type>half</type>
      </note>
      <note>
        <pitch>
          <step>D</step>
          <alter>-1</alter>
          <octave>3</octave>
        </pitch>
        <duration>240</duration>
        <voice>2</voice>
        <type>half</type>
      </note>
    </measure>
    <measure number="8">
      <note>
        <pitch>
          <step>A</step>
          <alter>-1</alter>
          <octave>3</octave>
        </pitch>
        <duration>120</duration>
        <voice>1</voice>
        <type>quarter</type>
      </note>
      <note>
        <pitch>
          <step>A</step>
          <alter>-1</alter>
          <octave>3</octave>
        </pitch>
        <duration>120</duration>
        <voice>1</voice>
        <type>quarter</type>
      </note>
      <note>
        <pitch>
          <step>A</step>
          <alter>-1</alter>
          <octave>3</octave>
        </pitch>
        <duration>240</duration>
        <voice>1</voice>
        <type>half</type>
      </note>
      <note>
        <pitch>
          <step>G</step>
          <octave>3</octave>
        </pitch>
        <duration>240</duration>
        <voice>1</voice>
        <type>half</type>
      </note>
      <backup>
        <duration>720</duration>
      </backup>
      <note>
        <pitch>
          <step>E</step>
          <alter>-1</alter>
          <octave>3</octave>
        </pitch>
        <duration>120</duration>
        <voice>2</voice>
        <type>quarter</type>
      </note>
      <note>
        <pitch>
          <step>E</step>
          <alter>-1</alter>
          <octave>3</octave>
        </pitch>
        <duration>120</duration>
        <voice>2</voice>
        <type>quarter</type>
      </note>
      <note>
        <pitch>
          <step>E</step>
          <alter>-1</alter>
          <octave>3</octave>
        </pitch>
        <duration>240</duration>
        <voice>2</voice>
        <type>half</type>
      </note>
      <note>
        <pitch>
          <step>E</step>
          <alter>-1</alter>
          <octave>3</octave>
        </pitch>
        <duration>240</duration>
        <voice>2</voice>
        <type>half</type>
      </note>
    </measure>
    <measure number="9">
      <note>
        <pitch>
          <step>A</step>
          <alter>-1</alter>
          <octave>3</octave>
        </pitch>
        <duration>480</duration>
        <voice>1</voice>
        <type>whole</type>
      </note>
      <barline location="right">
        <bar-style>light-heavy</bar-style>
      </barline>
      <backup>
        <duration>480</duration>
      </backup>
      <note>
        <pitch>
          <step>A</step>
          <alter>-1</alter>
          <octave>2</octave>
        </pitch>
        <duration>480</duration>
        <voice>2</voice>
        <type>whole</type>
      </note>
      <barline location="right">
        <bar-style>light-heavy</bar-style>
      </barline>
    </measure>
  </part>
</score-partwise>
