<?xml version="1.0" encoding="utf-8"?>
<!DOCTYPE score-partwise  PUBLIC "-//Recordare//DTD MusicXML 4.0 Partwise//EN" "http://www.musicxml.org/dtds/partwise.dtd">
<score-partwise version="4.0">
  <work>
    <work-title>Rejoice, The Lord Is King</work-title>
  </work>
  <movement-title>Rejoice, The Lord Is King</movement-title>
  <identification>
    <creator type="lyricist">Charles Wesley</creator>
    <creator type="composer">John Darwall</creator>
    <encoding>
      <encoding-date>2026-07-21</encoding-date>
      <software>music21 v.10.5.0</software>
      <supports element="beam" type="yes" />
      <supports element="stem" type="yes" />
      <supports element="accidental" type="yes" />
    </encoding>
  </identification>
  <defaults>
    <scaling>
      <millimeters>7</millimeters>
      <tenths>40</tenths>
    </scaling>
  </defaults>
  <part-list>
    <score-part id="P2dc0c3cd82607e4be82de44cd52bd75c">
      <part-name>Soprano and Alto</part-name>
    </score-part>
    <score-part id="P870c53fe5c64cd6eeb2b33fa4858a948">
      <part-name>Tenor and Bass</part-name>
    </score-part>
  </part-list>
  <!--=========================== Part 1 ===========================-->
  <part id="P2dc0c3cd82607e4be82de44cd52bd75c">
    <!--========================= Measure 1 ==========================-->
    <measure implicit="no" number="1">
      <attributes>
        <divisions>10080</divisions>
        <key>
          <fifths>2</fifths>
          <mode>major</mode>
        </key>
        <time>
          <beats>4</beats>
          <beat-type>4</beat-type>
        </time>
        <clef>
          <sign>G</sign>
          <line>2</line>
        </clef>
      </attributes>
      <note>
        <pitch>
          <step>D</step>
          <octave>4</octave>
        </pitch>
        <duration>10080</duration>
        <voice>1</voice>
        <type>quarter</type>
        <lyric name="1" number="1">
          <syllabic>single</syllabic>
          <text>Re</text>
        </lyric>
        <lyric name="2" number="2">
          <syllabic>single</syllabic>
          <text>Je</text>
        </lyric>
        <lyric name="3" number="3">
          <syllabic>single</syllabic>
          <text>His</text>
        </lyric>
        <lyric name="4" number="4">
          <syllabic>single</syllabic>
          <text>He</text>
        </lyric>
        <lyric name="5" number="5">
          <syllabic>single</syllabic>
          <text>Re</text>
        </lyric>
      </note>
      <note>
        <rest />
        <duration>30240</duration>
        <voice>1</voice>
        <type>half</type>
        <dot />
      </note>
      <backup>
        <duration>40320</duration>
      </backup>
      <note>
        <pitch>
          <step>D</step>
          <octave>4</octave>
        </pitch>
        <duration>10080</duration>
        <voice>2</voice>
        <type>quarter</type>
      </note>
      <note>
        <rest />
        <duration>30240</duration>
        <voice>2</voice>
        <type>half</type>
        <dot />
      </note>
    </measure>
    <!--========================= Measure 2 ==========================-->
    <measure implicit="no" number="2">
      <note>
        <pitch>
          <step>F</step>
          <alter>1</alter>
          <octave>4</octave>
        </pitch>
        <duration>10080</duration>
        <voice>1</voice>
        <type>quarter</type>
        <lyric name="1" number="1">
          <syllabic>single</syllabic>
          <text>joice,</text>
        </lyric>
        <lyric name="2" number="2">
          <syllabic>single</syllabic>
          <text>sus</text>
        </lyric>
        <lyric name="3" number="3">
          <syllabic>begin</syllabic>
          <text>king</text>
        </lyric>
        <lyric name="4" number="4">
          <syllabic>single</syllabic>
          <text>all</text>
        </lyric>
        <lyric name="5" number="5">
          <syllabic>single</syllabic>
          <text>joice</text>
        </lyric>
      </note>
      <note>
        <pitch>
          <step>D</step>
          <octave>4</octave>
        </pitch>
        <duration>10080</duration>
        <voice>1</voice>
        <type>quarter</type>
        <lyric name="1" number="1">
          <syllabic>single</syllabic>
          <text>the</text>
        </lyric>
        <lyric name="2" number="2">
          <syllabic>single</syllabic>
          <text>the</text>
        </lyric>
        <lyric name="3" number="3">
          <syllabic>end</syllabic>
          <text>dom</text>
        </lyric>
        <lyric name="4" number="4">
          <syllabic>single</syllabic>
          <text>His</text>
        </lyric>
        <lyric name="5" number="5">
          <syllabic>single</syllabic>
          <text>in</text>
        </lyric>
      </note>
      <note>
        <pitch>
          <step>A</step>
          <octave>4</octave>
        </pitch>
        <duration>10080</duration>
        <voice>1</voice>
        <type>quarter</type>
        <lyric name="1" number="1">
          <syllabic>single</syllabic>
          <text>Lord</text>
        </lyric>
        <lyric name="2" number="2">
          <syllabic>begin</syllabic>
          <text>Sav</text>
        </lyric>
        <lyric name="3" number="3">
          <syllabic>begin</syllabic>
          <text>can</text>
        </lyric>
        <lyric name="4" number="4">
          <syllabic>single</syllabic>
          <text>foes</text>
        </lyric>
        <lyric name="5" number="5">
          <syllabic>begin</syllabic>
          <text>glo</text>
        </lyric>
      </note>
      <note>
        <pitch>
          <step>F</step>
          <alter>1</alter>
          <octave>4</octave>
        </pitch>
        <duration>10080</duration>
        <voice>1</voice>
        <type>quarter</type>
        <lyric name="1" number="1">
          <syllabic>single</syllabic>
          <text>is</text>
        </lyric>
        <lyric name="2" number="2">
          <syllabic>end</syllabic>
          <text>iour</text>
        </lyric>
        <lyric name="3" number="3">
          <syllabic>end</syllabic>
          <text>not</text>
        </lyric>
        <lyric name="4" number="4">
          <syllabic>single</syllabic>
          <text>shall</text>
        </lyric>
        <lyric name="5" number="5">
          <syllabic>end</syllabic>
          <text>rious</text>
        </lyric>
      </note>
      <backup>
        <duration>40320</duration>
      </backup>
      <note>
        <pitch>
          <step>D</step>
          <octave>4</octave>
        </pitch>
        <duration>10080</duration>
        <voice>2</voice>
        <type>quarter</type>
      </note>
      <note>
        <pitch>
          <step>D</step>
          <octave>4</octave>
        </pitch>
        <duration>10080</duration>
        <voice>2</voice>
        <type>quarter</type>
      </note>
      <note>
        <pitch>
          <step>E</step>
          <octave>4</octave>
        </pitch>
        <duration>10080</duration>
        <voice>2</voice>
        <type>quarter</type>
      </note>
      <note>
        <pitch>
          <step>D</step>
          <octave>4</octave>
        </pitch>
        <duration>10080</duration>
        <voice>2</voice>
        <type>quarter</type>
      </note>
    </measure>
    <!--========================= Measure 3 ==========================-->
    <measure implicit="no" number="3">
      <note>
        <pitch>
          <step>D</step>
          <octave>5</octave>
        </pitch>
        <duration>30240</duration>
        <voice>1</voice>
        <type>half</type>
        <dot />
        <lyric name="1" number="1">
          <syllabic>single</syllabic>
          <text>King,</text>
        </lyric>
        <lyric name="2" number="2">
          <syllabic>single</syllabic>
          <text>reigns,</text>
        </lyric>
        <lyric name="3" number="3">
          <syllabic>single</syllabic>
          <text>fail,</text>
        </lyric>
        <lyric name="4" number="4">
          <syllabic>single</syllabic>
          <text>quell,</text>
        </lyric>
        <lyric name="5" number="5">
          <syllabic>single</syllabic>
          <text>hope;</text>
        </lyric>
      </note>
      <note>
        <pitch>
          <step>D</step>
          <octave>5</octave>
        </pitch>
        <duration>10080</duration>
        <voice>1</voice>
        <type>quarter</type>
        <lyric name="1" number="1">
          <syllabic>single</syllabic>
          <text>Your</text>
        </lyric>
        <lyric name="2" number="2">
          <syllabic>single</syllabic>
          <text>The</text>
        </lyric>
        <lyric name="3" number="3">
          <syllabic>single</syllabic>
          <text>He</text>
        </lyric>
        <lyric name="4" number="4">
          <syllabic>single</syllabic>
          <text>Shall</text>
        </lyric>
        <lyric name="5" number="5">
          <syllabic>single</syllabic>
          <text>Je</text>
        </lyric>
      </note>
      <backup>
        <duration>40320</duration>
      </backup>
      <note>
        <pitch>
          <step>F</step>
          <alter>1</alter>
          <octave>4</octave>
        </pitch>
        <duration>30240</duration>
        <voice>2</voice>
        <type>half</type>
        <dot />
      </note>
      <note>
        <pitch>
          <step>F</step>
          <alter>1</alter>
          <octave>4</octave>
        </pitch>
        <duration>10080</duration>
        <voice>2</voice>
        <type>quarter</type>
      </note>
    </measure>
    <!--========================= Measure 4 ==========================-->
    <measure implicit="no" number="4">
      <note>
        <pitch>
          <step>B</step>
          <octave>4</octave>
        </pitch>
        <duration>10080</duration>
        <voice>1</voice>
        <type>quarter</type>
        <lyric name="1" number="1">
          <syllabic>single</syllabic>
          <text>Lord</text>
        </lyric>
        <lyric name="2" number="2">
          <syllabic>single</syllabic>
          <text>God</text>
        </lyric>
        <lyric name="3" number="3">
          <syllabic>single</syllabic>
          <text>rules</text>
        </lyric>
        <lyric name="4" number="4">
          <syllabic>single</syllabic>
          <text>all</text>
        </lyric>
        <lyric name="5" number="5">
          <syllabic>single</syllabic>
          <text>sus</text>
        </lyric>
      </note>
      <note>
        <pitch>
          <step>A</step>
          <octave>4</octave>
        </pitch>
        <duration>10080</duration>
        <voice>1</voice>
        <type>quarter</type>
        <lyric name="1" number="1">
          <syllabic>single</syllabic>
          <text>and</text>
        </lyric>
        <lyric name="2" number="2">
          <syllabic>single</syllabic>
          <text>of</text>
        </lyric>
        <lyric name="3" number="3">
          <syllabic>single</syllabic>
          <text>o'er</text>
        </lyric>
        <lyric name="4" number="4">
          <syllabic>single</syllabic>
          <text>our</text>
        </lyric>
        <lyric name="5" number="5">
          <syllabic>single</syllabic>
          <text>the</text>
        </lyric>
      </note>
      <note>
        <pitch>
          <step>G</step>
          <octave>4</octave>
        </pitch>
        <duration>10080</duration>
        <voice>1</voice>
        <type>quarter</type>
        <lyric name="1" number="1">
          <syllabic>single</syllabic>
          <text>King</text>
        </lyric>
        <lyric name="2" number="2">
          <syllabic>single</syllabic>
          <text>truth</text>
        </lyric>
        <lyric name="3" number="3">
          <syllabic>single</syllabic>
          <text>earth</text>
        </lyric>
        <lyric name="4" number="4">
          <syllabic>single</syllabic>
          <text>sins</text>
        </lyric>
        <lyric name="5" number="5">
          <syllabic>single</syllabic>
          <text>judge</text>
        </lyric>
      </note>
      <note>
        <pitch>
          <step>F</step>
          <alter>1</alter>
          <octave>4</octave>
        </pitch>
        <duration>10080</duration>
        <voice>1</voice>
        <type>quarter</type>
        <lyric name="1" number="1">
          <syllabic>single</syllabic>
          <text>a</text>
        </lyric>
        <lyric name="2" number="2">
          <syllabic>single</syllabic>
          <text>and</text>
        </lyric>
        <lyric name="3" number="3">
          <syllabic>single</syllabic>
          <text>and</text>
        </lyric>
        <lyric name="4" number="4">
          <syllabic>single</syllabic>
          <text>de</text>
        </lyric>
        <lyric name="5" number="5">
          <syllabic>single</syllabic>
          <text>shall</text>
        </lyric>
      </note>
      <backup>
        <duration>40320</duration>
      </backup>
      <note>
        <pitch>
          <step>G</step>
          <octave>4</octave>
        </pitch>
        <duration>10080</duration>
        <voice>2</voice>
        <type>quarter</type>
      </note>
      <note>
        <pitch>
          <step>D</step>
          <octave>4</octave>
        </pitch>
        <duration>10080</duration>
        <voice>2</voice>
        <type>quarter</type>
      </note>
      <note>
        <pitch>
          <step>C</step>
          <alter>1</alter>
          <octave>4</octave>
        </pitch>
        <duration>10080</duration>
        <voice>2</voice>
        <type>quarter</type>
      </note>
      <note>
        <pitch>
          <step>D</step>
          <octave>4</octave>
        </pitch>
        <duration>10080</duration>
        <voice>2</voice>
        <type>quarter</type>
      </note>
    </measure>
    <!--========================= Measure 5 ==========================-->
    <measure implicit="no" number="5">
      <note>
        <pitch>
          <step>E</step>
          <octave>4</octave>
        </pitch>
        <duration>30240</duration>
        <voice>1</voice>
        <type>half</type>
        <dot />
        <lyric name="1" number="1">
          <syllabic>single</syllabic>
          <text>dore;</text>
        </lyric>
        <lyric name="2" number="2">
          <syllabic>single</syllabic>
          <text>love;</text>
        </lyric>
        <lyric name="3" number="3">
          <syllabic>single</syllabic>
          <text>heaven;</text>
        </lyric>
        <lyric name="4" number="4">
          <syllabic>single</syllabic>
          <text>stroy,</text>
        </lyric>
        <lyric name="5" number="5">
          <syllabic>single</syllabic>
          <text>come,</text>
        </lyric>
      </note>
      <note>
        <pitch>
          <step>E</step>
          <octave>4</octave>
        </pitch>
        <duration>10080</duration>
        <voice>1</voice>
        <type>quarter</type>
        <lyric name="1" number="1">
          <syllabic>single</syllabic>
          <text>Mor</text>
        </lyric>
        <lyric name="2" number="2">
          <syllabic>single</syllabic>
          <text>When</text>
        </lyric>
        <lyric name="3" number="3">
          <syllabic>single</syllabic>
          <text>The</text>
        </lyric>
        <lyric name="4" number="4">
          <syllabic>single</syllabic>
          <text>And</text>
        </lyric>
        <lyric name="5" number="5">
          <syllabic>single</syllabic>
          <text>And</text>
        </lyric>
      </note>
      <backup>
        <duration>40320</duration>
      </backup>
      <note>
        <pitch>
          <step>C</step>
          <alter>1</alter>
          <octave>4</octave>
        </pitch>
        <duration>30240</duration>
        <voice>2</voice>
        <type>half</type>
        <dot />
      </note>
      <note>
        <pitch>
          <step>C</step>
          <alter>1</alter>
          <octave>4</octave>
        </pitch>
        <duration>10080</duration>
        <voice>2</voice>
        <type>quarter</type>
      </note>
    </measure>
    <!--========================= Measure 6 ==========================-->
    <measure implicit="no" number="6">
      <note>
        <pitch>
          <step>F</step>
          <alter>1</alter>
          <octave>4</octave>
        </pitch>
        <duration>10080</duration>
        <voice>1</voice>
        <type>quarter</type>
        <lyric name="1" number="1">
          <syllabic>single</syllabic>
          <text>tals,</text>
        </lyric>
        <lyric name="2" number="2">
          <syllabic>single</syllabic>
          <text>He</text>
        </lyric>
        <lyric name="3" number="3">
          <syllabic>single</syllabic>
          <text>keys</text>
        </lyric>
        <lyric name="4" number="4">
          <syllabic>begin</syllabic>
          <text>ev</text>
        </lyric>
        <lyric name="5" number="5">
          <syllabic>single</syllabic>
          <text>take</text>
        </lyric>
      </note>
      <note>
        <pitch>
          <step>D</step>
          <octave>4</octave>
        </pitch>
        <duration>10080</duration>
        <voice>1</voice>
        <type>quarter</type>
        <lyric name="1" number="1">
          <syllabic>single</syllabic>
          <text>give</text>
        </lyric>
        <lyric name="2" number="2">
          <syllabic>single</syllabic>
          <text>had</text>
        </lyric>
        <lyric name="3" number="3">
          <syllabic>single</syllabic>
          <text>of</text>
        </lyric>
        <lyric name="4" number="4">
          <syllabic>end</syllabic>
          <text>ery</text>
        </lyric>
        <lyric name="5" number="5">
          <syllabic>single</syllabic>
          <text>His</text>
        </lyric>
      </note>
      <note>
        <pitch>
          <step>B</step>
          <octave>4</octave>
        </pitch>
        <duration>10080</duration>
        <voice>1</voice>
        <type>quarter</type>
        <lyric name="1" number="1">
          <syllabic>single</syllabic>
          <text>thanks</text>
        </lyric>
        <lyric name="2" number="2">
          <syllabic>single</syllabic>
          <text>purged</text>
        </lyric>
        <lyric name="3" number="3">
          <syllabic>single</syllabic>
          <text>death</text>
        </lyric>
        <lyric name="4" number="4">
          <syllabic>begin</syllabic>
          <text>bos</text>
        </lyric>
        <lyric name="5" number="5">
          <syllabic>begin</syllabic>
          <text>serv</text>
        </lyric>
      </note>
      <note>
        <pitch>
          <step>A</step>
          <octave>4</octave>
        </pitch>
        <duration>10080</duration>
        <voice>1</voice>
        <type>quarter</type>
        <lyric name="1" number="1">
          <syllabic>single</syllabic>
          <text>and</text>
        </lyric>
        <lyric name="2" number="2">
          <syllabic>single</syllabic>
          <text>our</text>
        </lyric>
        <lyric name="3" number="3">
          <syllabic>single</syllabic>
          <text>and</text>
        </lyric>
        <lyric name="4" number="4">
          <syllabic>end</syllabic>
          <text>om</text>
        </lyric>
        <lyric name="5" number="5">
          <syllabic>end</syllabic>
          <text>ants</text>
        </lyric>
      </note>
      <backup>
        <duration>40320</duration>
      </backup>
      <note>
        <pitch>
          <step>D</step>
          <octave>4</octave>
        </pitch>
        <duration>10080</duration>
        <voice>2</voice>
        <type>quarter</type>
      </note>
      <note>
        <pitch>
          <step>D</step>
          <octave>4</octave>
        </pitch>
        <duration>10080</duration>
        <voice>2</voice>
        <type>quarter</type>
      </note>
      <note>
        <pitch>
          <step>F</step>
          <alter>1</alter>
          <octave>4</octave>
        </pitch>
        <duration>10080</duration>
        <voice>2</voice>
        <type>quarter</type>
      </note>
      <note>
        <pitch>
          <step>E</step>
          <octave>4</octave>
        </pitch>
        <duration>10080</duration>
        <voice>2</voice>
        <type>quarter</type>
      </note>
    </measure>
    <!--========================= Measure 7 ==========================-->
    <measure implicit="no" number="7">
      <note>
        <pitch>
          <step>G</step>
          <alter>1</alter>
          <octave>4</octave>
        </pitch>
        <duration>10080</duration>
        <voice>1</voice>
        <type>quarter</type>
        <accidental>sharp</accidental>
        <lyric name="1" number="1">
          <syllabic>single</syllabic>
          <text>sing,</text>
        </lyric>
        <lyric name="2" number="2">
          <syllabic>single</syllabic>
          <text>stains,</text>
        </lyric>
        <lyric name="3" number="3">
          <syllabic>single</syllabic>
          <text>hell</text>
        </lyric>
        <lyric name="4" number="4">
          <syllabic>single</syllabic>
          <text>swell</text>
        </lyric>
        <lyric name="5" number="5">
          <syllabic>single</syllabic>
          <text>up</text>
        </lyric>
      </note>
      <note>
        <pitch>
          <step>E</step>
          <octave>4</octave>
        </pitch>
        <duration>10080</duration>
        <voice>1</voice>
        <type>quarter</type>
        <lyric name="1" number="1">
          <syllabic>single</syllabic>
          <text>And</text>
        </lyric>
        <lyric name="2" number="2">
          <syllabic>single</syllabic>
          <text>He</text>
        </lyric>
        <lyric name="3" number="3">
          <syllabic>single</syllabic>
          <text>Are</text>
        </lyric>
        <lyric name="4" number="4">
          <syllabic>single</syllabic>
          <text>With</text>
        </lyric>
        <lyric name="5" number="5">
          <syllabic>single</syllabic>
          <text>To</text>
        </lyric>
      </note>
      <note>
        <pitch>
          <step>E</step>
          <octave>5</octave>
        </pitch>
        <duration>10080</duration>
        <voice>1</voice>
        <type>quarter</type>
        <lyric name="1" number="1">
          <syllabic>begin</syllabic>
          <text>tri</text>
        </lyric>
        <lyric name="2" number="2">
          <syllabic>single</syllabic>
          <text>took</text>
        </lyric>
        <lyric name="3" number="3">
          <syllabic>single</syllabic>
          <text>to</text>
        </lyric>
        <lyric name="4" number="4">
          <syllabic>single</syllabic>
          <text>pure</text>
        </lyric>
        <lyric name="5" number="5">
          <syllabic>single</syllabic>
          <text>their</text>
        </lyric>
      </note>
      <note>
        <pitch>
          <step>D</step>
          <octave>5</octave>
        </pitch>
        <duration>10080</duration>
        <voice>1</voice>
        <type>quarter</type>
        <lyric name="1" number="1">
          <syllabic>end</syllabic>
          <text>umph</text>
        </lyric>
        <lyric name="2" number="2">
          <syllabic>single</syllabic>
          <text>His</text>
        </lyric>
        <lyric name="3" number="3">
          <syllabic>single</syllabic>
          <text>our</text>
        </lyric>
        <lyric name="4" number="4">
          <syllabic>single</syllabic>
          <text>se</text>
        </lyric>
        <lyric name="5" number="5">
          <syllabic>single</syllabic>
          <text>e</text>
        </lyric>
      </note>
      <backup>
        <duration>40320</duration>
      </backup>
      <note>
        <pitch>
          <step>E</step>
          <octave>4</octave>
        </pitch>
        <duration>10080</duration>
        <voice>2</voice>
        <type>quarter</type>
      </note>
      <note>
        <pitch>
          <step>E</step>
          <octave>4</octave>
        </pitch>
        <duration>10080</duration>
        <voice>2</voice>
        <type>quarter</type>
      </note>
      <note>
        <pitch>
          <step>E</step>
          <octave>4</octave>
        </pitch>
        <duration>10080</duration>
        <voice>2</voice>
        <type>quarter</type>
      </note>
      <note>
        <pitch>
          <step>F</step>
          <alter>1</alter>
          <octave>4</octave>
        </pitch>
        <duration>10080</duration>
        <voice>2</voice>
        <type>quarter</type>
      </note>
    </measure>
    <!--========================= Measure 8 ==========================-->
    <measure implicit="no" number="8">
      <note>
        <pitch>
          <step>C</step>
          <alter>1</alter>
          <octave>5</octave>
        </pitch>
        <duration>20160</duration>
        <voice>1</voice>
        <type>half</type>
        <lyric name="1" number="1">
          <syllabic>begin</syllabic>
          <text>ev</text>
        </lyric>
        <lyric name="2" number="2">
          <syllabic>single</syllabic>
          <text>seat</text>
        </lyric>
        <lyric name="3" number="3">
          <syllabic>begin</syllabic>
          <text>Je</text>
        </lyric>
        <lyric name="4" number="4">
          <syllabic>begin</syllabic>
          <text>raph</text>
        </lyric>
        <lyric name="5" number="5">
          <syllabic>begin</syllabic>
          <text>ter</text>
        </lyric>
      </note>
      <note>
        <pitch>
          <step>B</step>
          <octave>4</octave>
        </pitch>
        <duration>20160</duration>
        <voice>1</voice>
        <type>half</type>
        <lyric name="1" number="1">
          <syllabic>end</syllabic>
          <text>er</text>
        </lyric>
        <lyric name="2" number="2">
          <syllabic>single</syllabic>
          <text>a</text>
        </lyric>
        <lyric name="3" number="3">
          <syllabic>end</syllabic>
          <text>sus</text>
        </lyric>
        <lyric name="4" number="4">
          <syllabic>end</syllabic>
          <text>ic</text>
        </lyric>
        <lyric name="5" number="5">
          <syllabic>end</syllabic>
          <text>nal</text>
        </lyric>
      </note>
      <backup>
        <duration>40320</duration>
      </backup>
      <note>
        <pitch>
          <step>E</step>
          <octave>4</octave>
        </pitch>
        <duration>30240</duration>
        <voice>2</voice>
        <type>half</type>
        <dot />
      </note>
      <note>
        <pitch>
          <step>D</step>
          <octave>4</octave>
        </pitch>
        <duration>10080</duration>
        <voice>2</voice>
        <type>quarter</type>
      </note>
    </measure>
    <!--========================= Measure 9 ==========================-->
    <measure implicit="no" number="9">
      <note>
        <pitch>
          <step>A</step>
          <octave>4</octave>
        </pitch>
        <duration>30240</duration>
        <voice>1</voice>
        <type>half</type>
        <dot />
        <lyric name="1" number="1">
          <syllabic>single</syllabic>
          <text>more;</text>
        </lyric>
        <lyric name="2" number="2">
          <syllabic>single</syllabic>
          <text>bove;</text>
        </lyric>
        <lyric name="3" number="3">
          <syllabic>single</syllabic>
          <text>given;</text>
        </lyric>
        <lyric name="4" number="4">
          <syllabic>single</syllabic>
          <text>joy;</text>
        </lyric>
        <lyric name="5" number="5">
          <syllabic>single</syllabic>
          <text>home;</text>
        </lyric>
      </note>
      <note>
        <pitch>
          <step>A</step>
          <octave>4</octave>
        </pitch>
        <duration>10080</duration>
        <voice>1</voice>
        <type>quarter</type>
        <lyric name="1" number="1">
          <syllabic>single</syllabic>
          <text>Lift</text>
        </lyric>
        <lyric name="2" number="2">
          <syllabic>single</syllabic>
          <text>Lift</text>
        </lyric>
        <lyric name="3" number="3">
          <syllabic>single</syllabic>
          <text>Lift</text>
        </lyric>
        <lyric name="4" number="4">
          <syllabic>single</syllabic>
          <text>Lift</text>
        </lyric>
        <lyric name="5" number="5">
          <syllabic>single</syllabic>
          <text>We</text>
        </lyric>
      </note>
      <backup>
        <duration>40320</duration>
      </backup>
      <note>
        <pitch>
          <step>C</step>
          <alter>1</alter>
          <octave>4</octave>
        </pitch>
        <duration>30240</duration>
        <voice>2</voice>
        <type>half</type>
        <dot />
      </note>
      <note>
        <pitch>
          <step>D</step>
          <octave>4</octave>
        </pitch>
        <duration>10080</duration>
        <voice>2</voice>
        <type>quarter</type>
      </note>
    </measure>
    <!--========================= Measure 10 =========================-->
    <measure implicit="no" number="10">
      <note>
        <pitch>
          <step>B</step>
          <octave>4</octave>
        </pitch>
        <duration>20160</duration>
        <voice>1</voice>
        <type>half</type>
        <lyric name="1" number="1">
          <syllabic>single</syllabic>
          <text>up</text>
        </lyric>
        <lyric name="2" number="2">
          <syllabic>single</syllabic>
          <text>up</text>
        </lyric>
        <lyric name="3" number="3">
          <syllabic>single</syllabic>
          <text>up</text>
        </lyric>
        <lyric name="4" number="4">
          <syllabic>single</syllabic>
          <text>up</text>
        </lyric>
        <lyric name="5" number="5">
          <syllabic>single</syllabic>
          <text>soon</text>
        </lyric>
      </note>
      <note>
        <pitch>
          <step>C</step>
          <alter>1</alter>
          <octave>5</octave>
        </pitch>
        <duration>20160</duration>
        <voice>1</voice>
        <type>half</type>
        <lyric name="1" number="1">
          <syllabic>single</syllabic>
          <text>your</text>
        </lyric>
        <lyric name="2" number="2">
          <syllabic>single</syllabic>
          <text>your</text>
        </lyric>
        <lyric name="3" number="3">
          <syllabic>single</syllabic>
          <text>your</text>
        </lyric>
        <lyric name="4" number="4">
          <syllabic>single</syllabic>
          <text>your</text>
        </lyric>
        <lyric name="5" number="5">
          <syllabic>single</syllabic>
          <text>shall</text>
        </lyric>
      </note>
      <backup>
        <duration>40320</duration>
      </backup>
      <note>
        <pitch>
          <step>D</step>
          <octave>4</octave>
        </pitch>
        <duration>20160</duration>
        <voice>2</voice>
        <type>half</type>
      </note>
      <note>
        <pitch>
          <step>G</step>
          <octave>4</octave>
        </pitch>
        <duration>20160</duration>
        <voice>2</voice>
        <type>half</type>
      </note>
    </measure>
    <!--========================= Measure 11 =========================-->
    <measure implicit="no" number="11">
      <note>
        <pitch>
          <step>D</step>
          <octave>5</octave>
        </pitch>
        <duration>30240</duration>
        <voice>1</voice>
        <type>half</type>
        <dot />
        <lyric name="1" number="1">
          <syllabic>single</syllabic>
          <text>heart,</text>
        </lyric>
        <lyric name="2" number="2">
          <syllabic>single</syllabic>
          <text>heart,</text>
        </lyric>
        <lyric name="3" number="3">
          <syllabic>single</syllabic>
          <text>heart,</text>
        </lyric>
        <lyric name="4" number="4">
          <syllabic>single</syllabic>
          <text>heart,</text>
        </lyric>
        <lyric name="5" number="5">
          <syllabic>single</syllabic>
          <text>hear</text>
        </lyric>
      </note>
      <note>
        <pitch>
          <step>D</step>
          <octave>4</octave>
        </pitch>
        <duration>10080</duration>
        <voice>1</voice>
        <type>quarter</type>
        <lyric name="1" number="1">
          <syllabic>single</syllabic>
          <text>lift</text>
        </lyric>
        <lyric name="2" number="2">
          <syllabic>single</syllabic>
          <text>lift</text>
        </lyric>
        <lyric name="3" number="3">
          <syllabic>single</syllabic>
          <text>lift</text>
        </lyric>
        <lyric name="4" number="4">
          <syllabic>single</syllabic>
          <text>lift</text>
        </lyric>
        <lyric name="5" number="5">
          <syllabic>single</syllabic>
          <text>the arc</text>
        </lyric>
      </note>
      <backup>
        <duration>40320</duration>
      </backup>
      <note>
        <pitch>
          <step>F</step>
          <alter>1</alter>
          <octave>4</octave>
        </pitch>
        <duration>30240</duration>
        <voice>2</voice>
        <type>half</type>
        <dot />
      </note>
      <note>
        <pitch>
          <step>D</step>
          <octave>4</octave>
        </pitch>
        <duration>10080</duration>
        <voice>2</voice>
        <type>quarter</type>
      </note>
    </measure>
    <!--========================= Measure 12 =========================-->
    <measure implicit="no" number="12">
      <note>
        <pitch>
          <step>E</step>
          <octave>4</octave>
        </pitch>
        <duration>10080</duration>
        <voice>1</voice>
        <type>quarter</type>
        <lyric name="1" number="1">
          <syllabic>single</syllabic>
          <text>up</text>
        </lyric>
        <lyric name="2" number="2">
          <syllabic>single</syllabic>
          <text>up</text>
        </lyric>
        <lyric name="3" number="3">
          <syllabic>single</syllabic>
          <text>up</text>
        </lyric>
        <lyric name="4" number="4">
          <syllabic>single</syllabic>
          <text>up</text>
        </lyric>
        <lyric name="5" number="5">
          <syllabic>begin</syllabic>
          <text>an</text>
        </lyric>
      </note>
      <note>
        <pitch>
          <step>F</step>
          <alter>1</alter>
          <octave>4</octave>
        </pitch>
        <duration>10080</duration>
        <voice>1</voice>
        <type>quarter</type>
        <lyric name="1" number="1">
          <syllabic>single</syllabic>
          <text>your</text>
        </lyric>
        <lyric name="2" number="2">
          <syllabic>single</syllabic>
          <text>your</text>
        </lyric>
        <lyric name="3" number="3">
          <syllabic>single</syllabic>
          <text>your</text>
        </lyric>
        <lyric name="4" number="4">
          <syllabic>single</syllabic>
          <text>your</text>
        </lyric>
        <lyric name="5" number="5">
          <syllabic>end</syllabic>
          <text>gels</text>
        </lyric>
      </note>
      <note>
        <rest />
        <duration>10080</duration>
        <voice>1</voice>
        <type>quarter</type>
      </note>
      <note>
        <rest />
        <duration>10080</duration>
        <voice>1</voice>
        <type>quarter</type>
      </note>
      <backup>
        <duration>40320</duration>
      </backup>
      <note>
        <pitch>
          <step>A</step>
          <octave>3</octave>
        </pitch>
        <duration>10080</duration>
        <voice>2</voice>
        <type>quarter</type>
      </note>
      <note>
        <pitch>
          <step>D</step>
          <octave>4</octave>
        </pitch>
        <duration>10080</duration>
        <voice>2</voice>
        <type>quarter</type>
      </note>
      <note>
        <rest />
        <duration>10080</duration>
        <voice>2</voice>
        <type>quarter</type>
      </note>
      <note>
        <rest />
        <duration>10080</duration>
        <voice>2</voice>
        <type>quarter</type>
      </note>
    </measure>
    <!--========================= Measure 13 =========================-->
    <measure implicit="no" number="13">
      <note>
        <rest />
        <duration>10080</duration>
        <voice>1</voice>
        <type>quarter</type>
      </note>
      <note>
        <rest />
        <duration>10080</duration>
        <voice>1</voice>
        <type>quarter</type>
      </note>
      <note>
        <pitch>
          <step>G</step>
          <octave>4</octave>
        </pitch>
        <duration>10080</duration>
        <voice>1</voice>
        <type>quarter</type>
        <lyric name="1" number="1">
          <syllabic>single</syllabic>
          <text>voice,</text>
        </lyric>
        <lyric name="2" number="2">
          <syllabic>single</syllabic>
          <text>voice,</text>
        </lyric>
        <lyric name="3" number="3">
          <syllabic>single</syllabic>
          <text>voice,</text>
        </lyric>
        <lyric name="4" number="4">
          <syllabic>single</syllabic>
          <text>voice,</text>
        </lyric>
        <lyric name="5" number="5">
          <syllabic>single</syllabic>
          <text>voice,</text>
        </lyric>
      </note>
      <note>
        <pitch>
          <step>A</step>
          <octave>4</octave>
        </pitch>
        <duration>10080</duration>
        <voice>1</voice>
        <type>quarter</type>
        <lyric name="1" number="1">
          <syllabic>single</syllabic>
          <text>Re</text>
        </lyric>
        <lyric name="2" number="2">
          <syllabic>single</syllabic>
          <text>Re</text>
        </lyric>
        <lyric name="3" number="3">
          <syllabic>single</syllabic>
          <text>Re</text>
        </lyric>
        <lyric name="4" number="4">
          <syllabic>single</syllabic>
          <text>Re</text>
        </lyric>
        <lyric name="5" number="5">
          <syllabic>single</syllabic>
          <text>The</text>
        </lyric>
      </note>
      <backup>
        <duration>40320</duration>
      </backup>
      <note>
        <rest />
        <duration>10080</duration>
        <voice>2</voice>
        <type>quarter</type>
      </note>
      <note>
        <rest />
        <duration>10080</duration>
        <voice>2</voice>
        <type>quarter</type>
      </note>
      <note>
        <pitch>
          <step>G</step>
          <octave>4</octave>
        </pitch>
        <duration>10080</duration>
        <voice>2</voice>
        <type>quarter</type>
      </note>
      <note>
        <pitch>
          <step>F</step>
          <alter>1</alter>
          <octave>4</octave>
        </pitch>
        <duration>10080</duration>
        <voice>2</voice>
        <type>quarter</type>
      </note>
    </measure>
    <!--========================= Measure 14 =========================-->
    <measure implicit="no" number="14">
      <note>
        <pitch>
          <step>B</step>
          <octave>4</octave>
        </pitch>
        <duration>10080</duration>
        <voice>1</voice>
        <type>quarter</type>
        <lyric name="1" number="1">
          <syllabic>single</syllabic>
          <text>joice,</text>
        </lyric>
        <lyric name="2" number="2">
          <syllabic>single</syllabic>
          <text>joice,</text>
        </lyric>
        <lyric name="3" number="3">
          <syllabic>single</syllabic>
          <text>joice,</text>
        </lyric>
        <lyric name="4" number="4">
          <syllabic>single</syllabic>
          <text>joice,</text>
        </lyric>
        <lyric name="5" number="5">
          <syllabic>single</syllabic>
          <text>trump</text>
        </lyric>
      </note>
      <note>
        <pitch>
          <step>C</step>
          <alter>1</alter>
          <octave>5</octave>
        </pitch>
        <duration>10080</duration>
        <voice>1</voice>
        <type>quarter</type>
        <lyric name="1" number="1">
          <syllabic>begin</syllabic>
          <text>a</text>
        </lyric>
        <lyric name="2" number="2">
          <syllabic>begin</syllabic>
          <text>a</text>
        </lyric>
        <lyric name="3" number="3">
          <syllabic>begin</syllabic>
          <text>a</text>
        </lyric>
        <lyric name="4" number="4">
          <syllabic>begin</syllabic>
          <text>a</text>
        </lyric>
        <lyric name="5" number="5">
          <syllabic>single</syllabic>
          <text>of</text>
        </lyric>
      </note>
      <note>
        <pitch>
          <step>D</step>
          <octave>5</octave>
        </pitch>
        <duration>10080</duration>
        <voice>1</voice>
        <type>quarter</type>
        <lyric name="1" number="1">
          <syllabic>end</syllabic>
          <text>gain</text>
        </lyric>
        <lyric name="2" number="2">
          <syllabic>end</syllabic>
          <text>gain</text>
        </lyric>
        <lyric name="3" number="3">
          <syllabic>end</syllabic>
          <text>gain</text>
        </lyric>
        <lyric name="4" number="4">
          <syllabic>end</syllabic>
          <text>gain</text>
        </lyric>
        <lyric name="5" number="5">
          <syllabic>single</syllabic>
          <text>God</text>
        </lyric>
      </note>
      <note>
        <pitch>
          <step>E</step>
          <octave>5</octave>
        </pitch>
        <duration>10080</duration>
        <voice>1</voice>
        <type>quarter</type>
        <lyric name="1" number="1">
          <syllabic>single</syllabic>
          <text>I</text>
        </lyric>
        <lyric name="2" number="2">
          <syllabic>single</syllabic>
          <text>I</text>
        </lyric>
        <lyric name="3" number="3">
          <syllabic>single</syllabic>
          <text>I</text>
        </lyric>
        <lyric name="4" number="4">
          <syllabic>single</syllabic>
          <text>I</text>
        </lyric>
        <lyric name="5" number="5">
          <syllabic>single</syllabic>
          <text>shall</text>
        </lyric>
      </note>
      <backup>
        <duration>40320</duration>
      </backup>
      <note>
        <pitch>
          <step>D</step>
          <octave>4</octave>
        </pitch>
        <duration>10080</duration>
        <voice>2</voice>
        <type>quarter</type>
      </note>
      <note>
        <pitch>
          <step>F</step>
          <alter>1</alter>
          <octave>4</octave>
        </pitch>
        <duration>10080</duration>
        <voice>2</voice>
        <type>quarter</type>
      </note>
      <note>
        <pitch>
          <step>F</step>
          <alter>1</alter>
          <octave>4</octave>
        </pitch>
        <duration>10080</duration>
        <voice>2</voice>
        <type>quarter</type>
      </note>
      <note>
        <pitch>
          <step>E</step>
          <octave>4</octave>
        </pitch>
        <duration>10080</duration>
        <voice>2</voice>
        <type>quarter</type>
      </note>
    </measure>
    <!--========================= Measure 15 =========================-->
    <measure implicit="no" number="15">
      <note>
        <pitch>
          <step>D</step>
          <octave>5</octave>
        </pitch>
        <duration>20160</duration>
        <voice>1</voice>
        <type>half</type>
        <lyric name="1" number="1">
          <syllabic>single</syllabic>
          <text>say,</text>
        </lyric>
        <lyric name="2" number="2">
          <syllabic>single</syllabic>
          <text>say,</text>
        </lyric>
        <lyric name="3" number="3">
          <syllabic>single</syllabic>
          <text>say,</text>
        </lyric>
        <lyric name="4" number="4">
          <syllabic>single</syllabic>
          <text>say,</text>
        </lyric>
        <lyric name="5" number="5">
          <syllabic>single</syllabic>
          <text>sound,</text>
        </lyric>
      </note>
      <note>
        <pitch>
          <step>C</step>
          <alter>1</alter>
          <octave>5</octave>
        </pitch>
        <duration>20160</duration>
        <voice>1</voice>
        <type>half</type>
        <lyric name="1" number="1">
          <syllabic>single</syllabic>
          <text>re</text>
        </lyric>
        <lyric name="2" number="2">
          <syllabic>single</syllabic>
          <text>re</text>
        </lyric>
        <lyric name="3" number="3">
          <syllabic>single</syllabic>
          <text>re</text>
        </lyric>
        <lyric name="4" number="4">
          <syllabic>single</syllabic>
          <text>re</text>
        </lyric>
        <lyric name="5" number="5">
          <syllabic>single</syllabic>
          <text>Re</text>
        </lyric>
      </note>
      <backup>
        <duration>40320</duration>
      </backup>
      <note>
        <pitch>
          <step>F</step>
          <alter>1</alter>
          <octave>4</octave>
        </pitch>
        <duration>20160</duration>
        <voice>2</voice>
        <type>half</type>
      </note>
      <note>
        <pitch>
          <step>E</step>
          <octave>4</octave>
        </pitch>
        <duration>10080</duration>
        <voice>2</voice>
        <type>quarter</type>
      </note>
      <note>
        <pitch>
          <step>G</step>
          <octave>4</octave>
        </pitch>
        <duration>10080</duration>
        <voice>2</voice>
        <type>quarter</type>
      </note>
    </measure>
    <!--========================= Measure 16 =========================-->
    <measure implicit="no" number="16">
      <note>
        <pitch>
          <step>D</step>
          <octave>5</octave>
        </pitch>
        <duration>30240</duration>
        <voice>1</voice>
        <type>half</type>
        <dot />
        <lyric name="1" number="1">
          <syllabic>single</syllabic>
          <text>joice.</text>
        </lyric>
        <lyric name="2" number="2">
          <syllabic>single</syllabic>
          <text>joice.</text>
        </lyric>
        <lyric name="3" number="3">
          <syllabic>single</syllabic>
          <text>joice.</text>
        </lyric>
        <lyric name="4" number="4">
          <syllabic>single</syllabic>
          <text>joice.</text>
        </lyric>
        <lyric name="5" number="5">
          <syllabic>single</syllabic>
          <text>joice.</text>
        </lyric>
      </note>
      <note>
        <rest />
        <duration>10080</duration>
        <voice>1</voice>
        <type>quarter</type>
      </note>
      <backup>
        <duration>40320</duration>
      </backup>
      <note>
        <pitch>
          <step>F</step>
          <alter>1</alter>
          <octave>4</octave>
        </pitch>
        <duration>30240</duration>
        <voice>2</voice>
        <type>half</type>
        <dot />
      </note>
      <note>
        <rest />
        <duration>10080</duration>
        <voice>2</voice>
        <type>quarter</type>
      </note>
      <barline location="right">
        <bar-style>light-heavy</bar-style>
      </barline>
    </measure>
  </part>
  <!--=========================== Part 2 ===========================-->
  <part id="P870c53fe5c64cd6eeb2b33fa4858a948">
    <!--========================= Measure 1 ==========================-->
    <measure implicit="no" number="1">
      <attributes>
        <divisions>10080</divisions>
        <key>
          <fifths>2</fifths>
          <mode>major</mode>
        </key>
        <time>
          <beats>4</beats>
          <beat-type>4</beat-type>
        </time>
        <clef>
          <sign>F</sign>
          <line>4</line>
        </clef>
      </attributes>
      <note>
        <pitch>
          <step>F</step>
          <alter>1</alter>
          <octave>3</octave>
        </pitch>
        <duration>10080</duration>
        <voice>1</voice>
        <type>quarter</type>
      </note>
      <note>
        <rest />
        <duration>30240</duration>
        <voice>1</voice>
        <type>half</type>
        <dot />
      </note>
      <backup>
        <duration>40320</duration>
      </backup>
      <note>
        <pitch>
          <step>D</step>
          <octave>3</octave>
        </pitch>
        <duration>10080</duration>
        <voice>2</voice>
        <type>quarter</type>
      </note>
      <note>
        <rest />
        <duration>30240</duration>
        <voice>2</voice>
        <type>half</type>
        <dot />
      </note>
    </measure>
    <!--========================= Measure 2 ==========================-->
    <measure implicit="no" number="2">
      <note>
        <pitch>
          <step>A</step>
          <octave>3</octave>
        </pitch>
        <duration>10080</duration>
        <voice>1</voice>
        <type>quarter</type>
      </note>
      <note>
        <pitch>
          <step>F</step>
          <alter>1</alter>
          <octave>3</octave>
        </pitch>
        <duration>10080</duration>
        <voice>1</voice>
        <type>quarter</type>
      </note>
      <note>
        <pitch>
          <step>A</step>
          <octave>3</octave>
        </pitch>
        <duration>10080</duration>
        <voice>1</voice>
        <type>quarter</type>
      </note>
      <note>
        <pitch>
          <step>A</step>
          <octave>3</octave>
        </pitch>
        <duration>10080</duration>
        <voice>1</voice>
        <type>quarter</type>
      </note>
      <backup>
        <duration>40320</duration>
      </backup>
      <note>
        <pitch>
          <step>D</step>
          <octave>3</octave>
        </pitch>
        <duration>10080</duration>
        <voice>2</voice>
        <type>quarter</type>
      </note>
      <note>
        <pitch>
          <step>D</step>
          <octave>3</octave>
        </pitch>
        <duration>10080</duration>
        <voice>2</voice>
        <type>quarter</type>
      </note>
      <note>
        <pitch>
          <step>C</step>
          <alter>1</alter>
          <octave>3</octave>
        </pitch>
        <duration>10080</duration>
        <voice>2</voice>
        <type>quarter</type>
      </note>
      <note>
        <pitch>
          <step>D</step>
          <octave>3</octave>
        </pitch>
        <duration>10080</duration>
        <voice>2</voice>
        <type>quarter</type>
      </note>
    </measure>
    <!--========================= Measure 3 ==========================-->
    <measure implicit="no" number="3">
      <note>
        <pitch>
          <step>D</step>
          <octave>4</octave>
        </pitch>
        <duration>30240</duration>
        <voice>1</voice>
        <type>half</type>
        <dot />
      </note>
      <note>
        <pitch>
          <step>D</step>
          <octave>4</octave>
        </pitch>
        <duration>10080</duration>
        <voice>1</voice>
        <type>quarter</type>
      </note>
      <backup>
        <duration>40320</duration>
      </backup>
      <note>
        <pitch>
          <step>B</step>
          <octave>3</octave>
        </pitch>
        <duration>30240</duration>
        <voice>2</voice>
        <type>half</type>
        <dot />
      </note>
      <note>
        <pitch>
          <step>A</step>
          <octave>3</octave>
        </pitch>
        <duration>10080</duration>
        <voice>2</voice>
        <type>quarter</type>
      </note>
    </measure>
    <!--========================= Measure 4 ==========================-->
    <measure implicit="no" number="4">
      <note>
        <pitch>
          <step>D</step>
          <octave>4</octave>
        </pitch>
        <duration>10080</duration>
        <voice>1</voice>
        <type>quarter</type>
      </note>
      <note>
        <pitch>
          <step>A</step>
          <octave>3</octave>
        </pitch>
        <duration>10080</duration>
        <voice>1</voice>
        <type>quarter</type>
      </note>
      <note>
        <pitch>
          <step>A</step>
          <octave>3</octave>
        </pitch>
        <duration>10080</duration>
        <voice>1</voice>
        <type>quarter</type>
      </note>
      <note>
        <pitch>
          <step>A</step>
          <octave>3</octave>
        </pitch>
        <duration>10080</duration>
        <voice>1</voice>
        <type>quarter</type>
      </note>
      <backup>
        <duration>40320</duration>
      </backup>
      <note>
        <pitch>
          <step>G</step>
          <octave>3</octave>
        </pitch>
        <duration>10080</duration>
        <voice>2</voice>
        <type>quarter</type>
      </note>
      <note>
        <pitch>
          <step>F</step>
          <alter>1</alter>
          <octave>3</octave>
        </pitch>
        <duration>10080</duration>
        <voice>2</voice>
        <type>quarter</type>
      </note>
      <note>
        <pitch>
          <step>E</step>
          <octave>3</octave>
        </pitch>
        <duration>10080</duration>
        <voice>2</voice>
        <type>quarter</type>
      </note>
      <note>
        <pitch>
          <step>D</step>
          <octave>3</octave>
        </pitch>
        <duration>10080</duration>
        <voice>2</voice>
        <type>quarter</type>
      </note>
    </measure>
    <!--========================= Measure 5 ==========================-->
    <measure implicit="no" number="5">
      <note>
        <pitch>
          <step>A</step>
          <octave>3</octave>
        </pitch>
        <duration>30240</duration>
        <voice>1</voice>
        <type>half</type>
        <dot />
      </note>
      <note>
        <pitch>
          <step>A</step>
          <octave>3</octave>
        </pitch>
        <duration>10080</duration>
        <voice>1</voice>
        <type>quarter</type>
      </note>
      <backup>
        <duration>40320</duration>
      </backup>
      <note>
        <pitch>
          <step>A</step>
          <octave>2</octave>
        </pitch>
        <duration>30240</duration>
        <voice>2</voice>
        <type>half</type>
        <dot />
      </note>
      <note>
        <pitch>
          <step>A</step>
          <octave>2</octave>
        </pitch>
        <duration>10080</duration>
        <voice>2</voice>
        <type>quarter</type>
      </note>
    </measure>
    <!--========================= Measure 6 ==========================-->
    <measure implicit="no" number="6">
      <note>
        <pitch>
          <step>A</step>
          <octave>3</octave>
        </pitch>
        <duration>10080</duration>
        <voice>1</voice>
        <type>quarter</type>
      </note>
      <note>
        <pitch>
          <step>F</step>
          <alter>1</alter>
          <octave>3</octave>
        </pitch>
        <duration>10080</duration>
        <voice>1</voice>
        <type>quarter</type>
      </note>
      <note>
        <pitch>
          <step>D</step>
          <octave>4</octave>
        </pitch>
        <duration>10080</duration>
        <voice>1</voice>
        <type>quarter</type>
      </note>
      <note>
        <pitch>
          <step>C</step>
          <alter>1</alter>
          <octave>4</octave>
        </pitch>
        <duration>10080</duration>
        <voice>1</voice>
        <type>quarter</type>
      </note>
      <backup>
        <duration>40320</duration>
      </backup>
      <note>
        <pitch>
          <step>D</step>
          <octave>3</octave>
        </pitch>
        <duration>10080</duration>
        <voice>2</voice>
        <type>quarter</type>
      </note>
      <note>
        <pitch>
          <step>D</step>
          <octave>3</octave>
        </pitch>
        <duration>10080</duration>
        <voice>2</voice>
        <type>quarter</type>
      </note>
      <note>
        <pitch>
          <step>B</step>
          <octave>2</octave>
        </pitch>
        <duration>10080</duration>
        <voice>2</voice>
        <type>quarter</type>
      </note>
      <note>
        <pitch>
          <step>C</step>
          <alter>1</alter>
          <octave>3</octave>
        </pitch>
        <duration>5040</duration>
        <voice>2</voice>
        <type>eighth</type>
        <stem>up</stem>
        <beam number="1">begin</beam>
      </note>
      <note>
        <pitch>
          <step>D</step>
          <octave>3</octave>
        </pitch>
        <duration>5040</duration>
        <voice>2</voice>
        <type>eighth</type>
        <stem>up</stem>
        <beam number="1">end</beam>
      </note>
    </measure>
    <!--========================= Measure 7 ==========================-->
    <measure implicit="no" number="7">
      <note>
        <pitch>
          <step>B</step>
          <octave>3</octave>
        </pitch>
        <duration>10080</duration>
        <voice>1</voice>
        <type>quarter</type>
      </note>
      <note>
        <pitch>
          <step>G</step>
          <alter>1</alter>
          <octave>3</octave>
        </pitch>
        <duration>10080</duration>
        <voice>1</voice>
        <type>quarter</type>
        <accidental>sharp</accidental>
      </note>
      <note>
        <pitch>
          <step>A</step>
          <octave>3</octave>
        </pitch>
        <duration>10080</duration>
        <voice>1</voice>
        <type>quarter</type>
      </note>
      <note>
        <pitch>
          <step>A</step>
          <octave>3</octave>
        </pitch>
        <duration>10080</duration>
        <voice>1</voice>
        <type>quarter</type>
      </note>
      <backup>
        <duration>40320</duration>
      </backup>
      <note>
        <pitch>
          <step>E</step>
          <octave>3</octave>
        </pitch>
        <duration>10080</duration>
        <voice>2</voice>
        <type>quarter</type>
      </note>
      <note>
        <pitch>
          <step>D</step>
          <octave>3</octave>
        </pitch>
        <duration>10080</duration>
        <voice>2</voice>
        <type>quarter</type>
      </note>
      <note>
        <pitch>
          <step>C</step>
          <alter>1</alter>
          <octave>3</octave>
        </pitch>
        <duration>10080</duration>
        <voice>2</voice>
        <type>quarter</type>
      </note>
      <note>
        <pitch>
          <step>D</step>
          <octave>3</octave>
        </pitch>
        <duration>10080</duration>
        <voice>2</voice>
        <type>quarter</type>
      </note>
    </measure>
    <!--========================= Measure 8 ==========================-->
    <measure implicit="no" number="8">
      <note>
        <pitch>
          <step>A</step>
          <octave>3</octave>
        </pitch>
        <duration>20160</duration>
        <voice>1</voice>
        <type>half</type>
      </note>
      <note>
        <pitch>
          <step>G</step>
          <alter>1</alter>
          <octave>3</octave>
        </pitch>
        <duration>20160</duration>
        <voice>1</voice>
        <type>half</type>
        <accidental>sharp</accidental>
      </note>
      <backup>
        <duration>40320</duration>
      </backup>
      <note>
        <pitch>
          <step>E</step>
          <octave>3</octave>
        </pitch>
        <duration>20160</duration>
        <voice>2</voice>
        <type>half</type>
      </note>
      <note>
        <pitch>
          <step>E</step>
          <octave>3</octave>
        </pitch>
        <duration>20160</duration>
        <voice>2</voice>
        <type>half</type>
      </note>
    </measure>
    <!--========================= Measure 9 ==========================-->
    <measure implicit="no" number="9">
      <note>
        <pitch>
          <step>A</step>
          <octave>3</octave>
        </pitch>
        <duration>30240</duration>
        <voice>1</voice>
        <type>half</type>
        <dot />
      </note>
      <note>
        <pitch>
          <step>F</step>
          <alter>1</alter>
          <octave>3</octave>
        </pitch>
        <duration>10080</duration>
        <voice>1</voice>
        <type>quarter</type>
      </note>
      <backup>
        <duration>40320</duration>
      </backup>
      <note>
        <pitch>
          <step>A</step>
          <octave>2</octave>
        </pitch>
        <duration>30240</duration>
        <voice>2</voice>
        <type>half</type>
        <dot />
      </note>
      <note>
        <pitch>
          <step>D</step>
          <octave>3</octave>
        </pitch>
        <duration>10080</duration>
        <voice>2</voice>
        <type>quarter</type>
      </note>
    </measure>
    <!--========================= Measure 10 =========================-->
    <measure implicit="no" number="10">
      <note>
        <pitch>
          <step>G</step>
          <octave>3</octave>
        </pitch>
        <duration>20160</duration>
        <voice>1</voice>
        <type>half</type>
      </note>
      <note>
        <pitch>
          <step>A</step>
          <octave>3</octave>
        </pitch>
        <duration>20160</duration>
        <voice>1</voice>
        <type>half</type>
      </note>
      <backup>
        <duration>40320</duration>
      </backup>
      <note>
        <pitch>
          <step>G</step>
          <octave>3</octave>
        </pitch>
        <duration>20160</duration>
        <voice>2</voice>
        <type>half</type>
      </note>
      <note>
        <pitch>
          <step>E</step>
          <octave>3</octave>
        </pitch>
        <duration>20160</duration>
        <voice>2</voice>
        <type>half</type>
      </note>
    </measure>
    <!--========================= Measure 11 =========================-->
    <measure implicit="no" number="11">
      <note>
        <pitch>
          <step>A</step>
          <octave>3</octave>
        </pitch>
        <duration>30240</duration>
        <voice>1</voice>
        <type>half</type>
        <dot />
      </note>
      <note>
        <pitch>
          <step>F</step>
          <alter>1</alter>
          <octave>3</octave>
        </pitch>
        <duration>10080</duration>
        <voice>1</voice>
        <type>quarter</type>
      </note>
      <backup>
        <duration>40320</duration>
      </backup>
      <note>
        <pitch>
          <step>D</step>
          <octave>3</octave>
        </pitch>
        <duration>30240</duration>
        <voice>2</voice>
        <type>half</type>
        <dot />
      </note>
      <note>
        <pitch>
          <step>D</step>
          <octave>3</octave>
        </pitch>
        <duration>10080</duration>
        <voice>2</voice>
        <type>quarter</type>
      </note>
    </measure>
    <!--========================= Measure 12 =========================-->
    <measure implicit="no" number="12">
      <note>
        <pitch>
          <step>A</step>
          <octave>3</octave>
        </pitch>
        <duration>10080</duration>
        <voice>1</voice>
        <type>quarter</type>
      </note>
      <note>
        <pitch>
          <step>A</step>
          <octave>3</octave>
        </pitch>
        <duration>10080</duration>
        <voice>1</voice>
        <type>quarter</type>
      </note>
      <note>
        <rest />
        <duration>10080</duration>
        <voice>1</voice>
        <type>quarter</type>
      </note>
      <note>
        <rest />
        <duration>10080</duration>
        <voice>1</voice>
        <type>quarter</type>
      </note>
      <backup>
        <duration>40320</duration>
      </backup>
      <note>
        <pitch>
          <step>C</step>
          <alter>1</alter>
          <octave>3</octave>
        </pitch>
        <duration>10080</duration>
        <voice>2</voice>
        <type>quarter</type>
      </note>
      <note>
        <pitch>
          <step>D</step>
          <octave>3</octave>
        </pitch>
        <duration>10080</duration>
        <voice>2</voice>
        <type>quarter</type>
      </note>
      <note>
        <rest />
        <duration>10080</duration>
        <voice>2</voice>
        <type>quarter</type>
      </note>
      <note>
        <rest />
        <duration>10080</duration>
        <voice>2</voice>
        <type>quarter</type>
      </note>
    </measure>
    <!--========================= Measure 13 =========================-->
    <measure implicit="no" number="13">
      <note>
        <rest />
        <duration>10080</duration>
        <voice>1</voice>
        <type>quarter</type>
      </note>
      <note>
        <rest />
        <duration>10080</duration>
        <voice>1</voice>
        <type>quarter</type>
      </note>
      <note>
        <pitch>
          <step>D</step>
          <octave>4</octave>
        </pitch>
        <duration>10080</duration>
        <voice>1</voice>
        <type>quarter</type>
      </note>
      <note>
        <pitch>
          <step>D</step>
          <octave>4</octave>
        </pitch>
        <duration>10080</duration>
        <voice>1</voice>
        <type>quarter</type>
      </note>
      <backup>
        <duration>40320</duration>
      </backup>
      <note>
        <rest />
        <duration>10080</duration>
        <voice>2</voice>
        <type>quarter</type>
      </note>
      <note>
        <rest />
        <duration>10080</duration>
        <voice>2</voice>
        <type>quarter</type>
      </note>
      <note>
        <pitch>
          <step>B</step>
          <octave>3</octave>
        </pitch>
        <duration>10080</duration>
        <voice>2</voice>
        <type>quarter</type>
      </note>
      <note>
        <pitch>
          <step>A</step>
          <octave>3</octave>
        </pitch>
        <duration>10080</duration>
        <voice>2</voice>
        <type>quarter</type>
      </note>
    </measure>
    <!--========================= Measure 14 =========================-->
    <measure implicit="no" number="14">
      <note>
        <pitch>
          <step>B</step>
          <octave>3</octave>
        </pitch>
        <duration>10080</duration>
        <voice>1</voice>
        <type>quarter</type>
      </note>
      <note>
        <pitch>
          <step>A</step>
          <alter>1</alter>
          <octave>3</octave>
        </pitch>
        <duration>10080</duration>
        <voice>1</voice>
        <type>quarter</type>
        <accidental>sharp</accidental>
      </note>
      <note>
        <pitch>
          <step>B</step>
          <octave>3</octave>
        </pitch>
        <duration>10080</duration>
        <voice>1</voice>
        <type>quarter</type>
      </note>
      <note>
        <pitch>
          <step>B</step>
          <octave>3</octave>
        </pitch>
        <duration>10080</duration>
        <voice>1</voice>
        <type>quarter</type>
      </note>
      <backup>
        <duration>40320</duration>
      </backup>
      <note>
        <pitch>
          <step>G</step>
          <octave>3</octave>
        </pitch>
        <duration>10080</duration>
        <voice>2</voice>
        <type>quarter</type>
      </note>
      <note>
        <pitch>
          <step>F</step>
          <alter>1</alter>
          <octave>3</octave>
        </pitch>
        <duration>10080</duration>
        <voice>2</voice>
        <type>quarter</type>
      </note>
      <note>
        <pitch>
          <step>B</step>
          <octave>3</octave>
        </pitch>
        <duration>10080</duration>
        <voice>2</voice>
        <type>quarter</type>
      </note>
      <note>
        <pitch>
          <step>G</step>
          <octave>3</octave>
        </pitch>
        <duration>10080</duration>
        <voice>2</voice>
        <type>quarter</type>
      </note>
    </measure>
    <!--========================= Measure 15 =========================-->
    <measure implicit="no" number="15">
      <note>
        <pitch>
          <step>A</step>
          <alter>0</alter>
          <octave>3</octave>
        </pitch>
        <duration>20160</duration>
        <voice>1</voice>
        <type>half</type>
        <accidental>natural</accidental>
      </note>
      <note>
        <pitch>
          <step>A</step>
          <octave>3</octave>
        </pitch>
        <duration>20160</duration>
        <voice>1</voice>
        <type>half</type>
      </note>
      <backup>
        <duration>40320</duration>
      </backup>
      <note>
        <pitch>
          <step>A</step>
          <octave>3</octave>
        </pitch>
        <duration>20160</duration>
        <voice>2</voice>
        <type>half</type>
      </note>
      <note>
        <pitch>
          <step>A</step>
          <octave>2</octave>
        </pitch>
        <duration>20160</duration>
        <voice>2</voice>
        <type>half</type>
      </note>
    </measure>
    <!--========================= Measure 16 =========================-->
    <measure implicit="no" number="16">
      <note>
        <pitch>
          <step>A</step>
          <octave>3</octave>
        </pitch>
        <duration>30240</duration>
        <voice>1</voice>
        <type>half</type>
        <dot />
      </note>
      <note>
        <rest />
        <duration>10080</duration>
        <voice>1</voice>
        <type>quarter</type>
      </note>
      <backup>
        <duration>40320</duration>
      </backup>
      <note>
        <pitch>
          <step>D</step>
          <octave>3</octave>
        </pitch>
        <duration>30240</duration>
        <voice>2</voice>
        <type>half</type>
        <dot />
      </note>
      <note>
        <rest />
        <duration>10080</duration>
        <voice>2</voice>
        <type>quarter</type>
      </note>
      <barline location="right">
        <bar-style>light-heavy</bar-style>
      </barline>
    </measure>
  </part>
</score-partwise>