<svg viewBox="0 0 840 1088" version="1.1" xmlns="http://www.w3.org/2000/svg" xmlns:xlink="http://www.w3.org/1999/xlink" overflow="visible" id="l19nj5e9">
   <desc>Engraved by Verovio 6.2.1-8d42439</desc>
   <defs>
      <g id="E062-l19nj5e9">
         <path transform="scale(1,-1)" d="M582 -120c0 32 26 58 58 58s58 -26 58 -58s-26 -58 -58 -58s-58 26 -58 58zM582 120c0 32 26 58 58 58s58 -26 58 -58s-26 -58 -58 -58s-58 26 -58 58zM158 96c51 0 73 -14 88 -49l16 -39c0 -17 -2 -30 -7 -40c-3 -11 -10 -21 -19 -31c-17 -18 -49 -43 -84 -43 c-55 0 -77 13 -112 44c-24 21 -35 55 -35 100c0 46 14 81 32 112c30 52 71 79 137 93l36 6l26 2c154 0 235 -68 274 -182c11 -32 18 -68 18 -107c0 -103 -26 -182 -68 -250c-89 -145 -234 -230 -412 -288l-30 -5c-9 0 -14 3 -14 8c3 10 5 11 10 16c35 15 70 30 96 44l78 43 c96 57 162 136 197 258c9 33 17 60 22 100c3 22 5 35 6 39c-7 69 -16 115 -23 140s-4 22 -16 40c-8 12 -19 23 -31 34c-24 21 -62 44 -118 44c-48 0 -84 -8 -113 -28c-28 -19 -42 -44 -42 -73v-16c2 -5 3 -9 4 -11c24 22 52 39 84 39z" />
      </g>
      <g id="E262-l19nj5e9">
         <path transform="scale(1,-1)" d="M136 186v169h17v-164l44 14v-91l-44 -14v-165l44 12v-91l-44 -13v-155h-17v150l-76 -22v-155h-17v149l-43 -13v90l43 14v167l-43 -14v92l43 13v169h17v-163zM60 73v-167l76 22v168z" />
      </g>
      <g id="E083-l19nj5e9">
         <path transform="scale(1,-1)" d="M208 250c97 0 177 -52 177 -116c0 -69 -40 -111 -118 -125c56 -5 125 -44 125 -116c0 -31 -10 -57 -31 -78c-19 -21 -45 -38 -78 -49l-50 -11c-15 -3 -36 -7 -55 -7c-50 0 -86 16 -113 38c-16 10 -23 18 -34 34c-7 13 -11 25 -11 38c0 43 27 83 68 83l3 -2 c61 0 75 -42 75 -70c0 -19 -24 -42 -26 -57c7 -17 20 -25 37 -25c44 0 94 29 94 78c0 75 -34 125 -138 125v36c84 0 131 22 131 98c0 54 -37 88 -87 88c-26 0 -43 -7 -51 -22c15 -22 44 -16 44 -70c0 -37 -37 -62 -71 -62c-22 0 -69 15 -69 76c0 79 101 116 178 116z" />
      </g>
      <g id="E082-l19nj5e9">
         <path transform="scale(1,-1)" d="M124 -185c-18 0 -55 -14 -65 -65h-36l-3 30c0 25 6 45 18 63c11 19 22 30 39 43l121 82l37 29c15 11 27 29 38 54c12 24 18 47 18 70c0 40 -19 88 -94 88c-25 0 -32 0 -50 -8c-14 -5 -23 -12 -26 -22c3 -9 7 -15 10 -18l24 -17c12 -7 17 -11 27 -21c5 -7 7 -16 7 -27 c0 -12 0 -57 -79 -74c-30 0 -76 26 -76 94c0 66 81 135 197 135c72 0 181 -32 181 -150c0 -53 -32 -95 -113 -133l-91 -41c-26 -11 -45 -23 -57 -37l49 7c84 0 115 -41 148 -41c20 0 33 20 39 61h35c0 -152 -68 -168 -114 -168c-17 0 -65 0 -79 7h10l-28 17 c-49 37 -69 40 -87 42z" />
      </g>
      <g id="E0A3-l19nj5e9">
         <path transform="scale(1,-1)" d="M278 64c0 22 -17 39 -43 39c-12 0 -26 -3 -41 -10c-85 -43 -165 -94 -165 -156c5 -25 15 -32 49 -32c67 11 200 95 200 159zM0 -36c0 68 73 174 200 174c66 0 114 -39 114 -97c0 -84 -106 -173 -218 -173c-64 0 -96 32 -96 96z" />
      </g>
      <g id="E0A4-l19nj5e9">
         <path transform="scale(1,-1)" d="M0 -39c0 68 73 172 200 172c66 0 114 -37 114 -95c0 -84 -106 -171 -218 -171c-64 0 -96 30 -96 94z" />
      </g>
      <g id="E0A2-l19nj5e9">
         <path transform="scale(1,-1)" d="M198 133c102 0 207 -45 207 -133c0 -92 -118 -133 -227 -133c-101 0 -178 46 -178 133c0 88 93 133 198 133zM293 -21c0 14 -3 29 -8 44c-7 20 -18 38 -33 54c-20 21 -43 31 -68 31l-20 -2c-15 -5 -27 -14 -36 -28c-4 -9 -6 -17 -8 -24s-3 -16 -3 -27c0 -15 3 -34 9 -57 s18 -41 34 -55c15 -15 36 -23 62 -23c4 0 10 1 18 2c19 5 32 15 40 30s13 34 13 55z" />
      </g>
   </defs>
   <style type="text/css">#l19nj5e9 g.ending, #l19nj5e9 g.fing, #l19nj5e9 g.reh, #l19nj5e9 g.tempo {font-weight:bold;}#l19nj5e9 g.dir, #l19nj5e9 g.dynam, #l19nj5e9 g.mNum {font-style:italic;}#l19nj5e9 g.label {font-weight:normal;}#l19nj5e9 ellipse, #l19nj5e9 path, #l19nj5e9 polygon, #l19nj5e9 polyline, #l19nj5e9 rect {stroke:currentColor}</style>
   <svg class="definition-scale" color="black" font-family="Times, serif" viewBox="0 0 21000 27180">
      <g class="page-margin" transform="translate(800, 800)">
         <g id="v3bpgbh" class="mdiv pageMilestone" />
         <g id="wtn72u" class="score pageMilestone" />
         <g id="m85g0ir" class="system">
            <g id="n1payjnk" class="label">
               <text x="947" y="1717" text-anchor="end" font-size="0px">
                  <tspan id="okuje0l" class="text">
                     <tspan font-size="405px">Bass</tspan>
                  </tspan>
               </text>
            </g>
            <g id="yhbsl03" class="section systemMilestone" />
            <g id="owlajgs" class="section systemMilestone" />
            <g id="p36inxr" class="measure">
               <g id="yv3lqdm" class="staff">
                  <path d="M1127 1267 L4130 1267" stroke-width="13" />
                  <path d="M1127 1447 L4130 1447" stroke-width="13" />
                  <path d="M1127 1627 L4130 1627" stroke-width="13" />
                  <path d="M1127 1807 L4130 1807" stroke-width="13" />
                  <path d="M1127 1987 L4130 1987" stroke-width="13" />
                  <g id="z13ni9rj" class="clef">
                     <use xlink:href="#E062-l19nj5e9" transform="translate(1215, 1447) scale(0.72, 0.72)" />
                  </g>
                  <g id="a10h67m6" class="keySig">
                     <g id="b1vuap0e" class="keyAccid">
                        <use xlink:href="#E262-l19nj5e9" transform="translate(1896, 1447) scale(0.72, 0.72)" />
                     </g>
                     <g id="cqjkq0x" class="keyAccid">
                        <use xlink:href="#E262-l19nj5e9" transform="translate(2074, 1717) scale(0.72, 0.72)" />
                     </g>
                  </g>
                  <g id="duny2w8" class="meterSig">
                     <use xlink:href="#E083-l19nj5e9" transform="translate(2392, 1447) scale(0.72, 0.72)" />
                     <use xlink:href="#E082-l19nj5e9" transform="translate(2381, 1807) scale(0.72, 0.72)" />
                  </g>
                  <g id="z2gqwr3" class="layer">
                     <g id="a1pfogn4" class="note">
                        <g class="notehead">
                           <use xlink:href="#E0A3-l19nj5e9" transform="translate(2953, 1897) scale(0.72, 0.72)" />
                        </g>
                        <g id="g1a9x3r7" class="stem">
                           <path d="M3170 1869 L3170 1267" stroke-width="18" />
                        </g>
                        <g id="b8j2ung" class="accid" />
                     </g>
                  </g>
               </g>
               <g id="x15wwqth" class="barLine">
                  <path d="M4117 1267 L4117 1987" stroke-width="27" />
               </g>
            </g>
            <g id="c1ahluu1" class="measure">
               <g id="leeh8fz" class="staff">
                  <path d="M4130 1267 L8181 1267" stroke-width="13" />
                  <path d="M4130 1447 L8181 1447" stroke-width="13" />
                  <path d="M4130 1627 L8181 1627" stroke-width="13" />
                  <path d="M4130 1807 L8181 1807" stroke-width="13" />
                  <path d="M4130 1987 L8181 1987" stroke-width="13" />
                  <g class="ledgerLines below">
                     <path d="M5026 2167 L5348 2167" stroke-width="22" />
                  </g>
                  <g id="m5odh2d" class="layer">
                     <g id="n16gprxv" class="note">
                        <g class="notehead">
                           <use xlink:href="#E0A4-l19nj5e9" transform="translate(4309, 2077) scale(0.72, 0.72)" />
                        </g>
                        <g id="h14onpgt" class="stem">
                           <path d="M4526 2049 L4526 1447" stroke-width="18" />
                        </g>
                        <g id="o1w2vfrn" class="accid" />
                     </g>
                     <g id="pk6xyvl" class="note">
                        <g class="notehead">
                           <use xlink:href="#E0A4-l19nj5e9" transform="translate(5074, 2257) scale(0.72, 0.72)" />
                        </g>
                        <g id="ilwctc6" class="stem">
                           <path d="M5291 2229 L5291 1627" stroke-width="18" />
                        </g>
                        <g id="qhghzyb" class="accid" />
                     </g>
                     <g id="rgx8bjh" class="note">
                        <g class="notehead">
                           <use xlink:href="#E0A3-l19nj5e9" transform="translate(5839, 1897) scale(0.72, 0.72)" />
                        </g>
                        <g id="j1y2tg4n" class="stem">
                           <path d="M6056 1869 L6056 1267" stroke-width="18" />
                        </g>
                        <g id="s82fpt" class="accid" />
                     </g>
                     <g id="t3elz0m" class="note">
                        <g class="notehead">
                           <use xlink:href="#E0A3-l19nj5e9" transform="translate(7004, 1897) scale(0.72, 0.72)" />
                        </g>
                        <g id="k17r2sbn" class="stem">
                           <path d="M7221 1869 L7221 1267" stroke-width="18" />
                        </g>
                        <g id="u1bb0tuc" class="accid" />
                     </g>
                  </g>
               </g>
               <g id="k1d0qcvg" class="barLine">
                  <path d="M8168 1267 L8168 1987" stroke-width="27" />
               </g>
            </g>
            <g id="v6sh6uc" class="measure">
               <g id="ewtw03u" class="staff">
                  <path d="M8181 1267 L12232 1267" stroke-width="13" />
                  <path d="M8181 1447 L12232 1447" stroke-width="13" />
                  <path d="M8181 1627 L12232 1627" stroke-width="13" />
                  <path d="M8181 1807 L12232 1807" stroke-width="13" />
                  <path d="M8181 1987 L12232 1987" stroke-width="13" />
                  <g id="f12ecyql" class="layer">
                     <g id="gjwwkjn" class="note">
                        <g class="notehead">
                           <use xlink:href="#E0A4-l19nj5e9" transform="translate(8360, 1627) scale(0.72, 0.72)" />
                        </g>
                        <g id="lklwdg" class="stem">
                           <path d="M8369 1655 L8369 2227" stroke-width="18" />
                        </g>
                        <g id="hzub3xf" class="accid" />
                     </g>
                     <g id="izv1mc9" class="note">
                        <g class="notehead">
                           <use xlink:href="#E0A4-l19nj5e9" transform="translate(9125, 1897) scale(0.72, 0.72)" />
                        </g>
                        <g id="m17jlnp0" class="stem">
                           <path d="M9342 1869 L9342 1267" stroke-width="18" />
                        </g>
                        <g id="j14qhuvu" class="accid" />
                     </g>
                     <g id="k1dict13" class="note">
                        <g class="notehead">
                           <use xlink:href="#E0A3-l19nj5e9" transform="translate(9890, 1807) scale(0.72, 0.72)" />
                        </g>
                        <g id="n1tqn102" class="stem">
                           <path d="M10107 1779 L10107 1177" stroke-width="18" />
                        </g>
                        <g id="lcz237t" class="accid" />
                     </g>
                     <g id="mwxt00x" class="note">
                        <g class="notehead">
                           <use xlink:href="#E0A3-l19nj5e9" transform="translate(11055, 1897) scale(0.72, 0.72)" />
                        </g>
                        <g id="o9btm6t" class="stem">
                           <path d="M11272 1869 L11272 1267" stroke-width="18" />
                        </g>
                        <g id="ndvl5ld" class="accid" />
                     </g>
                  </g>
               </g>
               <g id="d1eyoooy" class="barLine">
                  <path d="M12219 1267 L12219 1987" stroke-width="27" />
               </g>
            </g>
            <g id="o1nwbnw5" class="measure">
               <g id="x1oxd4nf" class="staff">
                  <path d="M12232 1267 L16283 1267" stroke-width="13" />
                  <path d="M12232 1447 L16283 1447" stroke-width="13" />
                  <path d="M12232 1627 L16283 1627" stroke-width="13" />
                  <path d="M12232 1807 L16283 1807" stroke-width="13" />
                  <path d="M12232 1987 L16283 1987" stroke-width="13" />
                  <g id="y23h8om" class="layer">
                     <g id="z16wv72r" class="note">
                        <g class="notehead">
                           <use xlink:href="#E0A4-l19nj5e9" transform="translate(12411, 1627) scale(0.72, 0.72)" />
                        </g>
                        <g id="p13wmgga" class="stem">
                           <path d="M12420 1655 L12420 2227" stroke-width="18" />
                        </g>
                        <g id="a1n0fw13" class="accid" />
                     </g>
                     <g id="b13viyd2" class="note">
                        <g class="notehead">
                           <use xlink:href="#E0A4-l19nj5e9" transform="translate(13176, 1627) scale(0.72, 0.72)" />
                        </g>
                        <g id="q2mj26n" class="stem">
                           <path d="M13185 1655 L13185 2227" stroke-width="18" />
                        </g>
                        <g id="c1yevvwh" class="accid" />
                     </g>
                     <g id="d1sqgsul" class="note">
                        <g class="notehead">
                           <use xlink:href="#E0A3-l19nj5e9" transform="translate(13941, 1717) scale(0.72, 0.72)" />
                        </g>
                        <g id="r1mn9a82" class="stem">
                           <path d="M14158 1689 L14158 1087" stroke-width="18" />
                        </g>
                        <g id="e11rutd2" class="accid" />
                     </g>
                     <g id="fwigvp2" class="note">
                        <g class="notehead">
                           <use xlink:href="#E0A3-l19nj5e9" transform="translate(15106, 1627) scale(0.72, 0.72)" />
                        </g>
                        <g id="s1tkjxkp" class="stem">
                           <path d="M15115 1652 L15115 2227" stroke-width="18" />
                        </g>
                        <g id="g1ho95rp" class="accid" />
                     </g>
                  </g>
               </g>
               <g id="w1m11mph" class="barLine">
                  <path d="M16270 1267 L16270 1987" stroke-width="27" />
               </g>
            </g>
            <g id="h1wvbc8t" class="measure">
               <g id="q14fmeoc" class="staff">
                  <path d="M16283 1267 L19403 1267" stroke-width="13" />
                  <path d="M16283 1447 L19403 1447" stroke-width="13" />
                  <path d="M16283 1627 L19403 1627" stroke-width="13" />
                  <path d="M16283 1807 L19403 1807" stroke-width="13" />
                  <path d="M16283 1987 L19403 1987" stroke-width="13" />
                  <g id="rivwb27" class="layer">
                     <g id="s1f31sgl" class="note">
                        <g class="notehead">
                           <use xlink:href="#E0A2-l19nj5e9" transform="translate(16462, 1897) scale(0.72, 0.72)" />
                        </g>
                        <g id="t1ajik95" class="accid" />
                     </g>
                     <g id="u6oscn4" class="note">
                        <g class="notehead">
                           <use xlink:href="#E0A3-l19nj5e9" transform="translate(18226, 1897) scale(0.72, 0.72)" />
                        </g>
                        <g id="uh31vrx" class="stem">
                           <path d="M18443 1869 L18443 1267" stroke-width="18" />
                        </g>
                        <g id="vyt4ad" class="accid" />
                     </g>
                  </g>
               </g>
               <g id="pmwmthe" class="barLine">
                  <path d="M19390 1267 L19390 1987" stroke-width="27" />
               </g>
            </g>
         </g>
         <g id="p1fhv3b9" class="system">
            <g id="k1azqi3n" class="labelAbbr">
               <text x="451" y="3877" text-anchor="end" font-size="0px">
                  <tspan id="l1f1bted" class="text">
                     <tspan font-size="405px">B</tspan>
                  </tspan>
               </text>
            </g>
            <g id="w19obtds" class="measure">
               <g id="wa4bnz4" class="mNum autogenerated">
                  <text x="631" y="3184" text-anchor="middle" font-size="0px">
                     <tspan id="xl2xv5c" class="text">
                        <tspan font-size="324px">6</tspan>
                     </tspan>
                  </text>
               </g>
               <g id="fqn9gl2" class="staff">
                  <path d="M631 3427 L6814 3427" stroke-width="13" />
                  <path d="M631 3607 L6814 3607" stroke-width="13" />
                  <path d="M631 3787 L6814 3787" stroke-width="13" />
                  <path d="M631 3967 L6814 3967" stroke-width="13" />
                  <path d="M631 4147 L6814 4147" stroke-width="13" />
                  <g id="u19wbbma" class="clef">
                     <use xlink:href="#E062-l19nj5e9" transform="translate(719, 3607) scale(0.72, 0.72)" />
                  </g>
                  <g id="v3ov7kh" class="keySig">
                     <g id="w16t88vj" class="keyAccid">
                        <use xlink:href="#E262-l19nj5e9" transform="translate(1400, 3607) scale(0.72, 0.72)" />
                     </g>
                     <g id="x105puxc" class="keyAccid">
                        <use xlink:href="#E262-l19nj5e9" transform="translate(1578, 3877) scale(0.72, 0.72)" />
                     </g>
                  </g>
                  <g id="goma0gm" class="layer">
                     <g id="h1a2rmes" class="note">
                        <g class="notehead">
                           <use xlink:href="#E0A4-l19nj5e9" transform="translate(2030, 3787) scale(0.72, 0.72)" />
                        </g>
                        <g id="v1aak2lp" class="stem">
                           <path d="M2039 3815 L2039 4387" stroke-width="18" />
                        </g>
                        <g id="i4vs11m" class="accid" />
                     </g>
                     <g id="j1s8kxne" class="note">
                        <g class="notehead">
                           <use xlink:href="#E0A4-l19nj5e9" transform="translate(2976, 3787) scale(0.72, 0.72)" />
                        </g>
                        <g id="w5xpaue" class="stem">
                           <path d="M2985 3815 L2985 4387" stroke-width="18" />
                        </g>
                        <g id="k19a056m" class="accid" />
                     </g>
                     <g id="l1e7ub62" class="note">
                        <g class="notehead">
                           <use xlink:href="#E0A3-l19nj5e9" transform="translate(3923, 3787) scale(0.72, 0.72)" />
                        </g>
                        <g id="x1azmn68" class="stem">
                           <path d="M3932 3812 L3932 4387" stroke-width="18" />
                        </g>
                        <g id="mlwp7zq" class="accid" />
                     </g>
                     <g id="nt9ronl" class="note">
                        <g class="notehead">
                           <use xlink:href="#E0A3-l19nj5e9" transform="translate(5362, 4237) scale(0.72, 0.72)" />
                        </g>
                        <g id="yj3q1z9" class="stem">
                           <path d="M5579 4209 L5579 3607" stroke-width="18" />
                        </g>
                        <g id="o1awc8ol" class="accid" />
                     </g>
                  </g>
               </g>
               <g id="e11izfdo" class="barLine">
                  <path d="M6801 3427 L6801 4147" stroke-width="27" />
               </g>
            </g>
            <g id="p1ufntge" class="measure">
               <g id="y1ccvmbx" class="staff">
                  <path d="M6814 3427 L11819 3427" stroke-width="13" />
                  <path d="M6814 3607 L11819 3607" stroke-width="13" />
                  <path d="M6814 3787 L11819 3787" stroke-width="13" />
                  <path d="M6814 3967 L11819 3967" stroke-width="13" />
                  <path d="M6814 4147 L11819 4147" stroke-width="13" />
                  <g id="z1onwf8y" class="layer">
                     <g id="au36i87" class="note">
                        <g class="notehead">
                           <use xlink:href="#E0A4-l19nj5e9" transform="translate(7035, 4147) scale(0.72, 0.72)" />
                        </g>
                        <g id="zymttu" class="stem">
                           <path d="M7252 4119 L7252 3517" stroke-width="18" />
                        </g>
                        <g id="b1bp6nfw" class="accid" />
                     </g>
                     <g id="cg7y08o" class="note">
                        <g class="notehead">
                           <use xlink:href="#E0A4-l19nj5e9" transform="translate(7981, 4147) scale(0.72, 0.72)" />
                        </g>
                        <g id="a1jj7l9j" class="stem">
                           <path d="M8198 4119 L8198 3517" stroke-width="18" />
                        </g>
                        <g id="dxlbg6w" class="accid" />
                     </g>
                     <g id="efwg9mm" class="note">
                        <g class="notehead">
                           <use xlink:href="#E0A3-l19nj5e9" transform="translate(8928, 4147) scale(0.72, 0.72)" />
                        </g>
                        <g id="bcl6eok" class="stem">
                           <path d="M9145 4119 L9145 3517" stroke-width="18" />
                        </g>
                        <g id="f1pu9rwv" class="accid" />
                     </g>
                     <g id="g1wpyvd" class="note">
                        <g class="notehead">
                           <use xlink:href="#E0A3-l19nj5e9" transform="translate(10367, 4147) scale(0.72, 0.72)" />
                        </g>
                        <g id="c194ijhb" class="stem">
                           <path d="M10584 4119 L10584 3517" stroke-width="18" />
                        </g>
                        <g id="h1hwlyfa" class="accid" />
                     </g>
                  </g>
               </g>
               <g id="xpk0tft" class="barLine">
                  <path d="M11806 3427 L11806 4147" stroke-width="27" />
               </g>
            </g>
            <g id="ipk7z6m" class="measure">
               <g id="r3ruo0a" class="staff">
                  <path d="M11819 3427 L16824 3427" stroke-width="13" />
                  <path d="M11819 3607 L16824 3607" stroke-width="13" />
                  <path d="M11819 3787 L16824 3787" stroke-width="13" />
                  <path d="M11819 3967 L16824 3967" stroke-width="13" />
                  <path d="M11819 4147 L16824 4147" stroke-width="13" />
                  <g id="s2cpl9z" class="layer">
                     <g id="t12l1c7g" class="note">
                        <g class="notehead">
                           <use xlink:href="#E0A4-l19nj5e9" transform="translate(12040, 4057) scale(0.72, 0.72)" />
                        </g>
                        <g id="d1mc3yi9" class="stem">
                           <path d="M12257 4029 L12257 3427" stroke-width="18" />
                        </g>
                        <g id="u19knp2v" class="accid" />
                     </g>
                     <g id="v1gxitk" class="note">
                        <g class="notehead">
                           <use xlink:href="#E0A4-l19nj5e9" transform="translate(12986, 4057) scale(0.72, 0.72)" />
                        </g>
                        <g id="e8boech" class="stem">
                           <path d="M13203 4029 L13203 3427" stroke-width="18" />
                        </g>
                        <g id="w1905d68" class="accid" />
                     </g>
                     <g id="xz5i2aa" class="note">
                        <g class="notehead">
                           <use xlink:href="#E0A3-l19nj5e9" transform="translate(13933, 4057) scale(0.72, 0.72)" />
                        </g>
                        <g id="f4ez1j9" class="stem">
                           <path d="M14150 4029 L14150 3427" stroke-width="18" />
                        </g>
                        <g id="y17jmr1w" class="accid" />
                     </g>
                     <g id="z11huxwv" class="note">
                        <g class="notehead">
                           <use xlink:href="#E0A3-l19nj5e9" transform="translate(15372, 4057) scale(0.72, 0.72)" />
                        </g>
                        <g id="gfmd4j" class="stem">
                           <path d="M15589 4029 L15589 3427" stroke-width="18" />
                        </g>
                        <g id="anr4k48" class="accid" />
                     </g>
                  </g>
               </g>
               <g id="qqy4i76" class="barLine">
                  <path d="M16811 3427 L16811 4147" stroke-width="27" />
               </g>
            </g>
            <g id="b1m8zn17" class="measure">
               <g id="kjeoxmv" class="staff">
                  <path d="M16824 3427 L19401 3427" stroke-width="13" />
                  <path d="M16824 3607 L19401 3607" stroke-width="13" />
                  <path d="M16824 3787 L19401 3787" stroke-width="13" />
                  <path d="M16824 3967 L19401 3967" stroke-width="13" />
                  <path d="M16824 4147 L19401 4147" stroke-width="13" />
                  <g class="ledgerLines below">
                     <path d="M16997 4327 L17383 4327" stroke-width="22" />
                  </g>
                  <g id="lke0vy6" class="layer">
                     <g id="m1sctd0l" class="note">
                        <g class="notehead">
                           <use xlink:href="#E0A2-l19nj5e9" transform="translate(17045, 4417) scale(0.72, 0.72)" />
                        </g>
                        <g id="n41nhpl" class="accid" />
                     </g>
                  </g>
               </g>
               <g id="j1rmtrje" class="barLine">
                  <path d="M19226 3427 L19226 4147" stroke-width="27" />
                  <path d="M19356 3427 L19356 4147" stroke-width="90" />
               </g>
            </g>
            <g id="x1053kmm" class="systemMilestoneEnd owlajgs" />
            <g id="yjaxy2q" class="systemMilestoneEnd yhbsl03" />
         </g>
         <g id="z18z7271" class="pageMilestoneEnd wtn72u" />
         <g id="a85g2or" class="pageMilestoneEnd v3bpgbh" />
         <g id="bznfzok" class="pgHead autogenerated">
            <text font-size="0px">
               <tspan id="cc8wdp9" class="rend" x="9700" y="415" text-anchor="middle">
                  <title class="labelAttr">title</title>
                  <tspan id="dxvimeh" class="rend">
                     <tspan id="er631e3" class="text">
                        <tspan font-size="607px">O For A Thousand Tongues</tspan>
                     </tspan>
                  </tspan>
               </tspan>
            </text>
         </g>
      </g>
   </svg>
</svg>
